<svg width="36" height="43" viewBox='0 0 36 43' xmlns="http://www.w3.org/2000/svg"><path d="M35.245 33.51a23.42 23.42 0 01-2.297 4.157c-1.209 1.733-2.198 2.933-2.96 3.599-1.182 1.093-2.448 1.653-3.805 1.685-.973 0-2.147-.279-3.513-.844-1.372-.563-2.632-.841-3.784-.841-1.208 0-2.504.278-3.89.841-1.388.565-2.506.86-3.361.89-1.3.055-2.597-.52-3.89-1.731-.826-.725-1.86-1.967-3.096-3.727-1.328-1.879-2.42-4.058-3.274-6.543C.459 28.313 0 25.715 0 23.2c0-2.882.619-5.367 1.859-7.45.974-1.673 2.27-2.993 3.892-3.962a10.424 10.424 0 015.263-1.494c1.033 0 2.387.322 4.07.954 1.678.633 2.756.955 3.229.955.353 0 1.55-.376 3.58-1.125 1.919-.695 3.539-.983 4.866-.87 3.595.292 6.297 1.719 8.093 4.288-3.215 1.96-4.806 4.706-4.775 8.228.03 2.744 1.019 5.027 2.963 6.84A9.73 9.73 0 0036 31.517a32.305 32.305 0 01-.755 1.993zM27 .86c0 2.15-.781 4.159-2.338 6.017-1.878 2.21-4.15 3.486-6.614 3.285a6.735 6.735 0 01-.05-.815c0-2.065.894-4.274 2.48-6.08.792-.915 1.8-1.676 3.02-2.282C24.718.387 25.87.057 26.955 0c.031.287.045.575.045.86z" fill="#000" fill-rule="nonzero"/></svg>