<svg width="56" height="35" viewBox='0 0 56 35' xmlns="http://www.w3.org/2000/svg"><g fill="#F8991C" fill-rule="nonzero"><path d="M27.963 29.99l27.89-17.39v4.716l-27.89 17.463L.037 17.316V12.6z"/><path d="M27.963 8.179c-6.3 0-11.826 3.168-14.995 8.068.258-.258.406-.405.664-.59 7.847-6.52 19.157-5.046 25.31 3.17l4.09-2.616c-3.243-4.753-8.806-8.032-15.069-8.032"/><path d="M27.963 16.247c-3.426 0-6.447 1.732-8.252 4.237a8.364 8.364 0 014.973-1.62c3.021 0 5.71 1.547 7.516 4.162l3.905-2.431c-1.694-2.69-4.716-4.348-8.142-4.348M9.1 9.174C20.595.11 36.842 2.579 45.5 14.626l.074.074 4.237-2.616C45.168 4.974 37.1.258 27.963.258 18.9.258 10.832 4.9 6.116 12.084c.847-.958 1.916-2.1 2.984-2.91"/></g></svg>