<?xml version="1.0" standalone="no"?>
<!DOCTYPE svg PUBLIC "-//W3C//DTD SVG 20010904//EN"
 "http://www.w3.org/TR/2001/REC-SVG-20010904/DTD/svg10.dtd">
<svg version="1.0" xmlns="http://www.w3.org/2000/svg"
 width="588.000000pt" height="145.000000pt" viewBox="0 0 588.000000 145.000000"
 preserveAspectRatio="xMidYMid meet">

<g transform="translate(0.000000,145.000000) scale(0.100000,-0.100000)"
fill="#000000" stroke="none">
<path d="M5250 1431 c-75 -24 -96 -36 -153 -90 -114 -107 -148 -284 -80 -428
44 -95 172 -181 387 -262 196 -74 272 -134 303 -240 31 -108 0 -225 -80 -298
-56 -52 -107 -66 -214 -61 -101 5 -189 45 -263 119 -66 66 -126 189 -142 292
-11 71 -14 77 -35 77 l-23 0 0 -260 0 -260 25 0 c18 0 25 5 25 18 0 24 31 52
57 52 11 0 76 -19 144 -41 89 -30 147 -43 205 -47 216 -13 385 87 443 263 61
182 18 382 -102 476 -65 52 -102 70 -257 129 -154 58 -218 90 -266 132 -128
113 -82 325 83 384 57 20 154 17 217 -7 133 -49 236 -209 236 -366 0 -39 2
-43 25 -43 l25 0 0 240 0 240 -24 0 c-19 0 -25 -6 -28 -27 -3 -26 -6 -28 -48
-27 -25 0 -89 13 -144 27 -118 32 -232 35 -316 8z"/>
<path d="M0 1405 c0 -23 4 -25 45 -25 32 0 51 -6 65 -20 20 -20 20 -33 20
-639 l0 -620 -22 -15 c-12 -9 -42 -16 -65 -16 -39 0 -43 -2 -43 -26 l0 -25
363 3 362 4 80 27 c94 32 161 78 204 141 41 59 65 154 57 223 -19 163 -112
266 -301 334 -27 10 -45 18 -38 18 38 3 129 48 171 86 64 58 95 127 96 215 1
172 -112 299 -306 345 -49 11 -134 15 -375 15 l-313 0 0 -25z m601 -35 c63
-18 102 -51 134 -115 28 -56 30 -67 30 -170 -1 -103 -3 -115 -30 -170 -49 -98
-107 -125 -267 -125 l-98 0 0 275 c0 330 -6 315 118 315 42 0 93 -5 113 -10z
m64 -658 c108 -49 146 -120 153 -285 8 -184 -34 -283 -142 -333 -44 -20 -67
-24 -158 -24 -160 0 -148 -29 -148 356 l0 316 123 -4 c100 -3 131 -8 172 -26z"/>
<path d="M1030 1405 c0 -22 4 -25 40 -25 54 0 77 -24 85 -92 3 -29 5 -307 3
-616 l-3 -564 -24 -19 c-15 -12 -39 -19 -67 -19 -40 0 -44 -2 -44 -25 l0 -25
261 0 260 0 -3 23 c-3 19 -10 23 -61 27 -42 4 -63 11 -73 25 -11 15 -14 79
-14 333 l0 314 123 -3 c100 -3 129 -8 162 -25 77 -40 104 -133 105 -354 0
-257 61 -339 253 -340 86 0 87 0 87 25 0 22 -4 25 -40 25 -54 0 -60 16 -60
152 0 148 -15 274 -41 343 -27 73 -98 144 -173 175 l-57 23 56 19 c153 51 224
143 225 289 0 65 -4 85 -31 137 -51 103 -151 174 -291 207 -49 11 -133 15
-370 15 l-308 0 0 -25z m624 -27 c24 -8 59 -31 87 -58 58 -58 74 -112 74 -245
-1 -143 -37 -219 -130 -268 -34 -18 -61 -22 -177 -25 l-138 -4 0 266 c0 302 5
328 62 345 39 12 164 6 222 -11z"/>
<path d="M2150 1405 c0 -23 4 -25 45 -25 35 0 52 -6 70 -25 l25 -24 0 -600 c0
-437 -3 -607 -12 -626 -12 -26 -27 -33 -88 -37 -28 -2 -36 -8 -38 -25 l-3 -23
256 0 256 0 -3 23 c-3 19 -10 22 -49 25 -90 6 -84 -41 -84 659 l0 615 24 19
c15 12 39 19 67 19 40 0 44 2 44 25 l0 25 -255 0 -255 0 0 -25z"/>
<path d="M2700 1405 c0 -23 3 -25 49 -25 42 0 53 -4 70 -26 21 -26 21 -35 21
-625 0 -436 -3 -605 -12 -624 -12 -26 -27 -33 -88 -37 -28 -2 -36 -8 -38 -25
l-3 -23 296 0 c335 0 399 8 525 66 159 74 278 210 337 389 25 74 27 92 27 250
0 158 -2 176 -27 250 -60 181 -176 314 -338 389 -125 58 -190 66 -524 66
l-295 0 0 -25z m683 -62 c84 -40 140 -97 182 -185 58 -121 70 -194 70 -433 0
-245 -13 -318 -76 -445 -45 -89 -94 -138 -179 -178 -46 -22 -73 -27 -160 -30
-161 -6 -145 -79 -145 655 l0 615 25 20 c22 18 35 20 121 16 81 -4 107 -10
162 -35z"/>
<path d="M3870 1405 c0 -22 4 -25 39 -25 24 0 48 -8 65 -21 l26 -20 0 -613 c0
-693 5 -649 -80 -661 -40 -6 -50 -11 -50 -26 0 -18 15 -19 515 -19 l515 0 0
260 0 260 -24 0 c-23 0 -25 -5 -31 -67 -19 -198 -82 -312 -203 -366 -69 -31
-233 -53 -317 -42 -93 11 -90 -1 -93 362 l-3 316 95 -5 c75 -4 106 -11 142
-29 63 -32 101 -99 111 -194 7 -61 11 -70 28 -70 20 0 20 8 23 308 l2 307 -25
0 c-23 0 -25 -4 -25 -43 0 -71 -26 -141 -65 -176 -45 -39 -90 -51 -197 -51
l-88 0 0 248 c0 142 5 263 11 285 13 49 35 57 152 57 268 -1 396 -106 414
-342 6 -73 8 -79 27 -76 21 3 21 8 24 236 l2 232 -495 0 -495 0 0 -25z"/>
</g>
</svg>
