<?xml version="1.0" encoding="utf-8"?>
<!-- Generator: Adobe Illustrator 24.3.0, SVG Export Plug-In . SVG Version: 6.00 Build 0)  -->
<svg version="1.1" id="Layer_1" xmlns="http://www.w3.org/2000/svg" xmlns:xlink="http://www.w3.org/1999/xlink" x="0px" y="0px"
	 viewBox="0 0 100 100" style="enable-background:new 0 0 100 100;" xml:space="preserve">
<style type="text/css">
	.st0{fill:#DBE9F3;}
	.st1{fill:#231F20;}
	.st2{fill:#E6E8ED;}
	.st3{fill:#FFFFFF;}
	.st4{fill:#BFC2C7;}
	.st5{fill:#CCCDD4;}
	.st6{fill:#B0B8BD;}
	.st7{fill:#899599;}
	.st8{fill:#E3E6EB;}
	.st9{fill:#A0A2A8;}
	.st10{fill:#66B984;}
	.st11{fill:#C1C4CB;}
	.st12{fill:#88C66F;}
	.st13{fill:#77C279;}
	.st14{fill:#5BBB55;}
	.st15{fill:#C9DEA9;}
	.st16{fill:#704425;}
</style>
<g>
	<circle class="st0" cx="47.8" cy="40.5" r="34.3"/>
	<path class="st1" d="M46.3,0.2c0,0.1,0,0.6,0,1.1l0.1,1l-0.5,0.5c-0.4,0.4-0.6,0.6-0.8,1.5c-0.2,0.6-0.4,1.1-0.4,1.3
		c-0.1,0.2-0.2,0.6-0.3,1c-0.1,0.4-0.4,1.3-0.6,2c-0.3,0.9-0.5,1.7-0.6,2.4c-0.1,0.6-0.2,1.5-0.4,1.9c-0.2,0.8-0.4,1.5-0.8,3.4
		c-0.1,0.2-0.2,0.6-0.3,0.7c-0.3,0.5-0.6,1.6-0.6,2.3c0,0.4,0,0.7-0.1,0.7c-0.1,0-1.6-0.9-1.8-1.1c-0.1-0.1-0.5-0.3-0.8-0.5
		c-0.3-0.2-1.1-0.6-1.7-1c-0.6-0.4-1.5-0.9-1.9-1.1c-0.4-0.2-1-0.6-1.3-0.7c-0.8-0.6-2.4-1.3-2.7-1.3c-0.2,0-0.3,0-0.3,0.1
		c-0.1,0.1-1.4,1-1.9,1.2c-0.2,0.1-0.5,0.3-0.8,0.6c-0.3,0.2-1,0.7-1.5,1.1c-0.6,0.4-1,0.8-1.2,1c-0.2,0.4-0.2,1,0,2
		c0.2,0.9,0.4,3.3,0.4,4.7v1l-1,0.2c-0.6,0.1-1.4,0.3-1.9,0.4c-2.5,0.6-4,1-6.8,1.4c-0.5,0.1-1,0.2-1.1,0.2
		c-0.1,0.1-0.5,0.6-0.9,1.2c-0.4,0.6-1.1,1.4-1.7,1.9c-0.5,0.5-1,1-1,1c0,0.1,0.2,0.4,0.5,0.7c0.9,1,1.5,2.1,2.3,3.9
		c0.6,1.4,0.6,1.9,0.3,2.4c-0.2,0.4-0.2,0.6-0.2,1.4c0.1,0.8,0,1.1-0.3,2.2c-0.2,0.7-0.4,1.5-0.4,1.7s-0.1,0.7-0.1,1
		c0,0.4,0,0.9,0.1,1.4c0.2,1,0.4,1.4,0.8,1.8c0.6,0.7,0.6,0.7,0.5,2.4c-0.1,0.9-0.1,1.7-0.1,1.8c0,0.1,0.2,0.4,0.5,0.7
		c0.2,0.3,0.5,0.9,0.7,1.5c0.2,0.5,0.3,1,0.4,1c0.1,0.1,0.1,0.2,0.1,0.3c0,0.1,0.3,0.6,0.6,1.2c0.7,1.1,1.4,2.3,2,3.4
		c0.5,1,1.9,2.6,2.7,3.3c0.3,0.3,0.8,0.7,1,1c0.5,0.5,1.4,1.2,2.6,2.1c0.4,0.3,0.8,0.6,0.9,0.6c0.2,0.2,1.8,1.2,2.6,1.6
		c0.5,0.2,1,0.5,1.1,0.6c0.1,0.1,0.5,0.2,0.9,0.4c0.4,0.2,1.1,0.5,1.4,0.7c1.2,0.7,4.4,2,4.9,2c0.1,0,0.8,0.2,1.5,0.4
		c1.5,0.5,1.7,0.6,2.3,0.6c0.2,0,0.8,0.2,1.3,0.3c2.2,0.6,4.6,0.8,6.3,0.5c0.6-0.1,1.9-0.2,2.8-0.2c4-0.2,4.5-0.2,4.8-0.4
		c0.1-0.1,0.3-0.2,0.5-0.2c0.7,0,4.5-1.3,5-1.6c0.2-0.2,1.1-0.6,3-1.3c0.3-0.1,1-0.4,1.5-0.6c1.7-0.6,3.1-1.5,4.7-2.7
		c0.3-0.2,0.8-0.6,1-0.8c0.5-0.3,0.8-0.6,2.4-2c1.5-1.3,3.4-3.4,3.8-4.2c0.1-0.3,0.4-0.7,0.6-0.9c0.2-0.2,0.6-0.8,0.8-1.4
		c0.3-0.6,0.6-1,0.6-1.1c0.1-0.1,0.2-0.5,0.4-0.9c0.2-0.4,0.4-1,0.6-1.3c0.4-0.7,0.8-1.9,1-2.8c0.1-0.4,0.3-1.1,0.4-1.6
		c0.2-1,0.5-2.4,0.8-4.7c0.2-1.5,0.2-1.7,0.7-2.7c0.7-1.4,1.6-2.9,3.5-5.4c1.1-1.5,1.8-2.2,2.2-2.6c0.6-0.4,0.6-0.5,0.6-0.9
		c0-0.2-0.2-0.7-0.4-1.1c-0.4-0.7-1.2-3-1.4-3.5l-0.1-0.3L86.5,30c-0.8,0-1.6-0.1-1.7-0.1c-0.2,0-1-0.1-1.8-0.2
		c-0.8-0.1-2-0.3-2.7-0.4c-1.2-0.2-2.9-0.5-3.1-0.6c-0.2-0.1-1.9-0.5-2.1-0.5c-0.3,0-0.3,0-0.2-0.6c0-0.3,0.2-1.4,0.3-2.3
		c0.2-1.8,0.5-3.1,0.9-5.2c0.1-0.6,0.2-1.5,0.2-1.8v-0.6l-0.7-0.4c-1-0.6-2-1.6-2.5-2.4c-0.5-0.8-0.7-1-1-0.7
		c-0.1,0.1-0.7,0.2-1.4,0.2c-0.7,0.1-1.3,0.1-1.4,0.2c-0.1,0-1,0.2-2.2,0.3c-4.9,0.6-5.2,0.6-7.1,1.2c-0.3,0.1-1.2,0.2-2,0.3
		c-0.8,0.1-1.6,0.2-1.6,0.3c-0.1,0-0.2,0.4-0.3,0.7C56,18,56,18,56.3,18.5l0.3,0.5l-0.2,0.9c-0.2,0.9-0.2,1.1-0.2,5.6v4.8l-1.5,0
		c-0.9,0-1.6,0-1.6,0c-0.1,0-0.1-0.8,0-2.1c0.2-3.5,0.3-6,0.2-7.5C53.1,19.8,53,19,53,18.9c0-0.1-0.2-0.5-0.3-1
		c-0.3-1.3-0.6-2.5-0.8-2.7c-0.1-0.1-0.2-0.4-0.2-0.7c-0.2-1-0.5-1.8-0.8-2.6c-0.6-1.3-0.6-1.4-0.7-2.1c-0.1-0.9-0.5-2.1-0.9-3
		c-0.4-0.7-0.8-1.7-1.4-3c-0.2-0.3-0.5-0.9-0.7-1.1c-0.4-0.5-0.5-1-0.6-1.8C46.7,0.2,46.6-0.2,46.3,0.2z"/>
	<path class="st2" d="M47.1,3.2c0.4,0.4,1.2,2.2,1,2.1c-0.1,0-0.4-0.1-0.7-0.2c-0.6-0.1-1.1,0-1.7,0.4c-0.5,0.4-0.4,0.2,0.2-1.6
		c0.1-0.3,0.3-0.7,0.4-0.8C46.4,2.9,46.8,3,47.1,3.2z"/>
	<path class="st2" d="M48.1,6.3c0.8,0.7,1.3,1.9,1.5,3.3l0.1,0.4l-0.2-0.3c-1-1.2-3.1-1.4-4.5-0.5c-0.2,0.2-0.6,0.5-0.8,0.8
		c-0.2,0.3-0.4,0.5-0.4,0.5c-0.1-0.1,0.8-2.6,1.2-3.1c0.8-1.3,1.2-1.6,2-1.6C47.5,5.7,47.6,5.8,48.1,6.3z"/>
	<path class="st2" d="M48.2,9.5c0.2,0.1,0.6,0.3,0.7,0.5s0.4,0.4,0.6,0.6c0.4,0.4,0.6,0.8,0.6,1c0,0.1-0.6,0-0.8-0.2
		c-0.3-0.2-0.8,0.7-0.6,1.1c0.1,0.2,0.9,0.4,1.3,0.3c0.2,0,0.3-0.2,0.3-0.3c0.1-0.5,0.3-0.2,0.7,1s0.4,1.4,0,1
		c-0.1-0.1-0.4-0.3-0.6-0.4c-0.2-0.1-0.6-0.3-0.7-0.4c-0.6-0.4-1.8-0.6-3.1-0.4c-1.1,0.1-2.4,0.7-3.2,1.6c-0.3,0.3-0.5,0.5-0.5,0.4
		c0-0.1,0.2-0.6,0.3-1.1s0.3-1.1,0.5-1.5c0.2-0.3,0.3-0.8,0.4-0.9c0.1-0.2,0.2-0.4,0.3-0.6c0.1-0.2,0.3-0.5,0.4-0.6
		c0.2-0.3,0.5-0.6,1.2-0.9C46.5,9.2,47.6,9.2,48.2,9.5z"/>
	<path class="st3" d="M49.7,12c0.2,0.2-0.1,0.4-0.4,0.2c-0.2-0.1-0.1-0.3,0.2-0.3C49.5,11.9,49.6,11.9,49.7,12z"/>
	<path class="st2" d="M48.2,13.8c1.2,0.2,2.7,1.1,3.3,2.1c0.1,0.2,0.2,0.5,0.2,0.6c0,0.1,0,0.2,0.1,0.3c0.1,0.1,0.4,1,0.6,2.2
		c0.3,1.2,0.2,7.8-0.1,8.9c-0.1,0.2-0.1,0.9-0.2,1.4c0,0.6-0.1,1-0.1,1s-0.5,0-1-0.1c-0.9-0.1-2.9,0-5.6,0.2c-1.2,0.1-1.1,0.3-1-2.7
		c0-1.5,0.1-2.7,0.1-2.8c0.1-0.2,0.2-2.6,0.1-2.9c0-0.1-0.1-0.2-0.2-0.2c-0.1,0-0.4-0.2-0.8-0.4c-0.3-0.2-0.8-0.5-1-0.6
		c-1.1-0.5-1-0.4-1.1-1c0-0.3,0-0.8,0.1-1c0.2-0.7,0.8-1.9,1-1.9c0.2,0,0.3-0.4,0.2-0.6c-0.1-0.1,0.4-0.9,0.9-1.2
		c0.5-0.4,2.1-1.1,2.8-1.3C47.4,13.7,47.4,13.7,48.2,13.8z"/>
	<path class="st4" d="M72.2,15.1c-0.1,0.2-0.2,1.4-0.6,5.2c-0.2,1.6-0.4,3-0.6,3.3c-0.1,0.2-0.3,1.2-0.6,2.9
		c-0.1,0.3-0.1,1.6-0.2,2.9c-0.1,2.2-0.1,2.8-0.4,4.3c-0.1,0.4-0.1,1.2-0.1,1.8c0,1,0,1-0.2,1c-0.6-0.2-1.9-0.2-2.8,0
		c-1.2,0.2-1.6,0.4-2.2,0.8c-0.6,0.4-1,1-1.2,1.9c-0.1,0.7-0.2,0.7-0.6,1l-0.5,0.3L62,40c-0.6-0.7-1-1.1-1.8-1.4
		c-0.8-0.3-0.9-0.3-1.9-0.2l-1.1,0.1l-0.1-0.8c0-0.5-0.1-1-0.1-1.2c-0.1-0.3-0.1-1.5-0.2-10.7l-0.1-4.6L57,20l0.3-1.2l-0.2-0.5
		c-0.2-0.3-0.2-0.6-0.2-0.8c0.1-0.3,0.2-0.4,1.9-0.6c0.6-0.1,1.3-0.2,1.7-0.3c0.4-0.1,1-0.3,1.3-0.4c0.7-0.2,3.6-0.6,5.4-0.8
		c1-0.1,2.1-0.2,3.3-0.5c0.1,0,0.6,0,1-0.1C72.1,14.9,72.2,15,72.2,15.1z"/>
	<path class="st5" d="M33,16.2c0.3,0.2,1.1,0.7,1.9,1.1c2.6,1.4,3.4,1.8,4.2,2.3c0.9,0.6,2.4,1.4,3.6,2c0.4,0.2,0.9,0.5,1,0.6
		c0.3,0.2,0.3,0.3,0.3,1c0,0.4,0,1-0.1,1.4c-0.1,0.3-0.1,1.5-0.2,2.7c0,1.2-0.1,3-0.2,4c-0.1,1-0.2,2.5-0.2,3.2s-0.1,1.3-0.1,1.2
		c-0.1-0.3-1.1-2.6-1.3-2.9c-0.1-0.1-0.2-0.4-0.3-0.6c-0.1-0.2-0.5-0.7-1-1.1c-0.8-0.8-1.4-1.8-1.4-2.3c0-0.2-0.1-0.2-0.3-0.2
		c-0.3,0-0.6,0.4-1.2,1.6c-0.3,0.7-0.9,1.6-1,1.8c-0.3,0.3-1.9,3.9-2,4.6c-0.1,0.5-0.1,0.6-0.5,0.3c-0.2-0.1-0.6-0.3-1.1-0.4
		c-1.1-0.2-1.6-0.5-2.6-1.1l-0.8-0.5l0.1-3.8c0-2.1,0.1-4,0.2-4.3c0.1-0.2,0.1-0.8,0.2-1.2c0-0.7,0-0.7-0.2-0.8
		c-0.2,0-0.2-0.1-0.2-0.7c0-0.4,0.1-1.2,0.2-1.9c0.1-0.6,0.2-1.9,0.3-2.8c0.1-1.6,0.4-4.3,0.5-4.4C31,15.1,32.4,15.7,33,16.2z"/>
	<path class="st6" d="M30.1,15.9c0,0.2-0.2,1.5-0.2,2.8c-0.1,1.3-0.2,2.6-0.3,2.8c-0.1,0.2-0.2,1.1-0.2,2c-0.1,0.9-0.1,1.6-0.2,1.7
		c-0.1,0.1-2.3,0.6-2.6,0.6l-0.3,0l-0.1-1.3C26,21.7,26,20.9,25.8,20c-0.1-0.5-0.1-1-0.1-1.2c0-0.2,0.4-0.5,0.9-0.9
		c0.5-0.3,0.9-0.6,0.9-0.6c0,0,0.2-0.1,0.2-0.2c0.1-0.1,0.4-0.3,0.7-0.6c0.3-0.2,0.6-0.4,0.6-0.4c0.1,0,0.3-0.2,0.6-0.3
		c0.2-0.2,0.5-0.3,0.5-0.3C30.1,15.5,30.1,15.7,30.1,15.9z"/>
	<path class="st7" d="M74,16.8c0.3,0.3,0.9,0.8,1.2,1c0.3,0.2,0.6,0.4,0.6,0.5c0,0.1-0.1,0.4-0.2,0.7c-0.5,1.9-0.9,4.4-1.1,6
		c-0.1,1.2-0.4,2.6-0.6,2.9c-0.1,0.1-0.4,0.1-1.5,0c-0.7-0.1-1.4-0.1-1.4-0.2c-0.1-0.1,0.3-2.6,0.6-3.5c0.3-1,0.5-2.8,0.6-4.7
		c0.1-1.6,0.3-3.5,0.4-3.8l0.1-0.3l0.3,0.3C73.3,16,73.7,16.4,74,16.8z"/>
	<path class="st2" d="M29.6,26.5c0,0.4-0.1,0.9-0.1,1c-0.1,0.6-0.2,3-0.2,5.1l0,2.3l-0.4-0.2c-0.7-0.2-2.7-0.3-3.5-0.1
		c-1,0.2-1.5,0.2-2.4,0c-0.5-0.1-1-0.2-1.3-0.1c-0.5,0.1-0.7,0.2-1.8,0.7c-0.2,0.1-0.6,0.2-1,0.2c-0.4,0.1-0.8,0.2-0.9,0.3
		c-0.3,0.3-0.5,0.2-0.7-0.2c-0.7-1.5-1-2.3-1.3-3.5c-0.5-2.2-0.5-2.4-0.4-3l0.1-0.5l0.6,0c1,0,2.4-0.2,3.7-0.6
		c0.6-0.2,1.5-0.3,1.9-0.4c0.4-0.1,1-0.2,1.3-0.3c0.3-0.1,1.5-0.3,2.5-0.5c1.1-0.2,2.4-0.5,2.9-0.6C29.8,25.7,29.7,25.6,29.6,26.5z"
		/>
	<path class="st8" d="M72.9,28.6c0.6,0.1,1.1,0.2,1.1,0.2c0,0.1,0.2,0.1,0.4,0c0.6-0.1,1.1,0,3.4,0.6c0.3,0.1,1.3,0.2,2.1,0.3
		c0.8,0.1,2.1,0.3,2.7,0.4c0.6,0.1,1.7,0.3,2.4,0.3s1.4,0.1,1.6,0.2l0.3,0.1l-0.5,0.9c-0.2,0.5-0.7,1.2-1,1.6
		c-0.3,0.4-0.7,1-0.9,1.2c-0.2,0.3-0.4,0.6-0.5,0.8c-0.1,0.2-0.4,0.7-0.7,1.1c-0.3,0.5-0.8,1.2-1,1.7c-0.2,0.5-0.6,1.1-0.8,1.5
		c-0.2,0.3-0.3,0.6-0.3,0.7c0,0.1-0.5,1.4-0.9,2.3c-0.1,0.3-0.3,0.6-0.3,0.8l-0.1,0.3l-0.2-0.2c-0.5-0.7-0.6-1.1-0.7-2.1
		c0-1-0.3-2.2-0.7-2.6c-0.3-0.3-1.6-1.2-2.1-1.3c-0.3-0.1-1-0.1-2-0.1c-2.3,0.1-2.6,0.1-3.1-0.2l-0.5-0.2l0.1-1.5
		c0-0.8,0.1-1.9,0.2-2.3c0.1-0.4,0.2-1.3,0.2-1.9s0-1.2,0-1.4c0-0.2,0-0.6,0.1-0.9v-0.6l0.4,0C71.6,28.4,72.3,28.5,72.9,28.6z"/>
	<path class="st9" d="M15.1,32.1c0.3,1.5,0.6,2.2,1.2,3.4l0.5,1l-0.4,0.4c-0.2,0.2-0.6,0.6-0.8,0.8c-0.4,0.5-0.5,0.5-0.7-0.3
		c-0.2-0.5-0.6-1.4-1.3-2.9c-0.2-0.4-0.6-1-0.9-1.5l-0.6-0.7l0.8-0.8c0.4-0.4,1-1.1,1.2-1.5l0.5-0.7l0.1,0.9
		C14.8,30.6,15,31.5,15.1,32.1z"/>
	<path class="st10" d="M39.2,30.6c0,0.1,0.4,0.6,0.9,1.1c0.7,0.7,1,1.2,1.5,2.1c0.3,0.6,0.6,1.2,0.6,1.3s0.1,0.2,0.2,0.3
		c0.2,0.2,0.5,1.2,0.5,1.6c0,0.2,0.2,0.6,0.4,1c0.5,1,0.9,2.8,0.9,4c0,0.5,0,1.3,0.1,1.7c0.2,1.6,0.2,3.3,0.1,4.2
		c-0.1,0.5-0.2,0.9-0.2,1.1c0,0.1-0.2,0.5-0.4,0.9c-0.2,0.4-0.4,0.8-0.5,0.9c0,0.1-0.2,0.5-0.4,0.7c-0.2,0.2-0.6,1-0.9,1.5
		c-0.6,1.2-0.8,1.3-1.8,1.3c-0.6,0-0.7,0-1.1-0.5c-0.2-0.3-0.7-0.7-1.1-1c-0.6-0.4-0.8-0.6-1.8-1.9c-0.4-0.4-0.9-1.9-0.9-2.4
		c0-0.6,0.4-1.6,1-2.1c0.6-0.6,0.7-1,0.7-2c0-0.7-0.3-1.7-0.7-2.6c-0.1-0.2-0.1-0.4,0-0.9c0.1-0.3,0.1-0.7,0.1-0.9
		c-0.1-0.4-0.6-1.5-0.8-1.8c-0.3-0.4,0.2-2.1,1.2-4.4c0.1-0.2,0.2-0.5,0.2-0.5c0-0.1,0.7-1.1,0.8-1.2c0.1-0.1,0.4-0.7,0.8-1.4
		c0.2-0.5,0.3-0.6,0.5-0.5C39.2,30.4,39.2,30.5,39.2,30.6z"/>
	<path class="st9" d="M56.1,31.1c0.1,0.1,0.1,1,0.1,2.3c0,1.2,0,2.8,0.1,3.6c0.1,1.4,0.1,1.5-0.1,1.5c-0.2,0-0.8-0.6-0.8-0.8
		c0-0.1,0-0.1-0.1-0.1c0,0-0.3-0.2-0.6-0.4c-0.7-0.6-1.6-0.7-2.7-0.3c-0.9,0.3-1.4,0.4-1.5,0.2c-0.2-0.3-1-0.6-1.8-0.6
		c-1.4,0-2.7,0.7-3.6,2l-0.5,0.7l-0.2-0.7c-0.2-0.4-0.2-0.8-0.2-0.9c0-0.1,0.1-1.3,0.1-2.7c0-1.4,0.1-2.8,0.1-3.1l0.1-0.5l1.5-0.1
		c0.8,0,1.9-0.1,2.3-0.2C49.3,30.9,56,31,56.1,31.1z"/>
	<path class="st11" d="M88,32.5c0.2,0.6,0.5,1.3,0.7,1.7l0.4,0.7l-0.5,0.5c-0.4,0.4-0.8,0.8-1.5,1.9c-0.1,0.1-0.2,0.3-0.2,0.3
		c-0.4,0.4-1.2,1.5-1.2,1.6c0,0-0.2,0.3-0.4,0.6c-0.7,0.9-2.6,3.8-2.6,4.1c0,0-0.3,0.7-0.8,1.6c-0.7,1.4-1.2,2.5-2,4.4
		c-0.3,0.8-0.7,2-1.2,4.1c-0.2,0.7-0.4,1.6-0.6,2.1l-0.2,0.8h-0.5H77l0.1-0.5c0.2-1.1,0.4-2.1,0.6-2.7c0.4-1.1,0.5-1.3,0.8-1.5
		c0.1-0.1,0.4-0.4,0.6-0.7c0.3-0.5,0.3-0.6,0.4-2c0.1-1.5,0.1-1.6,0.4-2.3c0.3-0.6,0.4-1,0.5-1.9c0.1-0.6,0.2-1.3,0.3-1.5
		c0.1-0.2,0.2-0.4,0.2-0.4c0-0.1,0.1-0.2,0.2-0.5c0.1-0.2,0.3-0.9,0.6-1.5c0.5-1.2,1.4-2.9,2.4-4.5c0.4-0.6,0.7-1.1,0.7-1.2
		s0.1-0.2,0.3-0.5c0.6-0.8,1.9-2.7,2.1-3.1c0.2-0.4,0.4-0.7,0.5-0.7C87.7,31.6,87.8,32,88,32.5z"/>
	<path class="st12" d="M22.6,35.3c0.2,0.2,2.1,0.3,2.8,0.1c0.7-0.2,2.3-0.2,3,0c0.3,0.1,1,0.4,1.5,0.6c0.5,0.2,1.3,0.7,1.8,0.9
		c0.5,0.2,1,0.4,1.1,0.4c1,0,2,0.8,2.7,2.1c0.3,0.6,0.3,0.6,0.2,1.5c-0.1,0.8-0.1,0.9,0.1,1.4c0.1,0.3,0.3,0.7,0.5,1
		c0.3,0.6,0.3,1.5,0,2c-0.1,0.2-0.3,0.5-0.6,0.7c-0.5,0.5-0.8,1.3-0.9,2.1c0,0.5,0,0.9,0.2,1.7l0.3,1.1L35,51.4
		c-0.5,0.9-1.1,1.6-1.5,1.8c-0.2,0.2-0.9,0.2-2.3,0.3c-1.3,0.1-2,0.2-2.3,0.3s-0.6,0.2-0.9,0.1c-0.6-0.1-1.9,0.3-2.2,0.8
		c-0.4,0.6-0.9,0.7-1.6,0.7c-1.6-0.2-3.7-0.4-4.2-0.5c-0.2-0.1-0.7-0.1-1.1-0.1c-0.3,0-0.7,0-0.9-0.1c-0.1-0.1-0.4-0.2-0.7-0.2
		c-0.5-0.1-1.3-0.6-1.7-1c-0.1-0.1-0.2-0.2-0.3-0.2c-0.2-0.1-0.2-0.2-0.2-1c0-0.5,0.1-1.4,0.1-2v-1.1l-0.5-0.6
		c-0.6-0.8-0.7-1-0.8-1.8c-0.2-1,0.1-3,0.6-4.1c0.2-0.5,0.2-0.9,0.2-1.9l0-1.2l0.4-0.3c0.5-0.4,1-0.9,1.6-1.5c0.9-1,1.7-1.4,2.4-1.4
		c0.3,0,0.8-0.2,1.5-0.5C21.7,35.2,22.4,35.1,22.6,35.3z"/>
	<path class="st13" d="M49.3,37.2c0.3,0.1,0.6,0.2,0.8,0.4c0.4,0.3,0.9,0.3,2-0.1c1.2-0.4,1.7-0.3,2.4,0.3c0.3,0.2,0.6,0.6,0.8,0.9
		l0.3,0.4h2c1.4,0,2.1,0,2.3,0.1c0.1,0.1,0.4,0.2,0.5,0.2c0.3,0.1,1.6,1.5,1.6,1.8c0,0.1-0.4,0.5-0.8,0.9c-0.6,0.5-0.9,0.9-1.1,1.4
		c-0.3,0.6-0.3,0.7-0.2,2.3c0.1,2.3,0.1,2.8,0,3.8c-0.1,0.7-0.1,0.9,0.1,1c0.1,0.2,0.1,0.2-0.1,0.3c-0.4,0.3-1,0.4-2.4,0.4
		c-1.8,0-2,0.1-3.4,0.8c-1,0.5-1.3,0.6-1.9,0.6c-0.6,0-0.9-0.1-1.4-0.2c-0.3-0.2-1-0.4-1.4-0.6c-0.4-0.2-0.9-0.3-1.1-0.4
		c-1.3-0.3-3.2-2-3.3-2.9c0-0.2,0.1-0.5,0.1-0.8c0.1-0.5,0.1-2.1-0.1-4.2c-0.1-0.6-0.1-1.7-0.1-2.5c0-1.3,0.1-1.4,0.4-2
		c0.7-1.1,1.5-1.8,2.7-2.1C48.7,37,48.7,37,49.3,37.2z"/>
	<path class="st14" d="M70.3,37.7c1.2,0.6,1,0.6,4,0.4c1.2-0.1,1.3-0.1,1.9,0.2c0.3,0.2,0.7,0.3,0.8,0.4c0.1,0.1,0.3,0.2,0.5,0.3
		c0.4,0.3,0.7,1.1,0.7,2.2c0,1,0.2,1.5,0.8,2.5c0.8,1.3,0.9,2,0.2,3.4c-0.3,0.7-0.4,0.9-0.4,2.2c0,0.8-0.1,1.5-0.2,1.7
		c-0.2,0.4-1.8,2-2.2,2.2c-0.1,0.1-0.4,0.1-0.6,0.1c-0.2,0-0.3,0-0.3,0c0,0.1-0.2,0.2-0.3,0.2c-0.4,0.2-1.1,0-1.9-0.4
		c-0.4-0.2-0.7-0.3-1.6-0.3c-1,0-1.1,0-1.9,0.3c-0.9,0.4-1.5,0.5-1.9,0.1c-0.4-0.3-1.3-0.5-1.9-0.4c-0.4,0.1-0.8,0-2.2-0.5
		c-0.7-0.2-2.6-1.2-2.9-1.4c-0.3-0.3-0.4-0.7-0.3-1.6c0.1-0.9,0.1-1.1,0-3.1c-0.1-1.6,0-1.9,0.4-2.7c0.1-0.2,0.3-0.4,0.4-0.4
		c0.3-0.1,1.2-1.1,1.3-1.5c0.1-0.4,0.2-0.6,0.5-0.8c0.7-0.4,0.8-0.5,0.9-1.2c0-0.3,0.1-0.8,0.2-1c0.2-0.5,1-1.1,1.5-1.2
		c1.5-0.4,1.9-0.5,2.6-0.4C69.1,37.1,69.4,37.2,70.3,37.7z"/>
	<path class="st0" d="M82,48.1c0,0.4-0.2,1.4-0.4,2.1c-0.2,0.7-0.3,1.7-0.4,2.2c-0.2,1.2-0.6,2.1-1.7,4.5c-0.2,0.5-0.3,0.6-0.5,0.5
		c-0.2-0.1-0.2-0.2,0.1-1.7c0.4-1.8,0.6-2.3,1.2-4.3c0.2-0.6,0.5-1.4,0.7-1.9c0.1-0.3,0.2-0.5,0.2-0.6c0-0.1,0.7-1.5,0.8-1.5
		C82,47.4,82,47.7,82,48.1z"/>
	<path class="st9" d="M46.3,51.4c0.8,0.5,1,0.6,1.7,0.8c1,0.2,1.9,1,2.3,1.8c0.4,0.9,0.2,2.5-0.4,2.8c-0.2,0.1-1.6,0.3-3.7,0.4
		l-1.1,0.1v-1c0-0.6,0-2.2-0.1-3.5l-0.1-2.4l0.4,0.4C45.5,50.9,45.9,51.2,46.3,51.4z"/>
	<path class="st5" d="M44.3,55.2v2.2l-0.7,0.1c-0.7,0.1-0.7,0.1-1-0.3c-0.5-0.6-0.7-1-0.7-1.7c0-0.7,0.2-1.1,1.9-4.2l0.4-0.7
		l0.1,1.2C44.3,52.5,44.3,54,44.3,55.2z"/>
	<path class="st4" d="M64.1,53.2c1.7,0.5,2.1,0.9,2,2.3c-0.1,1.1-0.1,1.1-2,1.1c-0.9,0-2.6,0.1-3.9,0.1c-1.5,0-2.4,0-2.5,0
		c-0.2-0.1-0.2-0.8-0.4-3.3l-0.1-1.1h0.6c0.6,0,1.6-0.3,2.1-0.6c0.2-0.1,0.4-0.1,1.7,0.6C62.5,52.6,63.6,53,64.1,53.2z"/>
	<path class="st5" d="M37.5,53.3c1.5,0.9,2.2,2.6,1.4,3.6c-0.2,0.2-0.3,0.5-0.3,0.5c0,0.3-0.8,0.8-1.4,0.9c-0.8,0.2-1.9,0.6-4.1,1.4
		c-0.5,0.2-0.9,0.3-0.9,0.3c-0.2-0.2-0.4-4.8-0.2-5.6c0.1-0.2,0.2-0.3,0.8-0.4c1.2-0.1,2-0.7,2.7-2l0.2-0.5l0.6,0.7
		C36.7,52.7,37.2,53.2,37.5,53.3z"/>
	<path class="st9" d="M56.7,52.8c-0.1,0.5,0.1,3.3,0.2,3.7c0,0.2-0.2,0.2-1.6,0.2c-1.6,0-1.6,0-1.7-0.2c0-0.1,0-0.5-0.1-0.8
		c0-0.3,0-0.8,0.1-1.2c0.1-0.6,0.2-0.8,0.6-1.2c0.6-0.6,1.2-1,1.9-1h0.6L56.7,52.8z"/>
	<path class="st8" d="M73,53.7c0.6,0.4,0.6,0.4,2,0.3c0.7,0,1.4-0.1,1.5-0.1c0.1-0.1,0.2-0.1,0.3-0.2c0.2-0.1,0.2,0,0,0.5
		c-0.1,0.3-0.2,0.8-0.3,1.1s-0.1,0.7-0.2,0.8c0,0.1-0.1,0.3-0.1,0.5L76.2,57L73.9,57c-1.3,0-2.6,0-2.8,0c-0.4-0.1-0.5-0.1-0.5-0.5
		c0-0.2-0.1-0.6-0.2-1c-0.1-0.6,0.2-1.5,0.6-1.7c0.2-0.2,1.1-0.5,1.3-0.5C72.3,53.4,72.6,53.6,73,53.7z"/>
	<path class="st2" d="M31.2,56c0,1,0,2.5,0.1,3.2c0.1,1.2,0.1,1.4-0.1,1.4c-0.1,0-0.3,0.2-0.6,0.3c-0.2,0.1-0.6,0.4-1,0.6L28.9,62
		l-0.3-0.3c-0.5-0.5-0.6-0.9-1-2.3c-0.3-1.4-0.4-2.7-0.2-3.4c0.2-0.9,1.8-1.6,3.5-1.7h0.3L31.2,56L31.2,56z"/>
	<path class="st0" d="M18.9,55.6c1.1,0.1,1.4,0.3,1.4,0.7c0,0.2,0.2,0.7,0.5,1.3c0.2,0.6,0.6,1.3,0.7,1.6c0.1,0.3,0.3,0.6,0.3,0.6
		c0.1,0,0.1,0.2,0.1,0.2c0,0.1,0.2,0.6,0.4,1.2c0.4,1.1,0.5,1.6,0,2.2c-0.3,0.6-0.5,0.6-1.1-0.1c-0.5-0.6-1.8-2.2-1.8-2.3
		c0-0.1-2-3.6-2.3-4c-0.2-0.2-0.3-0.6-0.4-0.8c-0.1-0.2-0.2-0.6-0.3-0.7c-0.1-0.2-0.2-0.4-0.2-0.6l0-0.3l0.9,0.3
		C17.5,55.3,18.3,55.5,18.9,55.6z"/>
	<path class="st9" d="M21.8,56.8c1,0.9,1.4,1.9,1.3,3.3c0,0.5-0.1,0.8-0.2,0.8c0,0-0.2-0.4-0.4-0.9c-0.2-0.4-0.3-0.9-0.4-0.9
		c-0.1-0.1-0.1-0.3-0.2-0.4c0-0.2-0.2-0.5-0.2-0.7c-0.1-0.2-0.3-0.6-0.3-0.8s-0.2-0.6-0.3-0.7C20.7,56,21,56.1,21.8,56.8z"/>
	<path class="st3" d="M68.9,57.4c1,0.3,2.4,0.4,3.6,0.3c2.8-0.2,5.5-0.1,6,0.2l0.3,0.2l-0.2,0.5c-0.3,0.5-0.6,0.6-1.7,0.6
		c-0.4,0-1.4,0-2.3,0.1c-0.8,0.1-2.4,0.2-3.5,0.2c-1.1,0-2.4,0.2-2.8,0.2c-0.5,0.1-2,0.1-3.4,0.2c-1.4,0-2.7,0.1-2.9,0.2
		c-0.2,0.1-1,0.2-1.8,0.2c-1.1,0.1-1.7,0.2-3,0.7c-0.9,0.3-1.9,0.6-2.3,0.7c-0.3,0.1-0.8,0.2-1,0.3c-2.8,1.2-3.9,1.9-5.3,3.3
		c-1,1-1.5,1.7-1.7,2.2c-0.2,0.6-0.2,2,0.1,2.8c0.2,0.6,1,1.9,1.4,2.1c0.1,0.1,0.2,0.1,0.2,0.2c0.2,0.3,1.8,1.1,2.9,1.6
		c0.2,0.1,0.3,0.2,0.3,0.2c0,0-0.9,0.1-1.9,0.2c-1,0-2,0.1-2.3,0.2c-0.3,0.1-0.8,0.1-1.1,0.1c-1.1,0-3.6-0.3-4.3-0.6
		c-0.4-0.1-0.8-0.2-0.9-0.2c-0.4,0-2.4-0.6-3.1-0.9c-0.1-0.1-0.6-0.2-1-0.3c-1.8-0.4-2.3-0.6-3.4-1.1c-0.7-0.3-1.5-0.8-1.9-1
		c-0.3-0.2-0.9-0.5-1.2-0.6c-0.3-0.1-0.6-0.2-0.7-0.4s-0.3-0.3-0.6-0.3c-1.7-0.4-2.6-2-2.1-4.2c0.3-1.7,1.3-2.6,4.3-4.3
		c1.2-0.6,5.2-2.1,5.9-2.1c0.2,0,0.4,0,0.4-0.1c0-0.1,0.7-0.2,1.5-0.2c0.8-0.1,2.1-0.2,3.1-0.3c0.9-0.1,2.3-0.3,3.1-0.3
		c3-0.2,4.1-0.3,4.9-0.5c0.8-0.1,3.9-0.2,5.2-0.1c2.2,0.1,10.5,0,10.9-0.1C67.2,57.1,68.2,57.2,68.9,57.4z"/>
	<path class="st15" d="M77.4,60.5c-0.2,0.3-0.5,0.7-0.6,0.9c-0.2,0.2-0.3,0.4-0.3,0.4c0,0-0.2,0.2-0.4,0.5c-0.9,1.3-3.5,3.6-5.9,5.2
		c-0.6,0.4-1.3,1-1.7,1.3c-0.8,0.6-1.4,0.9-3.1,1.6c-0.6,0.2-1.4,0.5-1.8,0.7c-0.3,0.2-0.7,0.3-0.7,0.3s-0.2,0.1-0.4,0.2
		c-0.4,0.3-1.5,0.7-1.6,0.6c-0.1,0-0.2,0-0.2,0.1c-0.1,0.1-0.3,0.2-0.6,0.3c-1.5,0.6-2.8,1-3.5,1.1c-2.8,0.6-2.4,0.6-3.5,0.3
		c-0.6-0.2-1.5-0.5-2.2-0.8c-2.4-1.1-3.7-3.1-3.3-5c0.1-0.7,0.6-1.3,1.7-2.4c1.6-1.5,2.1-1.9,4.5-2.9c0.7-0.3,1.7-0.6,2.1-0.6
		c0.2,0,0.7-0.2,1.3-0.3c1.6-0.6,2.5-0.8,3.5-0.9c2.3-0.2,3.8-0.3,5.7-0.4c2.1-0.1,7.3-0.4,7.8-0.5c0.2,0,1.1-0.1,2-0.1h1.7
		L77.4,60.5z"/>
	<path class="st15" d="M27.3,63.8c-0.1,0.2-0.3,0.7-0.4,1c-0.2,0.7-0.2,2.8,0,3.1c0.3,0.3,0,0.3-0.4-0.1c-0.2-0.2-0.7-0.5-1-0.6
		c-1.3-0.7-1.9-1.2-2.3-1.7C23.1,65.3,23,65,23,65c0,0,0.2-0.1,0.6-0.1c0.6-0.1,0.7-0.2,1.9-0.8c0.3-0.2,0.7-0.3,0.9-0.3
		c0.2,0,0.5-0.1,0.7-0.2c0.2-0.1,0.4-0.2,0.4-0.2C27.5,63.4,27.4,63.6,27.3,63.8z"/>
	<path class="st1" d="M46.4,6.8c-0.2,0.4-0.1,0.9,0.2,1.1c0.5,0.4,1,0,1-0.7c0-0.2,0-0.4-0.1-0.4c-0.1,0-0.3,0-0.5-0.1
		C46.6,6.6,46.5,6.6,46.4,6.8z"/>
	<path class="st3" d="M47.1,7.3c0,0.2,0,0.2-0.1,0.2c-0.2,0-0.3-0.1-0.2-0.3C46.8,6.9,47,7,47.1,7.3z"/>
	<path class="st1" d="M46.1,10.9c-0.2,0.3-0.2,0.7-0.1,0.8c0.1,0,0.1,0.2,0.1,0.3c0,0.3,0.5,0.4,0.9,0.3c0.2-0.1,0.3-0.2,0.3-0.7
		c0-0.7,0-0.8-0.6-0.9C46.4,10.6,46.3,10.6,46.1,10.9z"/>
	<path class="st3" d="M47,11.5c0,0.3,0,0.4-0.2,0.4c-0.2,0-0.4-0.4-0.3-0.7C46.6,11,46.9,11.1,47,11.5z"/>
	<path class="st1" d="M44.3,11.9c-0.3,0.2-0.6,0.7-0.6,1c0,0.6,0.7,0.8,1.1,0.3c0.4-0.4,0.4-0.7,0-1.1
		C44.6,11.7,44.6,11.7,44.3,11.9z"/>
	<path class="st3" d="M44.7,12.5c0,0.1,0,0.2-0.1,0.3c-0.2,0.3-0.5,0.1-0.3-0.2C44.5,12.3,44.6,12.2,44.7,12.5z"/>
	<path class="st1" d="M47.2,15.4c-0.2,0.2-0.2,1.3,0,1.5c0.1,0.2,0.2,0.2,0.6,0.2c0.8,0,1-0.4,0.8-1.3c-0.1-0.3-0.2-0.4-0.5-0.5
		C47.6,15.2,47.4,15.2,47.2,15.4z"/>
	<path class="st3" d="M48.2,16.1c0.2,0.5,0,0.7-0.5,0.6c-0.2-0.1-0.3-0.4-0.2-0.8C47.6,15.6,48,15.7,48.2,16.1z"/>
	<path class="st1" d="M44.6,15.8c0,0-0.1,0.3-0.1,0.6c0,0.8,0.5,1.1,1.2,0.8c0.4-0.2,0.4-0.9,0-1.2C45.5,15.7,44.7,15.6,44.6,15.8z"
		/>
	<path class="st3" d="M45.4,16.4c0.2,0.2,0.1,0.5-0.2,0.5c-0.2,0-0.4-0.2-0.4-0.5C44.8,16.2,45.1,16.1,45.4,16.4z"/>
	<path class="st1" d="M49.6,17.4c-0.1,0.1-0.2,0.4-0.3,0.6c-0.1,0.3,0,0.4,0.4,0.9c0.2,0.3,0.6,0.5,0.6,0.5c0.2,0,0.9-1.1,0.8-1.3
		c0-0.1-0.2-0.2-0.2-0.2c-0.1,0-0.2-0.1-0.2-0.2c0-0.1-0.2-0.2-0.5-0.2C49.9,17.2,49.8,17.2,49.6,17.4z"/>
	<path class="st3" d="M50.5,18c0.3,0.2,0.3,0.4,0.1,0.7c-0.2,0.2-0.2,0.2-0.5-0.1c-0.2-0.2-0.3-0.4-0.2-0.5
		C50,17.7,50.1,17.7,50.5,18z"/>
	<path class="st1" d="M42.6,17.8c-0.1,0.1-0.2,0.5-0.2,0.8c-0.1,0.6,0,0.8,0.6,0.9c0.5,0.1,0.8-0.2,0.9-0.9c0.1-0.6,0.1-0.6-0.3-0.8
		C43.2,17.5,42.8,17.5,42.6,17.8z"/>
	<path class="st3" d="M43.4,18.1c0.1,0.1,0.1,0.2,0.1,0.5C43.4,19,43.4,19,43.2,19c-0.2,0-0.3-0.1-0.3-0.4c0-0.4,0.1-0.5,0.3-0.6
		C43.3,18,43.4,18,43.4,18.1z"/>
	<path class="st1" d="M47.3,21.3c0,0.1-0.1,0.4-0.1,0.7c0,0.5,0,0.6,0.3,0.7c0.7,0.4,1.3,0.1,1.2-0.6c-0.1-0.7-0.3-1-0.9-1
		C47.5,21.1,47.3,21.1,47.3,21.3z"/>
	<path class="st3" d="M48.1,21.6c0.2,0.1,0.3,0.6,0.2,0.7c0,0.1-0.2,0-0.4-0.1c-0.3-0.2-0.3-0.3-0.2-0.7
		C47.7,21.5,48,21.6,48.1,21.6z"/>
	<path class="st1" d="M49.9,25.9c-0.1,0.3-0.1,1.1,0.1,1.4c0.2,0.4,0.6,0.5,1.1,0.3c0.5-0.2,0.5-0.4,0.1-1.3
		c-0.2-0.6-0.3-0.6-0.7-0.6C50.1,25.8,49.9,25.8,49.9,25.9z"/>
	<path class="st3" d="M50.8,26.5c0.2,0.3,0.2,0.7-0.2,0.7c-0.2,0-0.3,0-0.4-0.3C50,26.3,50.5,25.9,50.8,26.5z"/>
	<path class="st1" d="M68.4,17.2c-0.4,0.2-0.6,0.4-0.7,0.8c-0.2,0.6-0.2,0.8-0.2,1.8c0,0.8,0,1,0.2,1.2c0.3,0.3,0.8,0.4,1.4,0.2
		c0.3-0.1,0.7-0.2,0.9-0.2c0.5-0.1,0.6-0.6,0.6-2.1c0-0.7-0.1-1.4-0.2-1.4c-0.1-0.1-0.6-0.3-1.4-0.4C68.9,17,68.6,17.1,68.4,17.2z"
		/>
	<path class="st1" d="M64,17.6c-0.2,0.1-0.4,0.2-0.5,0.2c-0.2,0-0.2,0.2-0.3,1.5c-0.1,2.1,0,2.2,1.8,2.2c0.8,0,0.9,0,1-0.3
		c0.2-0.4,0.1-3.5-0.1-3.7C65.7,17.4,64.3,17.4,64,17.6z"/>
	<path class="st1" d="M59.2,18.1c-0.3,0.2-0.6,0.3-0.7,0.4c-0.1,0.1-0.2,0.7-0.2,1.5c-0.1,1,0,1.4,0.1,1.5c0.2,0.3,0.7,0.6,1.3,0.6
		c0.4,0.1,1.2-0.2,1.6-0.5c0.2-0.2,0.3-0.3,0.3-1.6c0-1.3-0.1-2-0.4-2.2C60.8,17.7,59.8,17.8,59.2,18.1z"/>
	<path class="st1" d="M67.6,23.5c-0.2,0.1-0.2,0.2-0.3,1.6c-0.1,1.7,0,2,0.6,2.3c0.9,0.4,1.5,0.4,1.7-0.1c0.1-0.2,0.3-3.3,0.2-3.5
		C69.5,23.4,68.2,23.2,67.6,23.5z"/>
	<path class="st1" d="M64.3,23.8c-0.8,0.2-0.8,0.2-1,0.7c-0.2,0.5-0.2,2.3,0,2.7c0.1,0.5,0.5,0.6,1.3,0.6c1.2-0.1,1.5-0.6,1.4-2.5
		C65.9,23.5,65.8,23.4,64.3,23.8z"/>
	<path class="st1" d="M59.2,24.4c-0.4,0.3-0.6,0.7-0.6,1.8c0,1.5,0.4,1.9,1.9,1.9c1.2,0,1.4-0.3,1.4-1.8c0-1.2-0.2-1.8-0.6-1.8
		c-0.1,0-0.2-0.1-0.3-0.1c0-0.1-0.4-0.1-0.8-0.1C59.7,24.2,59.5,24.2,59.2,24.4z"/>
	<path class="st1" d="M60,29.4c-0.9,0.1-1.3,0.3-1.5,0.6c-0.1,0.2-0.2,0.9-0.2,1.6c-0.1,1.6-0.1,1.7,1.4,1.8c1.2,0.1,1.4,0,1.7-0.7
		c0.3-0.7,0.3-2.2,0-2.8C61.2,29.4,60.9,29.3,60,29.4z"/>
	<path class="st1" d="M64.1,29.5c-1,0.1-1.2,0.2-1.5,1.1c-0.6,1.8-0.1,3,1.2,3c0.6,0,1.2-0.2,1.3-0.5c0.1-0.3,0.1-3.1,0-3.5
		c-0.1-0.1-0.2-0.2-0.2-0.2C64.9,29.4,64.5,29.5,64.1,29.5z"/>
	<path class="st1" d="M67.4,29.5c-0.4,0.1-0.5,0.3-0.5,1.9c0,1.9,0,1.9,1.1,1.9c0.6-0.1,0.8-0.1,1-0.3c0.2-0.2,0.4-1.5,0.3-2.1
		c-0.2-1-0.3-1.4-0.6-1.4C68.4,29.4,67.7,29.4,67.4,29.5z"/>
	<path class="st1" d="M67.1,34.7c-0.5,0-0.6,0.2-0.6,1c0,0.4,0,0.4,0.2,0.4c0.2,0,0.2-0.1,0.3-0.4l0-0.4h0.7c0.7,0,0.7,0,0.9,0.3
		c0.2,0.4,0.6,0.5,0.6,0.1c0-0.4-0.4-1-0.7-1C68.4,34.6,67.8,34.6,67.1,34.7z"/>
	<path class="st1" d="M59.3,35.3c-0.8,0.4-0.9,0.5-0.9,1.6c0,0.8,0,0.9,0.2,0.9s0.2-0.1,0.2-0.7c0-0.6,0-0.8,0.3-1
		c0.4-0.3,1-0.6,1.5-0.4c0.5,0.1,0.6,0.5,0.6,1.6c0,0.8,0,1,0.1,1c0.1,0,0.2,0,0.2-0.1c0.2-0.2,0.1-2.1,0-2.4
		C61.2,35.1,60.2,34.9,59.3,35.3z"/>
	<path class="st1" d="M63,35.3c-0.3,0.4-0.5,1.2-0.5,2.1c0,0.7,0,0.9,0.2,1c0.1,0,0.2,0,0.2,0c0,0,0.1-0.5,0.1-1
		c0-0.6,0.1-1.1,0.2-1.4c0.2-0.4,0.2-0.4,0.6-0.4c0.7,0,0.9,0.2,0.8,0.7c-0.1,0.3,0,0.5,0.1,0.5c0.3,0.1,0.4-0.1,0.4-0.6
		c0-0.8-0.3-1-1.3-1C63.3,35.1,63.1,35.1,63,35.3z"/>
	<path class="st1" d="M32,18.7c-0.1,0.2-0.2,0.6-0.2,0.8s-0.1,0.8-0.2,1.3c-0.1,0.4-0.2,1.2-0.2,1.7c-0.1,0.8,0,0.9,0.2,1.2
		c0.3,0.4,0.8,0.6,1.5,0.8c0.5,0.1,0.5,0.1,0.7-0.3c0.1-0.2,0.2-1,0.3-1.6c0.1-0.7,0.2-1.4,0.2-1.7c0.2-0.6,0.1-1.5,0-1.8
		c-0.2-0.3-0.7-0.6-1.5-0.6C32.2,18.3,32.2,18.4,32,18.7z"/>
	<path class="st1" d="M36.4,20.5c-0.2,0.3-0.6,2.9-0.6,3.5c0,0.8,1,1.5,2.1,1.6c0.4,0,0.5-0.1,0.7-1.5c0.2-1.5,0.2-2.7-0.1-3
		c-0.2-0.4-0.4-0.5-1.1-0.7C36.7,20.1,36.6,20.1,36.4,20.5z"/>
	<path class="st1" d="M40.6,21.9c-0.4,0.5-0.9,3.1-0.7,4.2c0.1,0.6,0.3,0.7,1.1,0.9c0.6,0.1,0.9-0.1,1-0.8c0.2-0.7,0.3-2.2,0.3-3
		c0-0.6,0-0.7-0.3-0.9c-0.2-0.1-0.4-0.2-0.6-0.3c-0.2,0-0.4-0.1-0.5-0.1C40.9,21.8,40.7,21.8,40.6,21.9z"/>
	<path class="st1" d="M31.6,26.5c-0.2,0.2-0.3,0.4-0.3,0.4c0,0.1-0.1,0.7-0.2,1.5c-0.1,0.7-0.2,1.6-0.2,2c0,0.6,0.1,0.6,0.4,0.9
		c0.2,0.2,0.6,0.3,1.1,0.4c0.9,0.2,1.1,0.1,1.2-0.4c0.2-0.7,0.5-2.5,0.5-3.3c0-1.3-0.3-1.7-1.6-1.9C31.9,26.2,31.9,26.2,31.6,26.5z"
		/>
	<path class="st1" d="M36.7,27.3c-0.2,0-0.5,0.2-0.6,0.3c-0.4,0.2-0.4,0.5-0.6,2.5c0,0.5-0.1,1-0.1,1c0,0,0,0.2,0.1,0.4
		c0.1,0.3,0.5,0.4,0.8,0.2c0.2-0.1,0.1-0.3-0.2-0.3c-0.1,0-0.2-0.1-0.1-0.5c0-0.2,0.1-1,0.1-1.6c0.1-1.1,0.1-1.1,0.4-1.4
		c0.8-0.5,1.5-0.2,1.4,0.7c0,0.6,0.2,0.7,0.4,0.3C38.8,27.8,37.9,27,36.7,27.3z"/>
	<path class="st1" d="M40.8,28.3c-0.2,0.1-0.6,1.1-0.5,1.2c0.1,0.1,0.4-0.1,0.6-0.4c0.2-0.4,0.3-0.5,0.7-0.4
		c0.6,0.1,0.6,0.2,0.6,1.6c-0.1,0.9,0,1.3,0.1,1.4c0.1,0.2,0.2,0.1,0.3-0.6c0.1-0.4,0.2-1.1,0.2-1.5c0-0.6,0-0.8-0.3-1
		C42.1,28.2,41.1,28,40.8,28.3z"/>
	<path class="st1" d="M31.8,33.3c-0.4,0.1-0.6,0.4-0.7,1.1c-0.1,0.5-0.1,0.7,0.1,0.8c0.2,0.2,0.2,0.1,0.3-0.1
		c0.1-0.2,0.1-0.5,0.1-0.6c0-0.4,0.2-0.6,0.7-0.7c0.9-0.2,1.1,0.2,1.1,1.7c0,0.7,0,0.8,0.2,0.8c0.2,0,0.2-0.1,0.2-1
		c0-1.1-0.2-1.7-0.6-1.9C32.9,33.3,32.3,33.2,31.8,33.3z"/>
	<path class="st1" d="M26.5,29.4c-0.5,0.1-1,0.3-1.1,0.3c-0.3,0.2-0.2,1.7,0.2,2.7c0.1,0.3,0.2,0.3,1,0.4l0.9,0.1l0.4-0.4
		c0.2-0.2,0.4-0.6,0.4-0.7c0.1-0.5-0.4-2.6-0.6-2.5C27.6,29.2,27,29.3,26.5,29.4z"/>
	<path class="st1" d="M21.7,30c-0.6,0.3-0.7,0.5-0.7,1.1c0,0.4,0.1,0.8,0.3,1.2l0.3,0.6l0.9,0c1.1,0,1.4-0.2,1.5-0.9
		c0.1-0.5,0-1-0.6-1.8c-0.2-0.3-0.3-0.4-0.9-0.4C22.3,29.9,21.8,29.9,21.7,30z"/>
	<path class="st1" d="M18.4,30.6c-0.7,0.1-1.1,0.3-1.3,0.6c-0.3,0.4-0.3,1.5,0,2.1c0.2,0.5,0.2,0.5,1,0.5c0.9,0,1.5-0.2,1.8-0.6
		c0.2-0.4,0.2-0.5,0-1.3C19.7,31,19.1,30.5,18.4,30.6z"/>
	<path class="st1" d="M73.2,30.4c0,0.1-0.2,0.8-0.3,1.4c-0.2,1-0.2,1.3-0.1,1.5c0.2,0.3,0.6,0.5,1.2,0.5c0.3,0,0.7,0.1,0.9,0.2
		c0.2,0.1,0.5,0.1,0.6,0.1c0.2-0.1,0.4-0.5,0.5-1c0-0.2,0.3-0.9,0.6-1.4c0.3-0.5,0.5-1,0.5-1.1c0-0.2,0-0.2-1.6-0.2
		c-0.7,0-1.5-0.1-1.7-0.1C73.3,30.2,73.3,30.2,73.2,30.4z"/>
	<path class="st1" d="M80.5,31.3c-0.7,0.2-0.8,0.2-1,1.1c-0.4,1.2-0.3,1.5,0.2,1.9c1,0.7,1.8,0.9,2.2,0.5c0.1-0.1,0.3-0.5,0.4-0.8
		c0.1-0.3,0.4-1,0.6-1.4c0.2-0.4,0.3-0.8,0.3-0.9C83.1,31.3,81.4,31.1,80.5,31.3z"/>
	<path class="st1" d="M72.6,35.2c-0.6,0.2-0.9,1.4-0.4,1.5c0.2,0,0.2,0,0.3-0.4c0-0.2,0.1-0.5,0.2-0.6c0.3-0.3,2.5,0,2.5,0.3
		c0,0-0.1,0.3-0.2,0.5C74.8,37,74.8,37,75.1,37c0.2,0,0.3-0.1,0.4-0.4c0.2-0.7,0.2-0.9-0.3-1.1C74.6,35.2,73,35,72.6,35.2z"/>
	<path class="st1" d="M78.5,36.2c-0.2,0.2-0.7,1-0.7,1.2c0,0.4,0.3,0.3,0.6-0.2c0.1-0.3,0.3-0.5,0.4-0.5c0.3,0,1.7,0.5,1.9,0.7
		l0.3,0.2l-0.3,0.6c-0.5,1-0.8,2.1-0.6,2.4c0.1,0.2,0.1,0.2,0.3-0.2c0.1-0.2,0.3-0.7,0.4-1c0.1-0.3,0.3-0.8,0.5-1.1
		c0.2-0.4,0.2-0.6,0.2-0.7c-0.2-0.4-0.7-0.7-1.6-1C78.8,36.1,78.7,36.1,78.5,36.2z"/>
	<path class="st1" d="M50,81.5c-1.6,0.4-2.6,1.8-2.6,3.6c0,1.6,0.7,2.8,2.1,3.4c0.6,0.3,0.9,0.3,1.6,0.3c1.6,0,2.8-0.7,3.5-2
		c0.3-0.6,0.4-0.9,0.3-1.6c0-1.9-0.9-3.1-2.5-3.6C51.7,81.3,50.8,81.3,50,81.5z M52.4,82.8c1.1,0.6,1.6,2.3,0.9,3.5
		c-0.7,1.4-2.5,1.7-3.7,0.8c-0.6-0.5-0.9-1.1-0.9-2.1c0-1.2,0.6-2.1,1.7-2.5C50.9,82.5,51.9,82.6,52.4,82.8z"/>
	<path class="st1" d="M22.7,81.5c-0.1,0-0.1,1.7-0.1,3.6v3.5h1.7c1.8,0,2.4-0.1,3-0.5c1-0.8,0.9-2.4-0.2-3l-0.5-0.2l0.3-0.2
		c0.7-0.4,0.9-1.5,0.5-2.3c-0.4-0.6-1-0.9-3-0.9C23.5,81.5,22.8,81.5,22.7,81.5z M25.9,82.8c0.4,0.2,0.6,0.6,0.5,1
		c-0.1,0.4-0.7,0.6-1.6,0.6H24v-0.9v-0.9h0.7C25.1,82.6,25.6,82.7,25.9,82.8z M26.3,85.7c0.2,0.1,0.3,0.3,0.4,0.6
		c0.2,0.8-0.3,1.2-1.7,1.3l-1,0.1v-1v-1h1C25.6,85.6,26,85.6,26.3,85.7z"/>
	<path class="st1" d="M31.3,85.1v3.6h2.4h2.4v-0.6v-0.6h-1.8h-1.8v-1v-1h1.6h1.6v-0.6v-0.6h-1.6h-1.6v-0.9v-0.8l1.7,0l1.7,0v-0.6
		v-0.6l-2.3,0l-2.4,0L31.3,85.1L31.3,85.1z"/>
	<path class="st1" d="M38.6,81.6c0,0.1,0.6,1,1.3,2.1l1.3,2v1.5v1.5h0.6h0.6v-1.5v-1.5l1.3-1.9c0.7-1.1,1.3-2,1.3-2.1
		c0-0.1-0.1-0.1-0.6-0.1c-0.8,0-0.7-0.1-1.8,1.6c-0.4,0.7-0.8,1.2-0.8,1.1c0,0-0.5-0.7-0.9-1.4L40,81.5h-0.7
		C38.9,81.5,38.6,81.5,38.6,81.6z"/>
	<path class="st1" d="M58.2,85.1v3.6h0.6h0.6l0-2.7l0-2.7l1.7,2.7l1.7,2.7l0.9,0l0.9,0l0-3.5l0-3.5H64h-0.6l-0.1,2.6l-0.1,2.6
		l-1.5-2.3c-2.1-3.3-1.9-3-2.8-3h-0.8L58.2,85.1L58.2,85.1z"/>
	<path class="st1" d="M68.3,81.5c-0.1,0.1-0.1,1.7-0.1,3.6v3.5l1.9,0c1.8,0,1.9-0.1,2.6-0.3c1.4-0.7,2.1-1.9,2-3.5
		c-0.1-1-0.4-1.7-1-2.3c-0.8-0.8-1.5-1-3.5-1C69.2,81.5,68.4,81.5,68.3,81.5z M72.2,83.1c0.9,0.4,1.2,1,1.1,2.2
		c-0.1,1.5-0.9,2.2-2.7,2.3l-1,0v-2.4v-2.4h1C71.5,82.7,71.7,82.8,72.2,83.1z"/>
	<path class="st1" d="M37.7,95.4c-0.7,0.3-1,1.2-0.6,1.8c0.1,0.2,0.5,0.4,1,0.6c1.1,0.4,1.4,0.8,0.9,1.4c-0.3,0.4-1,0.4-1.5,0.1
		c-0.3-0.2-0.3-0.2-0.5,0c-0.2,0.2-0.2,0.2,0.1,0.4c0.6,0.5,1.8,0.4,2.3-0.1c0.5-0.5,0.4-1.5-0.1-1.8c-0.1-0.1-0.5-0.2-0.8-0.3
		c-0.7-0.3-1-0.5-1-0.9c0-0.4,0.1-0.6,0.5-0.7c0.4-0.1,0.8-0.1,1.1,0.2c0.2,0.1,0.2,0.1,0.4-0.1c0.2-0.2,0.2-0.2-0.1-0.4
		C39,95.3,38.1,95.2,37.7,95.4z"/>
	<path class="st1" d="M48.8,95.4c-0.5,0.2-0.7,0.6-0.7,1.2c0,0.6,0.3,1,1.3,1.3c0.8,0.3,1,0.5,1,0.9c0,0.6-1.1,1-1.7,0.5
		c-0.3-0.2-0.3-0.2-0.5,0c-0.2,0.2-0.2,0.2,0.1,0.4c0.6,0.5,1.9,0.4,2.4-0.2c0.2-0.3,0.3-0.4,0.2-0.9c-0.1-0.6-0.3-0.9-1.1-1.2
		c-0.3-0.1-0.7-0.3-0.9-0.4c-0.3-0.2-0.3-0.7,0-1c0.3-0.2,1-0.3,1.4,0c0.2,0.2,0.2,0.2,0.4,0c0.2-0.2,0.2-0.2-0.2-0.5
		C50,95.2,49.4,95.2,48.8,95.4z"/>
	<path class="st1" d="M55.9,95.5c-1.9,0.9-1.8,3.6,0.2,4.3c0.4,0.1,0.9,0.2,1.9,0.2c1.2,0,1.4-0.1,1.5-0.2c0-0.2-0.1-0.2-0.6-0.2
		h-0.7l0.3-0.3c0.8-0.6,0.9-2.1,0.3-2.9C58.1,95.4,56.8,95,55.9,95.5z M57.8,96c0.8,0.6,1,1.4,0.6,2.3c-0.3,0.7-0.8,1-1.6,1
		c-1,0-1.6-0.7-1.6-1.9c0-0.5,0.1-0.7,0.3-1c0.2-0.2,0.3-0.4,0.3-0.4s0.2-0.1,0.5-0.2C56.8,95.7,57.4,95.7,57.8,96z"/>
	<path class="st1" d="M10,95.6c0,0.2,0.1,0.2,0.7,0.2h0.7v2v2h0.3H12v-2v-2h0.7c0.6,0,0.7,0,0.7-0.2c0-0.2-0.1-0.2-1.8-0.2
		S10,95.4,10,95.6z"/>
	<path class="st1" d="M17.1,97.7v2.3h0.3h0.3v-2.3v-2.3h-0.3h-0.3V97.7z"/>
	<path class="st1" d="M21.7,97.7v2.3l0.2,0c0.2,0,0.2-0.1,0.3-1.8l0.1-1.8l0.7,1.8c0.4,1,0.8,1.8,0.9,1.8c0.1,0,0.4-0.5,1-1.9
		l0.8-1.9l0,1.9c0,1.9,0,1.9,0.3,1.9c0.2-0.1,0.2-0.1,0.3-2.3l0-2.3h-0.4h-0.4l-0.7,1.7c-0.4,1-0.8,1.7-0.8,1.7c0,0-0.4-0.8-0.8-1.7
		l-0.7-1.7H22h-0.4L21.7,97.7L21.7,97.7z"/>
	<path class="st1" d="M30.4,97.6l0,2.3h1.5c1.4,0,1.5,0,1.5-0.2s-0.1-0.2-1.2-0.2l-1.2,0v-0.8v-0.8H32c1,0,1.1,0,1.1-0.2
		S33,97.4,32,97.4h-1.1v-0.7v-0.7h1.2c1.1,0,1.2,0,1.2-0.2c0-0.2-0.1-0.2-1.5-0.2h-1.5V97.6z"/>
	<path class="st1" d="M63,97.1c0,2.1,0.2,2.4,1,2.7c0.9,0.4,1.9,0.1,2.3-0.7c0.1-0.2,0.2-0.7,0.2-2v-1.7h-0.3h-0.3V97
		c0,2.2-0.1,2.4-1.1,2.4c-1,0-1.2-0.5-1.2-2.6v-1.5h-0.3H63L63,97.1z"/>
	<path class="st1" d="M71.1,97.3c-1.3,3-1.2,2.7-0.9,2.7c0.2,0,0.3-0.1,0.5-0.6l0.2-0.6h1.1h1.1l0.2,0.6c0.2,0.5,0.3,0.6,0.5,0.6
		c0.4,0,0.4,0-0.7-2.5C72.2,94.7,72.2,94.7,71.1,97.3z M72.7,97.3c0.2,0.5,0.3,1,0.3,1c0,0.1-0.4,0.1-0.9,0.1c-0.5,0-0.9,0-0.9-0.1
		c0-0.2,0.8-2,0.9-1.9C72.3,96.3,72.5,96.8,72.7,97.3z"/>
	<path class="st1" d="M77.9,97.6v2.3h0.3c0.3,0,0.3,0,0.3-1v-1h0.3c0.3,0,0.4,0.1,0.9,1c0.5,0.9,0.6,1,0.9,1c0.2,0,0.3,0,0.2-0.2
		c0-0.1-0.3-0.5-0.6-1c-0.3-0.4-0.5-0.9-0.5-0.9c0-0.1,0.2-0.2,0.3-0.2c0.8-0.3,0.9-1.5,0.2-2c-0.2-0.2-0.5-0.2-1.4-0.3l-1.1,0V97.6
		z M80.1,96.2c0.1,0.1,0.2,0.3,0.2,0.5c0,0.4-0.4,0.7-1.1,0.8l-0.7,0.1v-0.9v-0.8l0.7,0.1C79.7,95.9,79.9,96,80.1,96.2z"/>
	<path class="st1" d="M84.7,97.7v2.3h1.5h1.5v-0.3v-0.3h-1.2h-1.2v-0.8v-0.8h1.1c1,0,1.1,0,1.1-0.2c0-0.2-0.1-0.2-1.1-0.2h-1.1v-0.7
		v-0.7h1.1c1,0,1.1,0,1.1-0.2s-0.1-0.2-1.4-0.2h-1.4V97.7z"/>
	<path class="st1" d="M53.4,32.5c-0.6,0.2-0.9,0.7-0.8,1.4c0.1,0.5,0.2,0.8,0.5,1.2c0.2,0.2,0.3,0.2,0.8,0.2c0.5,0,0.6,0,0.9-0.3
		c0.5-0.6,0.5-1.1,0-2.3c-0.2-0.4-0.2-0.4-0.6-0.4C54,32.4,53.6,32.5,53.4,32.5z"/>
	<path class="st3" d="M54.3,32.9c0.1,0.2,0.4,1,0.4,1.3c0,0.4-0.4,0.7-0.9,0.7c-0.6,0-0.9-0.4-0.8-1.2c0-0.6,0-0.6,0.6-0.8
		C54.2,32.8,54.2,32.8,54.3,32.9z"/>
	<path class="st1" d="M49.5,32.7c-0.5,0.2-0.7,0.5-0.7,1c0,0.6,0.3,1.4,0.6,1.5c0.1,0,0.5,0,1,0c0.7,0,0.8,0,1-0.3
		c0.3-0.4,0.4-0.8,0.2-1.4C51.3,32.7,50.4,32.3,49.5,32.7z"/>
	<path class="st3" d="M51,33.5c0.2,0.3,0.2,0.5,0.1,0.8c-0.1,0.3-0.1,0.4-0.7,0.4c-0.3,0-0.7,0-0.8,0c-0.2-0.1-0.4-1-0.3-1.3
		c0.1-0.2,0.5-0.4,1-0.4C50.7,33.1,50.8,33.1,51,33.5z"/>
	<path class="st1" d="M45.6,33c-0.5,0.3-0.6,0.6-0.5,1.5c0.1,0.6,0.1,0.8,0.3,0.8c1.2,0.4,1.7,0.4,2.1,0c0.2-0.2,0.2-0.4,0.2-0.9
		c0-0.9-0.1-1.1-0.7-1.4C46.5,32.8,46,32.7,45.6,33z"/>
	<path class="st3" d="M47.1,33.4c0.3,0.2,0.5,1,0.2,1.4c-0.2,0.3-0.2,0.3-0.8,0.2c-0.3,0-0.7-0.1-0.7-0.2c-0.1-0.1-0.1-0.4-0.2-0.7
		c0-0.5,0-0.6,0.2-0.7C46.1,33.2,46.7,33.2,47.1,33.4z"/>
	<path class="st3" d="M33.4,19.1c0.3,0.1,0.4,0.2,0.4,0.6c0,0.2,0,0.7,0,0.9c0,0.2-0.1,0.9-0.2,1.5c0,0.6-0.1,1.3-0.2,1.5
		c-0.1,0.3-0.1,0.4-0.5,0.3c-0.5-0.1-0.7-0.2-1-0.5c-0.2-0.2-0.2-0.3-0.1-1.2c0.2-1.4,0.5-3,0.5-3.2C32.5,18.9,32.8,18.9,33.4,19.1z
		"/>
	<path class="st3" d="M37.9,21.1l0.3,0.3l-0.1,1.3c-0.1,1.3-0.2,2.3-0.4,2.3c-0.2,0-1.1-0.5-1.4-0.7c-0.2-0.3-0.2-0.3-0.2-0.8
		c0.1-0.3,0.2-1,0.2-1.5c0.2-1.3,0.2-1.4,0.7-1.3C37.4,20.7,37.7,20.9,37.9,21.1z"/>
	<path class="st3" d="M41.7,22.6c0.1,0.1,0.2,0.7,0.1,0.9c0,0.1-0.1,0.6-0.1,1.3c-0.1,1.5-0.2,1.7-0.8,1.6c-0.2,0-0.5-0.1-0.5-0.2
		c-0.2-0.2,0.1-3.1,0.4-3.6c0.1-0.2,0.2-0.2,0.5-0.2C41.5,22.4,41.7,22.5,41.7,22.6z"/>
	<path class="st3" d="M33.4,27.1c0.2,0.2,0.2,0.5,0.2,1.2c0,0.8-0.3,2.8-0.5,3.1c-0.1,0.2-0.9,0.1-1.4-0.2c-0.5-0.3-0.5-0.5-0.2-2.7
		c0.2-1.6,0.2-1.6,1-1.6C33.1,26.8,33.2,26.8,33.4,27.1z"/>
	<path class="st3" d="M27.6,29.9c0.1,0.2,0.3,1.1,0.3,1.5c0,0.2-0.1,0.4-0.3,0.6c-0.3,0.3-0.4,0.3-0.7,0.2c-0.9-0.1-0.9-0.1-1-0.6
		c-0.2-0.7-0.2-1.5,0-1.6c0.1,0,0.4-0.1,0.6-0.2C27,29.6,27.4,29.6,27.6,29.9z"/>
	<path class="st3" d="M23.3,30.7c0.2,0.2,0.2,0.6,0.2,0.9c0,0.6-0.3,0.8-1.1,0.8c-0.6,0-0.6,0-0.8-0.4c-0.1-0.2-0.2-0.6-0.2-0.9
		c0-0.4,0-0.5,0.4-0.7c0.2-0.2,0.5-0.2,0.8-0.2C22.9,30.4,23.1,30.4,23.3,30.7z"/>
	<path class="st3" d="M19,31.3c0.3,0.2,0.6,1.1,0.5,1.5c-0.1,0.4-0.6,0.6-1.3,0.6c-0.6,0-0.6,0-0.7-0.4c-0.2-0.5-0.1-1.3,0.2-1.6
		C17.9,31.1,18.5,31,19,31.3z"/>
	<path class="st3" d="M69.6,17.7l0.5,0.1l0,0.9c0,1.8,0,1.8-1.1,1.9c-1,0.1-1,0.1-1-1.1C68.1,17.6,68.3,17.4,69.6,17.7z"/>
	<path class="st3" d="M65.6,18.1c0.1,0.1,0.1,2.7,0,2.8c-0.1,0.1-1.3,0.1-1.7-0.1c-0.3-0.1-0.3-0.2-0.3-1.1c0-0.5,0-1,0-1.2
		c0-0.3,0.8-0.6,1.4-0.6C65.4,18,65.6,18.1,65.6,18.1z"/>
	<path class="st3" d="M60.8,18.5c0.2,0.4,0.2,2.6,0,2.8c-0.1,0.1-0.4,0.2-0.6,0.3c-0.4,0.1-0.6,0.1-1-0.1l-0.5-0.2v-0.8
		c0-1.4,0.1-1.6,0.7-2C60.2,18.1,60.7,18.1,60.8,18.5z"/>
	<path class="st3" d="M69.2,24c0,0.1,0.1,0.8,0.1,1.5s0,1.4-0.1,1.5c-0.1,0.4-1.2,0.1-1.4-0.3c-0.1-0.2-0.1-2.2,0.1-2.6
		C67.9,23.7,69.1,23.8,69.2,24z"/>
	<path class="st3" d="M65.6,25.3c0,0.8,0,1.4,0,1.5c-0.2,0.4-0.5,0.6-1,0.6c-0.7,0-0.9-0.3-0.8-1.6c0-0.6,0.1-1.1,0.2-1.2
		c0.1-0.1,1.2-0.5,1.5-0.5C65.4,24,65.5,24.6,65.6,25.3z"/>
	<path class="st3" d="M61.1,24.7c0.2,0.2,0.3,0.4,0.3,1.4c0,1.4,0,1.5-1,1.5c-0.6,0-0.7,0-1-0.3c-0.2-0.2-0.3-0.3-0.3-1
		c0-1.4,0.2-1.7,1.2-1.7C60.7,24.5,60.9,24.6,61.1,24.7z"/>
	<path class="st3" d="M61,30.2c0.2,0.5,0.2,2,0,2.4c-0.2,0.3-0.2,0.3-1,0.3c-1.3,0-1.2,0-1.1-1.4c0-0.6,0.1-1.3,0.2-1.4
		c0.2-0.2,0.7-0.4,1.3-0.4C60.8,29.8,60.9,29.9,61,30.2z"/>
	<path class="st3" d="M64.8,31.4c0,1.6-0.1,1.8-0.8,1.8c-0.5,0-1-0.4-1-1c-0.1-0.4,0.2-1.5,0.4-1.9c0.1-0.2,0.6-0.3,1.2-0.3h0.3
		L64.8,31.4z"/>
	<path class="st3" d="M68.6,30c0.2,0.2,0.2,0.4,0.2,1.3c0,1.2-0.1,1.4-0.9,1.5l-0.5,0l0-0.5c0-0.2,0-0.9,0-1.4
		c0.1-0.9,0.1-0.9,0.4-1C68.3,29.8,68.4,29.8,68.6,30z"/>
	<path class="st3" d="M76.3,30.9c0.1,0-0.2,0.8-0.4,0.9c-0.1,0.1-0.2,0.5-0.4,0.9c-0.2,0.7-0.2,0.7-0.6,0.7c-0.2,0-0.6-0.1-1-0.1
		c-0.6-0.1-0.8-0.2-0.7-0.4c0,0,0.1-0.4,0.2-0.8c0.1-0.4,0.2-0.9,0.2-1c0.1-0.3,0.1-0.3,1.4-0.2C75.7,30.9,76.3,30.9,76.3,30.9z"/>
	<path class="st3" d="M82.5,31.9c0.1,0.1-0.7,2.1-1,2.4c-0.2,0.2-0.2,0.2-0.8-0.1c-0.3-0.2-0.7-0.4-0.8-0.5
		c-0.2-0.2-0.2-0.3-0.1-0.9c0.1-0.3,0.2-0.7,0.4-0.8C80.5,31.7,82.2,31.6,82.5,31.9z"/>
	<path class="st3" d="M36.3,31.8c0.2-0.1,0.1-0.3-0.2-0.3c-0.1,0-0.2-0.1-0.1-0.5c0-0.2,0.1-1,0.1-1.6c0.1-1.1,0.1-1.1,0.4-1.4
		c0.8-0.5,1.5-0.2,1.4,0.7c0,0.6,0.2,0.6,0.3,0.2"/>
	<path class="st3" d="M40.3,29.5c0.1,0.1,0.4-0.1,0.6-0.4c0.2-0.4,0.3-0.5,0.7-0.4c0.6,0.1,0.6,0.2,0.6,1.6c-0.1,0.9,0,1.3,0.1,1.4"
		/>
	<path class="st3" d="M31.3,35.3c0.1-0.2,0.2-0.6,0.2-0.8c0-0.4,0.2-0.6,0.7-0.7c0.9-0.2,1.1,0.2,1.1,1.7c0,0.7,0,0.8,0.2,0.8"/>
	<path class="st3" d="M66.8,36.1c0.2,0,0.2-0.1,0.3-0.4l0-0.4h0.7c0.7-0.2,0.9,0.3,1.1,0.6"/>
	<path class="st3" d="M58.6,37.8c0.2,0,0.2-0.1,0.2-0.7c0-0.6,0-0.8,0.3-1c0.4-0.3,1-0.6,1.5-0.4c0.5,0.1,0.6,0.5,0.6,1.6
		c0,0.8,0,1,0.1,1"/>
	<path class="st3" d="M62.9,38.3c0,0,0.1-0.5,0.1-1c0-0.6,0.1-1.1,0.2-1.4c0.2-0.4,0.2-0.4,0.6-0.4c0.7,0,0.9,0.2,0.8,0.7
		c-0.1,0.3,0,0.5,0.1,0.5"/>
	<path class="st3" d="M72.2,36.7c0.2,0,0.2,0,0.3-0.4c0-0.2,0.1-0.5,0.2-0.6c0.3-0.3,2.5,0,2.5,0.3c0,0-0.1,0.3-0.2,0.5
		C74.8,37,74.8,37,75.1,37"/>
	<path class="st3" d="M77.9,37.6c0.1-0.3,0.8-1,0.9-1c0.3,0,1.7,0.5,1.9,0.7l0.3,0.2l-0.3,0.6c-0.5,1-0.8,2.1-0.6,2.4"/>
	<path class="st16" d="M22.8,55.1c0.6,0.2,1.4,0.4,2,0.2c0.6-0.2,1-0.7,1.6-1.1c0.5-0.3,1.1-0.5,1.8-0.4c0,0,0.1,0,0.1,0
		c0.2,0.1,0.1,0.3,0,0.4s-0.3,0.1-0.5,0.2c-0.6,0.2-1.1,0.8-1.3,1.4c-0.2,0.6-0.1,1.3-0.1,2c0.1,1,0.1,2,0.6,2.9
		c0.3,0.5,0.8,0.9,1,1.5c0,0.1,0,0.1,0,0.2c0,0.1-0.1,0.1-0.2,0.1c-1.2,0.5-2.4,0.9-3.6,1.4c-0.6,0.2-1.1,0.4-1.7,0.5
		c0.6-1,0.8-2.1,0.9-3.2c0.1-0.8,0.2-1.6,0.1-2.3c-0.1-0.8-0.4-1.5-0.9-2.1c-0.4-0.4-1.5-0.8-1.7-1.3C20.8,54.8,22.5,55,22.8,55.1z"
		/>
	<path class="st16" d="M39.8,56c0,0.6-0.4,1.2-0.7,1.8c0,0.1-0.1,0.1,0,0.2c0,0.1,0.2,0.1,0.3,0.1c0.6-0.2,1.3-0.4,1.9-0.3
		c0.1,0,0.3,0.1,0.4,0.1c0.1,0,0.3-0.1,0.2-0.2c0-0.2-0.4-0.2-0.6-0.4c-0.1-0.1-0.1-0.2-0.1-0.2c-0.1-0.5-0.1-1-0.1-1.5
		c0-0.4,0.2-1,0.1-1.4c-0.3,0.1-0.6,0.2-1,0.2c-0.2,0-0.7-0.1-0.9,0c-0.2,0.2,0,0.2,0,0.4C39.7,55.1,39.8,55.5,39.8,56z"/>
	<path class="st16" d="M53.2,54c-0.2,0.7-0.2,1.5-0.1,2.3c0,0.2,0,0.3-0.1,0.4c-0.1,0.1-0.2,0.1-0.3,0.1C52,57,51.2,57,50.5,57
		c0.3-0.7,0.6-1.4,0.6-2.2c0-0.8-0.3-1.5-0.9-2c-0.2-0.2-0.4-0.3-0.4-0.5c0.4-0.1,0.8,0.2,1.2,0.4c0.7,0.3,1.5,0.2,2.3-0.2
		c0.4-0.2,1.2-0.6,1.6-0.6c0.4,0-0.2,0.3-0.5,0.4C53.6,52.5,53.4,53.3,53.2,54z"/>
	<path class="st16" d="M66.6,56.6c0.9,0,1.5-0.1,2.3,0.1c0.1,0,0.4,0.2,0.5,0.2c0.2,0,0.3-0.1,0.3-0.3c0-0.2,0-0.4-0.1-0.6
		c-0.3-1.3,0.5-2.7,1.7-3.3c-0.7-0.2-1.5-0.2-2.1,0.2c-0.4,0.2-0.8,0.5-1.2,0.4c-0.3-0.1-0.5-0.4-0.8-0.6c-0.3-0.2-1.4-0.3-1.7,0
		c-0.4,0.3,0.5,0.7,0.7,1c0.3,0.4,0.4,0.9,0.5,1.4C66.7,55.3,66.8,56.6,66.6,56.6z"/>
</g>
</svg>
