<svg width="64" height="64">
  <g fill="none" fill-rule="evenodd">
    <path d="M33.5194 49.6478v-4.315c4.4862-.3499 7.6188-3.2266 7.9668-7.153.4255-3.8485-1.8176-6.8807-7.1933-8.319l-3.4034-.8941c-3.1713-.8164-3.558-2.4491-3.558-3.4987 0-2.2159 2.1658-3.6931 4.6022-3.6931 2.7459 0 4.641 1.5938 4.641 4.043h4.0994c0-4.354-2.978-7.2696-7.1547-7.8138V14h-2.5138v3.9652c-4.2542.4276-7.7736 3.3432-7.7736 7.5805 0 2.3713.8896 5.6368 6.6133 7.1918l3.3647.8552c2.4751.5831 4.3702 1.9049 4.2155 4.354-.2708 1.9437-1.895 3.6541-5.0277 3.6541-3.1713 0-5.221-2.2158-5.2983-4.3928H23c0 4.0041 3.21 7.5417 8.0056 8.086v4.3538h2.5138z" fill="#9EC28E" fill-rule="nonzero"/>
    <circle stroke="#9EC28E" stroke-width="3" cx="31.8506" cy="31.8506" r="30.3506"/>
    <path stroke="#9EC28E" stroke-width="3" d="M10 9.5l44 44"/>
  </g>
</svg>
