<svg xmlns="http://www.w3.org/2000/svg" viewBox="0 0 69 69"><g fill="none" fill-rule="evenodd"><path stroke="#FFF" d="M.5.5h68v68H.5z"/><path d="M34.5 21c3.666 0 4.126.016 5.566.081 1.437.066 2.418.294 3.277.628.888.345 1.64.806 2.391 1.557a6.618 6.618 0 011.557 2.391c.334.859.562 1.84.628 3.277.065 1.44.081 1.9.081 5.566s-.016 4.126-.081 5.566c-.066 1.437-.294 2.418-.628 3.277a6.618 6.618 0 01-1.557 2.391 6.618 6.618 0 01-2.391 1.557c-.859.334-1.84.562-3.277.628-1.44.065-1.9.081-5.566.081s-4.126-.016-5.566-.081c-1.437-.066-2.418-.294-3.277-.628a6.618 6.618 0 01-2.391-1.557 6.617 6.617 0 01-1.557-2.391c-.334-.859-.562-1.84-.628-3.277-.065-1.44-.081-1.9-.081-5.566s.016-4.126.081-5.566c.066-1.437.294-2.418.628-3.277a6.617 6.617 0 011.557-2.391 6.617 6.617 0 012.391-1.557c.859-.334 1.84-.562 3.277-.628 1.44-.065 1.9-.081 5.566-.081zm0 2.432c-3.605 0-4.032.014-5.455.08-1.316.06-2.031.28-2.507.464-.63.245-1.08.537-1.552 1.01a4.182 4.182 0 00-1.01 1.552c-.185.476-.405 1.19-.465 2.507-.065 1.423-.079 1.85-.079 5.455s.014 4.032.08 5.455c.06 1.316.28 2.031.464 2.507.245.63.537 1.08 1.01 1.552.472.473.922.765 1.552 1.01.476.185 1.19.405 2.507.465 1.423.065 1.85.079 5.455.079s4.032-.014 5.455-.08c1.316-.06 2.031-.28 2.507-.464a4.182 4.182 0 001.552-1.01 4.182 4.182 0 001.01-1.552c.185-.476.405-1.19.465-2.507.065-1.423.079-1.85.079-5.455s-.014-4.032-.08-5.455c-.06-1.316-.28-2.031-.464-2.507a4.182 4.182 0 00-1.01-1.552 4.182 4.182 0 00-1.552-1.01c-.476-.185-1.19-.405-2.507-.465-1.423-.065-1.85-.079-5.455-.079zm0 4.136a6.932 6.932 0 110 13.864 6.932 6.932 0 010-13.864zM34.5 39a4.5 4.5 0 100-9 4.5 4.5 0 000 9zm8.826-11.706a1.62 1.62 0 11-3.24 0 1.62 1.62 0 013.24 0z" fill="#FFF" fill-rule="nonzero"/></g></svg>