<?xml version="1.0" encoding="UTF-8"?>
<svg width="140px" height="73px" viewBox="0 0 140 73" version="1.1" xmlns="http://www.w3.org/2000/svg" xmlns:xlink="http://www.w3.org/1999/xlink">
    <g stroke="none" stroke-width="1" fill="none" fill-rule="evenodd">
        <g fill="#000000" fill-rule="nonzero">
            <g>
                <polygon points="113.11 42.68 120.21 42.68 120.21 40.7 113.11 40.7 113.11 34.3 120.33 34.3 120.33 32.32 110.9 32.32 110.9 54.08 120.39 54.08 120.39 52.1 113.11 52.1"></polygon>
                <polygon points="137.24 47.91 126.29 31.49 126.29 54.08 128.41 54.08 128.41 38.42 139.36 54.85 139.36 32.32 137.24 32.32"></polygon>
                <path d="M60.36,31.46 L51.87,54.05 L54.09,54.05 L56.19,48.41 L64.28,48.41 L66.3,54.05 L68.6,54.05 L60.36,31.46 Z M56.92,46.43 L60.3,37.34 L63.57,46.43 L56.92,46.43 Z"></path>
                <path d="M16.14,8.3 C14.35,8.3 12.97,8.87 11.93,9.6 C13.1,6.94 15.05,4.09 17.66,1.27 L18.31,0.57 L15.87,0.23 L15.69,0.43 C11.04,5.59 8.68,10.42 8.68,14.76 C8.68,17.14 9.38,19.09 10.7,20.41 C12.02,21.73 13.81,22.46 15.75,22.46 C19.84,22.46 23.04,19.26 23.04,15.17 C23.03,11.25 20.07,8.3 16.14,8.3 Z M16.02,10.28 C18.89,10.28 20.82,12.26 20.82,15.2 C20.82,18.31 18.74,20.49 15.76,20.49 C13.32,20.49 10.84,18.71 10.84,15.32 C10.85,12.44 13.07,10.28 16.02,10.28 Z"></path>
                <path d="M38.46,20.22 L28.45,20.22 L34.3,13.71 C37.23,10.44 38.2,8.9 38.2,6.27 C38.2,2.66 35.52,0.24 31.54,0.24 C29.72,0.24 27.81,0.84 26.17,1.94 L25.77,2.2 L26.79,3.91 L27.22,3.64 C28.79,2.66 30.11,2.22 31.51,2.22 C34.79,2.22 35.96,4.34 35.96,6.33 C35.96,8.23 35.29,9.52 32.83,12.31 L24.88,21.29 L24.09,22.18 L38.45,22.18 L38.45,20.22 L38.46,20.22 Z"></path>
                <path d="M49.84,0.15 C45.39,0.15 42.29,4.75 42.29,11.33 C42.29,17.98 45.3,22.45 49.79,22.45 C54.24,22.45 57.34,17.85 57.34,11.27 C57.33,4.62 54.32,0.15 49.84,0.15 Z M49.78,2.13 C52.86,2.13 55.1,6 55.1,11.34 C55.1,16.73 52.94,20.49 49.84,20.49 C46.76,20.49 44.52,16.62 44.52,11.28 C44.52,5.89 46.68,2.13 49.78,2.13 Z"></path>
                <path d="M103.06,11.28 C103.06,5.04 98.16,0.16 91.91,0.16 C85.62,0.16 80.7,5.07 80.7,11.34 C80.7,17.58 85.6,22.46 91.85,22.46 C98.14,22.46 103.06,17.55 103.06,11.28 Z M91.86,2.13 C96.98,2.13 100.84,6.09 100.84,11.34 C100.84,16.56 97.01,20.49 91.92,20.49 C86.8,20.49 82.94,16.53 82.94,11.28 C82.94,6.06 86.77,2.13 91.86,2.13 Z"></path>
                <path d="M16.97,43.86 L17.1,43.37 L14.96,42.84 L14.85,43.34 C14.56,44.62 14.2,45.8 13.78,46.85 L8.71,40.18 C7.77,38.96 7.32,37.83 7.32,36.74 C7.32,35.45 8.16,34.07 10.02,34.07 C11.13,34.07 11.79,34.34 12.77,34.9 L13.22,35.15 L14.21,33.28 L13.78,33.04 C12.56,32.36 11.5,32.09 10.14,32.09 C7.27,32.09 5.18,34.06 5.18,36.76 C5.18,38.09 5.53,39.2 6.38,40.48 C2.71,42.09 0.86,44.54 0.86,47.78 C0.86,51.52 3.66,54.24 7.52,54.24 C10.14,54.24 12.35,53.02 14.08,50.62 L16.69,54.04 L19.33,54.04 L15.22,48.68 C15.89,47.3 16.49,45.68 16.97,43.86 Z M7.62,42.16 L12.75,48.92 C11.4,51.12 9.62,52.28 7.56,52.28 C4.99,52.28 3.05,50.34 3.05,47.77 C3.05,45.18 4.59,43.3 7.62,42.16 Z"></path>
                <path d="M38.44,47.14 L47.31,47.14 C46,50.61 43.42,52.36 39.66,52.36 C34.71,52.36 30.97,48.37 30.97,43.07 C30.97,37.99 34.72,34.01 39.51,34.01 C41.88,34.01 43.79,34.69 45.89,36.27 L46.3,36.58 L47.51,34.88 L47.13,34.59 C44.91,32.9 42.37,32.04 39.57,32.04 C33.6,32.04 28.73,37.02 28.73,43.13 C28.73,49.42 33.5,54.34 39.59,54.34 C44.8,54.34 48.63,51.26 49.84,46.09 C49.84,46.09 49.95,45.59 50.01,45.19 L38.44,45.19 L38.44,47.14 Z"></path>
                <path d="M85.73,39.58 C85.73,35.3 82.22,32.32 77.2,32.32 L72.82,32.32 L72.82,54.05 L75,54.05 L75,47.41 L83.31,54.05 L86.68,54.05 L77.77,47.05 C82.63,46.72 85.73,43.86 85.73,39.58 Z M74.99,34.27 L77.08,34.27 C80.98,34.27 83.49,36.38 83.49,39.65 C83.49,43.74 80.12,45.2 76.96,45.2 L74.98,45.2 L74.98,34.27 L74.99,34.27 Z"></path>
                <path d="M94.48,32.32 L91.28,32.32 L91.28,54.05 L94.31,54.05 C100.79,54.05 105.49,49.41 105.49,43.01 C105.49,36.72 100.97,32.32 94.48,32.32 Z M93.46,34.27 L94.43,34.27 C99.71,34.27 103.26,37.81 103.26,43.07 C103.26,48.47 99.66,52.1 94.31,52.1 L93.45,52.1 L93.45,34.27 L93.46,34.27 Z"></path>
                <polygon points="108.08 22.2 110.29 22.2 110.29 10.94 117.01 10.94 117.01 8.97 110.29 8.97 110.29 2.42 117.01 2.42 117.01 0.44 108.08 0.44"></polygon>
                <polygon points="71.48 0.43 69.27 0.43 69.27 22.18 78.56 22.18 78.56 20.21 71.48 20.21"></polygon>
                <polygon points="120.74 2.42 126.04 2.42 126.04 22.2 128.24 22.2 128.24 2.42 133.53 2.42 133.53 0.44 120.74 0.44"></polygon>
                <g transform="translate(11.000000, 64.000000)">
                    <path d="M1.8,7.89 L0.82,7.89 L0.82,0.21 L3.07,0.21 C4.52,0.21 5.54,1.01 5.54,2.43 C5.54,3.61 4.75,4.39 3.63,4.59 L6.04,7.89 L4.9,7.89 L2.55,4.63 L1.8,4.63 L1.8,7.89 Z M1.8,3.76 L3.06,3.76 C3.94,3.76 4.55,3.27 4.55,2.42 C4.55,1.56 3.94,1.1 3.06,1.1 L1.8,1.1 L1.8,3.76 Z"></path>
                    <path d="M10.98,8.01 C8.82,8.01 7.04,6.23 7.04,4.05 C7.04,1.86 8.82,0.08 10.98,0.08 C13.14,0.08 14.92,1.86 14.92,4.05 C14.92,6.23 13.14,8.01 10.98,8.01 Z M10.98,1.01 C9.35,1.01 8.04,2.38 8.04,4.05 C8.04,5.71 9.35,7.08 10.98,7.08 C12.61,7.08 13.92,5.71 13.92,4.05 C13.92,2.38 12.62,1.01 10.98,1.01 Z"></path>
                    <path d="M20.4,0.08 C21.21,0.08 21.97,0.32 22.65,0.77 L22.65,1.86 C21.9,1.3 21.17,1.03 20.38,1.03 C18.76,1.03 17.48,2.36 17.48,4.06 C17.48,5.74 18.75,7.08 20.38,7.08 C21.16,7.08 21.93,6.81 22.67,6.27 L22.67,7.36 C21.95,7.81 21.19,8.03 20.39,8.03 C18.2,8.03 16.47,6.29 16.47,4.07 C16.48,1.82 18.2,0.08 20.4,0.08 Z"></path>
                    <polygon points="25.67 3.51 28.88 0.21 30.11 0.21 26.74 3.66 30.37 7.88 29.13 7.88 26.09 4.3 25.66 4.74 25.66 7.88 24.68 7.88 24.68 0.2 25.66 0.2 25.66 3.51"></polygon>
                    <polygon points="32.05 0.21 36.32 0.21 36.32 1.11 33.03 1.11 33.03 3.46 36.09 3.46 36.09 4.35 33.03 4.35 33.03 6.99 36.34 6.99 36.34 7.89 32.05 7.89 32.05 0.21"></polygon>
                    <polygon points="39.39 7.89 38.41 7.89 38.41 0.21 42.59 0.21 42.59 1.11 39.39 1.11 39.39 3.46 42.42 3.46 42.42 4.35 39.39 4.35"></polygon>
                    <polygon points="44.71 0.21 48.98 0.21 48.98 1.11 45.69 1.11 45.69 3.46 48.75 3.46 48.75 4.35 45.69 4.35 45.69 6.99 49 6.99 49 7.89 44.71 7.89 44.71 0.21"></polygon>
                    <polygon points="52.01 0.21 52.01 6.98 54.75 6.98 54.75 7.89 51.03 7.89 51.03 0.21 52.01 0.21"></polygon>
                    <polygon points="57.52 0.21 57.52 6.98 60.26 6.98 60.26 7.89 56.54 7.89 56.54 0.21 57.52 0.21"></polygon>
                    <polygon points="62.3 0.21 66.57 0.21 66.57 1.11 63.28 1.11 63.28 3.46 66.34 3.46 66.34 4.35 63.28 4.35 63.28 6.99 66.59 6.99 66.59 7.89 62.3 7.89 62.3 0.21"></polygon>
                    <path d="M69.64,7.89 L68.66,7.89 L68.66,0.21 L70.91,0.21 C72.36,0.21 73.38,1.01 73.38,2.43 C73.38,3.61 72.59,4.39 71.47,4.59 L73.88,7.89 L72.73,7.89 L70.38,4.63 L69.63,4.63 L69.63,7.89 L69.64,7.89 Z M69.64,3.76 L70.9,3.76 C71.78,3.76 72.39,3.27 72.39,2.42 C72.39,1.56 71.78,1.1 70.9,1.1 L69.64,1.1 L69.64,3.76 Z"></path>
                    <path d="M82.52,0.08 C83.33,0.08 84.09,0.32 84.77,0.77 L84.77,1.86 C84.02,1.3 83.29,1.03 82.5,1.03 C80.88,1.03 79.6,2.36 79.6,4.06 C79.6,5.74 80.87,7.08 82.5,7.08 C83.28,7.08 84.05,6.81 84.79,6.27 L84.79,7.36 C84.07,7.81 83.31,8.03 82.51,8.03 C80.32,8.03 78.59,6.29 78.59,4.07 C78.59,1.82 80.31,0.08 82.52,0.08 Z"></path>
                    <polygon points="86.74 0.21 91.01 0.21 91.01 1.11 87.72 1.11 87.72 3.46 90.78 3.46 90.78 4.35 87.72 4.35 87.72 6.99 91.03 6.99 91.03 7.89 86.74 7.89 86.74 0.21"></polygon>
                    <polygon points="99.53 0.21 99.53 7.89 98.61 7.89 93.95 1.69 93.95 7.89 93 7.89 93 0.21 94 0.21 98.58 6.33 98.58 0.21 99.53 0.21"></polygon>
                    <polygon points="101.14 0.21 106.6 0.21 106.6 1.11 104.36 1.11 104.36 7.89 103.37 7.89 103.37 1.11 101.13 1.11 101.13 0.21"></polygon>
                    <polygon points="108.28 0.21 112.55 0.21 112.55 1.11 109.26 1.11 109.26 3.46 112.32 3.46 112.32 4.35 109.26 4.35 109.26 6.99 112.57 6.99 112.57 7.89 108.28 7.89 108.28 0.21"></polygon>
                    <path d="M115.67,7.89 L114.69,7.89 L114.69,0.21 L116.94,0.21 C118.39,0.21 119.41,1.01 119.41,2.43 C119.41,3.61 118.62,4.39 117.5,4.59 L119.91,7.89 L118.76,7.89 L116.41,4.63 L115.66,4.63 L115.66,7.89 L115.67,7.89 Z M115.67,3.76 L116.93,3.76 C117.81,3.76 118.42,3.27 118.42,2.42 C118.42,1.56 117.81,1.1 116.93,1.1 L115.67,1.1 L115.67,3.76 Z"></path>
                </g>
                <path d="M133.1,65.77 L133.1,65.03 L133.42,65.03 C133.74,65.03 133.89,65.14 133.89,65.39 C133.89,65.61 133.74,65.76 133.43,65.76 L133.1,65.77 Z M133.1,66 L133.52,65.98 L133.95,66.67 L134.25,66.67 L133.78,65.92 C134,65.83 134.15,65.65 134.15,65.38 C134.15,65.03 133.9,64.81 133.43,64.81 L132.83,64.81 L132.83,66.68 L133.09,66.68 L133.09,66 L133.1,66 Z M135.03,65.76 C135.03,66.62 134.33,67.34 133.46,67.34 C132.59,67.34 131.88,66.63 131.88,65.76 C131.88,64.89 132.58,64.17 133.46,64.17 C134.33,64.17 135.03,64.89 135.03,65.76 M133.46,67.47 C134.41,67.47 135.18,66.7 135.18,65.75 C135.18,64.79 134.41,64.02 133.46,64.02 C132.5,64.02 131.73,64.8 131.73,65.75 C131.73,66.7 132.5,67.47 133.46,67.47"></path>
            </g>
        </g>
    </g>
</svg>