<svg id="eu55j24uqx2s1" xmlns="http://www.w3.org/2000/svg" xmlns:xlink="http://www.w3.org/1999/xlink" viewBox="0 0 2133.330000 350" shape-rendering="geometricPrecision" text-rendering="geometricPrecision"><g id="eu55j24uqx2s2" transform="matrix(1.33333000000000 0 0 -1.33333000000000 -21.73408600000005 774.99852034500009)"><g id="eu55j24uqx2s3"><g id="eu55j24uqx2s4" clip-path="url(#eu55j24uqx2s73)"><g id="eu55j24uqx2s5"><g id="eu55j24uqx2s6" transform="matrix(1 0 0 1 1193.76999999999998 462.33199999999999)"><path id="eu55j24uqx2s7" d="M0,0C1.781000,-5.505000,6.040000,-9.221000,16.106000,-9.221000C25.759000,-9.221000,28.890000,-5.976000,28.890000,-1.758000C28.890000,2.727000,26.089000,5.349000,13.164000,7.535000C-5.838000,10.777000,-9.611000,16.887000,-9.611000,24.599000C-9.611000,35.586000,0.923000,41.396000,14.104000,41.396000C33.411000,41.396000,38.436000,31.414000,39.084000,25.045000L27.019000,25.045000C26.096000,28.219000,24.022000,32.453000,13.739000,32.453000C6.605000,32.453000,2.623000,30.122000,2.623000,25.766000C2.623000,22.019000,4.973000,19.939000,16.439000,17.930000C37.829000,14.154000,41.207000,7.641000,41.207000,-0.534000C41.207000,-10.192000,33.591000,-18.140000,15.035000,-18.140000C-2.247000,-18.140000,-10.315000,-10.377000,-12.090000,0Z" fill="rgb(202,155,64)" stroke="none" stroke-width="1"/></g><g id="eu55j24uqx2s8" transform="matrix(1 0 0 1 1241.49000000000001 486.93599999999998)"><path id="eu55j24uqx2s9" d="M0,0L7.711000,0L7.711000,12.612000L19.233000,12.612000L19.233000,0L29.244000,0L29.244000,-8.480000L19.233000,-8.480000L19.233000,-27.655000C19.233000,-31.582000,20.123000,-33.364000,24.312000,-33.364000C25.469000,-33.364000,26.878000,-33.339000,28.036000,-33.072000L28.036000,-41.058000C25.905000,-41.707000,23.149000,-41.933000,20.296000,-41.933000C10.571000,-41.933000,7.711000,-37.679000,7.711000,-29.545000L7.711000,-8.480000L0,-8.480000Z" fill="rgb(202,155,64)" stroke="none" stroke-width="1"/></g><g id="eu55j24uqx2s10" transform="matrix(1 0 0 1 1319.89000000000010 457.46300000000002)"><path id="eu55j24uqx2s11" d="M0,0C0,-4.027000,-0.056000,-8.086000,0.024000,-12.112000L-11.141000,-12.112000C-11.303000,-10.978000,-11.352000,-8.743000,-11.408000,-6.566000C-13.490000,-10.290000,-16.835000,-13.246000,-25.682000,-13.246000C-34.406000,-13.246000,-41.220000,-8.255000,-41.220000,3.946000L-41.220000,29.473000L-29.754000,29.473000L-29.754000,5.884000C-29.754000,0.117000,-27.592000,-4.158000,-21.495000,-4.158000C-14.298000,-4.158000,-11.465000,0.053000,-11.465000,10.385000L-11.465000,29.473000L0,29.473000Z" fill="rgb(202,155,64)" stroke="none" stroke-width="1"/></g><g id="eu55j24uqx2s12" transform="matrix(1 0 0 1 1341.39000000000010 466.04300000000001)"><path id="eu55j24uqx2s13" d="M0,0C0,-6.909000,4.057000,-12.729000,11.538000,-12.729000C19.326000,-12.729000,22.995000,-7.653000,22.995000,0.145000C22.995000,7.919000,20.047000,12.987000,11.659000,12.987000C3.797000,12.987000,0,6.680000,0,0M34.192000,39.814000L34.192000,-8.872000C34.192000,-12.785000,34.192000,-16.779000,34.274000,-20.692000L22.995000,-20.692000C22.809000,-19.291000,22.728000,-17.161000,22.671000,-15.404000C20.442000,-18.709000,17.316000,-21.826000,8.375000,-21.826000C-3.331000,-21.826000,-11.798000,-13.118000,-11.798000,-0.252000C-11.798000,13.667000,-0.933000,22.027000,9.525000,22.027000C18.158000,22.027000,21.479000,18.749000,22.671000,17.073000L22.671000,39.814000Z" fill="rgb(202,155,64)" stroke="none" stroke-width="1"/></g><path id="eu55j24uqx2s14" d="M1388.071000,486.936000L1399.537000,486.936000L1399.537000,445.351000L1388.071000,445.351000ZM1388.071000,505.857000L1399.537000,505.857000L1399.537000,495.704000L1388.071000,495.704000Z" fill="rgb(202,155,64)" stroke="none" stroke-width="1"/><g id="eu55j24uqx2s15" transform="matrix(1 0 0 1 1420.91000000000008 466.14800000000002)"><path id="eu55j24uqx2s16" d="M0,0C0,-6.916000,4.048000,-13.119000,11.644000,-13.119000C19.497000,-13.119000,23.148000,-7.134000,23.148000,-0.170000C23.148000,6.761000,19.426000,13.110000,11.514000,13.110000C3.651000,13.110000,0,7.020000,0,0M34.946000,0.024000C34.946000,-12.381000,26.534000,-21.931000,11.254000,-21.931000C-3.785000,-21.931000,-11.684000,-11.520000,-11.684000,0C-11.684000,11.568000,-3.445000,21.922000,11.748000,21.922000C27.380000,21.922000,34.946000,10.554000,34.946000,0.024000" fill="rgb(202,155,64)" stroke="none" stroke-width="1"/></g><g id="eu55j24uqx2s17" transform="matrix(1 0 0 1 1473.82999999999993 458.07100000000003)"><path id="eu55j24uqx2s18" d="M0,0C1.190000,-3.585000,4.429000,-5.828000,10.639000,-5.828000C17.010000,-5.828000,18.960000,-3.756000,18.960000,-1.239000C18.960000,1.448000,17.057000,2.969000,8.027000,4.152000C-7.432000,6.259000,-9.805000,11.875000,-9.805000,16.979000C-9.805000,22.983000,-5.178000,30,8.896000,30C23.488000,30,28.286000,22.919000,28.838000,17.263000L17.493000,17.263000C16.902000,19.393000,15.348000,22.200000,8.435000,22.200000C2.599000,22.200000,1.482000,19.854000,1.482000,18.098000C1.482000,15.937000,3.013000,14.634000,11.313000,13.452000C27.802000,11.044000,30.247000,5.639000,30.247000,-0.258000C30.247000,-7.809000,24.511000,-13.854000,9.885000,-13.854000C-1.724000,-13.854000,-10.056000,-8.953000,-11.399000,0Z" fill="rgb(202,155,64)" stroke="none" stroke-width="1"/></g><g id="eu55j24uqx2s19" transform="matrix(1 0 0 1 380.32600000000002 372.44200000000001)"><path id="eu55j24uqx2s20" d="M0,0C-1.061000,0.057000,-3.904000,0.057000,-8.941000,0.057000C-16.527000,0.057000,-19.740000,-1.814000,-19.740000,-5.812000C-19.740000,-8.969000,-17.279000,-11.567000,-11.838000,-11.567000C-3.420000,-11.567000,0,-7.271000,0,-1.011000ZM11.214000,-7.544000C11.214000,-12.521000,11.457000,-17.853000,11.563000,-18.768000L0.713000,-18.768000C0.389000,-17.610000,0.284000,-14.865000,0.228000,-13.634000C-1.993000,-17.457000,-6.756000,-19.901000,-14.889000,-19.901000C-26.384000,-19.901000,-30.889000,-12.910000,-30.889000,-6.396000C-30.889000,4.437000,-21.297000,7.442000,-9.160000,7.442000L0,7.442000L0,9.036000C0,12.777000,-1.620000,15.982000,-8.589000,15.982000C-14.994000,15.982000,-16.443000,13.417000,-17.074000,10.584000L-28.540000,10.584000C-28.143000,15.833000,-24.497000,23.951000,-8.736000,23.951000C8.396000,23.951000,11.214000,15.800000,11.214000,8.872000Z" fill="rgb(202,155,64)" stroke="none" stroke-width="1"/></g><g id="eu55j24uqx2s21" transform="matrix(1 0 0 1 398.42000000000002 395.25999999999999)"><path id="eu55j24uqx2s22" d="M0,0L7.711000,0L7.711000,12.612000L19.233000,12.612000L19.233000,0L29.245000,0L29.245000,-8.480000L19.233000,-8.480000L19.233000,-27.655000C19.233000,-31.582000,20.124000,-33.363000,24.312000,-33.363000C25.470000,-33.363000,26.878000,-33.339000,28.037000,-33.072000L28.037000,-41.058000C25.906000,-41.706000,23.149000,-41.934000,20.296000,-41.934000C10.572000,-41.934000,7.711000,-37.679000,7.711000,-29.545000L7.711000,-8.480000L0,-8.480000Z" fill="rgb(202,155,64)" stroke="none" stroke-width="1"/></g><g id="eu55j24uqx2s23" transform="matrix(1 0 0 1 473.77199999999999 385.75700000000001)"><path id="eu55j24uqx2s24" d="M0,0L15.257000,0C22.706000,0,26.097000,2.656000,26.097000,8.121000C26.097000,13.196000,22.649000,15.942000,15.435000,15.942000L0,15.942000ZM0,-9.193000L0,-32.082000L-11.903000,-32.082000L-11.903000,25.136000L18.021000,25.136000C30.743000,25.136000,38.390000,18.993000,38.390000,9.054000C38.390000,1.818000,34.370000,-2.709000,28.272000,-4.516000C31.073000,-5.479000,36.907000,-7.925000,36.907000,-18.116000L36.907000,-20.863000C36.907000,-24.937000,36.851000,-29.473000,37.612000,-32.082000L25.287000,-32.082000C24.363000,-29.570000,24.323000,-25.878000,24.323000,-20.213000L24.323000,-18.326000C24.323000,-11.688000,21.830000,-9.193000,12.946000,-9.193000Z" fill="rgb(202,155,64)" stroke="none" stroke-width="1"/></g><g id="eu55j24uqx2s25" transform="matrix(1 0 0 1 531.81899999999996 374.47199999999998)"><path id="eu55j24uqx2s26" d="M0,0C0,-6.916000,4.048000,-13.118000,11.643000,-13.118000C19.497000,-13.118000,23.148000,-7.134000,23.148000,-0.170000C23.148000,6.761000,19.425000,13.109000,11.514000,13.109000C3.651000,13.109000,0,7.021000,0,0M34.946000,0.023000C34.946000,-12.381000,26.535000,-21.931000,11.254000,-21.931000C-3.785000,-21.931000,-11.684000,-11.521000,-11.684000,0C-11.684000,11.567000,-3.445000,21.922000,11.749000,21.922000C27.379000,21.922000,34.946000,10.555000,34.946000,0.023000" fill="rgb(202,155,64)" stroke="none" stroke-width="1"/></g><g id="eu55j24uqx2s27" transform="matrix(1 0 0 1 618.09500000000003 367.39299999999997)"><path id="eu55j24uqx2s28" d="M0,0C-1.790000,-7.753000,-8.482000,-14.852000,-21.545000,-14.852000C-37.167000,-14.852000,-44.248000,-4.814000,-44.248000,7.087000C-44.248000,18.518000,-36.219000,29.001000,-21.497000,29.001000C-5.800000,29.001000,-0.850000,18.831000,-0.227000,13.939000L-11.693000,13.939000C-12.680000,16.707000,-15.091000,20.270000,-21.456000,20.270000C-28.881000,20.270000,-32.563000,14.764000,-32.563000,7.192000C-32.563000,-0.151000,-29.067000,-6.063000,-21.488000,-6.063000C-16.121000,-6.063000,-13.279000,-3.903000,-11.465000,0Z" fill="rgb(202,155,64)" stroke="none" stroke-width="1"/></g><g id="eu55j24uqx2s29" transform="matrix(1 0 0 1 638.95899999999995 376.69499999999999)"><path id="eu55j24uqx2s30" d="M0,0C4.229000,4.270000,13.765000,13.031000,19.426000,18.564000L33.153000,18.564000L15.089000,2.573000L35.031000,-23.021000L21.037000,-23.021000L6.924000,-3.850000L0,-9.682000L0,-23.021000L-11.466000,-23.021000L-11.466000,37.486000L0,37.486000Z" fill="rgb(202,155,64)" stroke="none" stroke-width="1"/></g><g id="eu55j24uqx2s31" transform="matrix(1 0 0 1 708.99099999999999 378.97000000000003)"><path id="eu55j24uqx2s32" d="M0,0C-0.292000,3.731000,-2.291000,9.203000,-10.606000,9.203000C-18.024000,9.203000,-21.059000,4.945000,-21.552000,0ZM-21.715000,-7.264000C-21.342000,-13.221000,-17.148000,-17.754000,-10.226000,-17.754000C-4.776000,-17.754000,-2.041000,-15.876000,-0.300000,-12.857000L11.166000,-12.857000C8.743000,-19.851000,2.609000,-26.429000,-10.453000,-26.429000C-26.805000,-26.429000,-33.147000,-15.265000,-33.147000,-4.579000C-33.147000,7.401000,-25.120000,17.424000,-10.582000,17.424000C5.476000,17.424000,11.700000,6.147000,11.700000,-4.467000C11.700000,-5.406000,11.700000,-6.096000,11.644000,-7.264000Z" fill="rgb(202,155,64)" stroke="none" stroke-width="1"/></g><g id="eu55j24uqx2s33" transform="matrix(1 0 0 1 733.56500000000005 353.67500000000001)"><path id="eu55j24uqx2s34" d="M0,0L0,33.104000L-7.282000,33.104000L-7.282000,41.585000L0,41.585000L0,45.786000C0,55.728000,4.879000,61.099000,15.210000,61.099000C17.235000,61.099000,19.172000,60.993000,20.429000,60.669000L20.429000,52.035000C19.586000,52.188000,18.405000,52.236000,17.498000,52.236000C12.818000,52.236000,11.522000,50.424000,11.522000,45.648000L11.522000,41.585000L20.456000,41.585000L20.456000,33.104000L11.522000,33.104000L11.522000,0Z" fill="rgb(202,155,64)" stroke="none" stroke-width="1"/></g><g id="eu55j24uqx2s35" transform="matrix(1 0 0 1 791.62500000000000 378.97000000000003)"><path id="eu55j24uqx2s36" d="M0,0C-0.292000,3.731000,-2.291000,9.203000,-10.606000,9.203000C-18.024000,9.203000,-21.059000,4.945000,-21.552000,0ZM-21.715000,-7.264000C-21.342000,-13.221000,-17.148000,-17.754000,-10.226000,-17.754000C-4.776000,-17.754000,-2.041000,-15.876000,-0.300000,-12.857000L11.166000,-12.857000C8.742000,-19.851000,2.608000,-26.429000,-10.453000,-26.429000C-26.805000,-26.429000,-33.147000,-15.265000,-33.147000,-4.579000C-33.147000,7.401000,-25.120000,17.424000,-10.582000,17.424000C5.476000,17.424000,11.700000,6.147000,11.700000,-4.467000C11.700000,-5.406000,11.700000,-6.096000,11.643000,-7.264000Z" fill="rgb(202,155,64)" stroke="none" stroke-width="1"/></g><path id="eu55j24uqx2s37" d="M812.772000,414.182000L824.238000,414.182000L824.238000,353.675000L812.772000,353.675000Z" fill="rgb(202,155,64)" stroke="none" stroke-width="1"/><path id="eu55j24uqx2s38" d="M836.994000,414.182000L848.460000,414.182000L848.460000,353.675000L836.994000,353.675000Z" fill="rgb(202,155,64)" stroke="none" stroke-width="1"/><g id="eu55j24uqx2s39" transform="matrix(1 0 0 1 891.35199999999998 378.97000000000003)"><path id="eu55j24uqx2s40" d="M0,0C-0.291000,3.731000,-2.291000,9.203000,-10.606000,9.203000C-18.024000,9.203000,-21.059000,4.945000,-21.553000,0ZM-21.715000,-7.264000C-21.342000,-13.221000,-17.148000,-17.754000,-10.226000,-17.754000C-4.776000,-17.754000,-2.040000,-15.876000,-0.300000,-12.857000L11.165000,-12.857000C8.742000,-19.851000,2.608000,-26.429000,-10.452000,-26.429000C-26.805000,-26.429000,-33.147000,-15.265000,-33.147000,-4.579000C-33.147000,7.401000,-25.120000,17.424000,-10.581000,17.424000C5.477000,17.424000,11.700000,6.147000,11.700000,-4.467000C11.700000,-5.406000,11.700000,-6.096000,11.644000,-7.264000Z" fill="rgb(202,155,64)" stroke="none" stroke-width="1"/></g><g id="eu55j24uqx2s41" transform="matrix(1 0 0 1 912.63699999999994 383.95900000000000)"><path id="eu55j24uqx2s42" d="M0,0C0,3.759000,0,7.542000,-0.081000,11.301000L11.109000,11.301000C11.303000,9.907000,11.466000,5.378000,11.466000,2.658000C13.903000,8.417000,19.281000,12.549000,27.748000,12.378000L27.748000,1.830000C18.294000,1.968000,11.466000,-2.428000,11.466000,-14.409000L11.466000,-30.284000L0,-30.284000Z" fill="rgb(202,155,64)" stroke="none" stroke-width="1"/></g><g id="eu55j24uqx2s43" transform="matrix(1 0 0 1 1028.26999999999998 371.38600000000002)"><path id="eu55j24uqx2s44" d="M0,0C-2.850000,-9.972000,-10.564000,-18.926000,-27.992000,-18.926000C-47.973000,-18.926000,-57.984000,-5.056000,-57.984000,10.821000C-57.984000,26.697000,-46.928000,40.723000,-27.352000,40.723000C-10.151000,40.723000,-1.725000,31.250000,0.130000,21.739000L-12.073000,21.739000C-13.667000,25.890000,-17.244000,31.244000,-27.489000,31.244000C-38.972000,31.244000,-45.303000,22.596000,-45.303000,11.268000C-45.303000,-0.054000,-39.321000,-9.505000,-27.409000,-9.505000C-18.422000,-9.505000,-14.607000,-5.871000,-12.098000,0Z" fill="rgb(202,155,64)" stroke="none" stroke-width="1"/></g><g id="eu55j24uqx2s45" transform="matrix(1 0 0 1 1069.18000000000006 378.97000000000003)"><path id="eu55j24uqx2s46" d="M0,0C-0.291000,3.731000,-2.290000,9.203000,-10.605000,9.203000C-18.023000,9.203000,-21.059000,4.945000,-21.552000,0ZM-21.715000,-7.264000C-21.342000,-13.221000,-17.148000,-17.754000,-10.226000,-17.754000C-4.776000,-17.754000,-2.040000,-15.876000,-0.300000,-12.857000L11.166000,-12.857000C8.743000,-19.851000,2.609000,-26.429000,-10.452000,-26.429000C-26.805000,-26.429000,-33.146000,-15.265000,-33.146000,-4.579000C-33.146000,7.401000,-25.119000,17.424000,-10.581000,17.424000C5.477000,17.424000,11.700000,6.147000,11.700000,-4.467000C11.700000,-5.406000,11.700000,-6.096000,11.644000,-7.264000Z" fill="rgb(202,155,64)" stroke="none" stroke-width="1"/></g><g id="eu55j24uqx2s47" transform="matrix(1 0 0 1 1090.40000000000009 384.76900000000001)"><path id="eu55j24uqx2s48" d="M0,0C0,3.516000,0,7.470000,-0.081000,10.491000L11.109000,10.491000C11.271000,9.236000,11.409000,6.427000,11.466000,4.387000C13.338000,7.618000,17.306000,11.625000,25.665000,11.625000C35.752000,11.625000,41.901000,5.387000,41.901000,-5.549000L41.901000,-31.094000L30.322000,-31.094000L30.322000,-7.430000C30.322000,-2.014000,28.233000,2.562000,21.748000,2.562000C14.817000,2.562000,11.522000,-2.433000,11.522000,-10.604000L11.522000,-31.094000L-0,-31.094000Z" fill="rgb(202,155,64)" stroke="none" stroke-width="1"/></g><g id="eu55j24uqx2s49" transform="matrix(1 0 0 1 1139.28999999999996 395.25999999999999)"><path id="eu55j24uqx2s50" d="M0,0L7.711000,0L7.711000,12.612000L19.233000,12.612000L19.233000,0L29.245000,0L29.245000,-8.480000L19.233000,-8.480000L19.233000,-27.655000C19.233000,-31.582000,20.124000,-33.363000,24.312000,-33.363000C25.470000,-33.363000,26.879000,-33.339000,28.037000,-33.072000L28.037000,-41.058000C25.905000,-41.706000,23.149000,-41.934000,20.297000,-41.934000C10.571000,-41.934000,7.711000,-37.679000,7.711000,-29.545000L7.711000,-8.480000L0,-8.480000Z" fill="rgb(202,155,64)" stroke="none" stroke-width="1"/></g><g id="eu55j24uqx2s51" transform="matrix(1 0 0 1 1207.23000000000002 378.97000000000003)"><path id="eu55j24uqx2s52" d="M0,0C-0.291000,3.731000,-2.290000,9.203000,-10.605000,9.203000C-18.023000,9.203000,-21.059000,4.945000,-21.552000,0ZM-21.715000,-7.264000C-21.342000,-13.221000,-17.148000,-17.754000,-10.226000,-17.754000C-4.776000,-17.754000,-2.040000,-15.876000,-0.300000,-12.857000L11.166000,-12.857000C8.743000,-19.851000,2.609000,-26.429000,-10.452000,-26.429000C-26.805000,-26.429000,-33.146000,-15.265000,-33.146000,-4.579000C-33.146000,7.401000,-25.119000,17.424000,-10.581000,17.424000C5.477000,17.424000,11.700000,6.147000,11.700000,-4.467000C11.700000,-5.406000,11.700000,-6.096000,11.644000,-7.264000Z" fill="rgb(202,155,64)" stroke="none" stroke-width="1"/></g><g id="eu55j24uqx2s53" transform="matrix(1 0 0 1 1228.50999999999999 383.95900000000000)"><path id="eu55j24uqx2s54" d="M0,0C0,3.759000,0,7.542000,-0.081000,11.301000L11.109000,11.301000C11.304000,9.907000,11.466000,5.378000,11.466000,2.658000C13.903000,8.417000,19.281000,12.549000,27.748000,12.378000L27.748000,1.830000C18.294000,1.968000,11.466000,-2.428000,11.466000,-14.409000L11.466000,-30.284000L0,-30.284000Z" fill="rgb(202,155,64)" stroke="none" stroke-width="1"/></g><g id="eu55j24uqx2s55" transform="matrix(1 0 0 1 104.07200000000000 443.21199999999999)"><path id="eu55j24uqx2s56" d="M0,0L0,102.092000L38.662000,102.092000C61.273000,65.526000,68.911000,52.263000,75.494000,39.118000L76.039000,39.118000C75.125000,48.718000,75.168000,67.183000,75.168000,84.072000L75.168000,102.092000L105.043000,102.092000L105.043000,0L68.516000,0C60.556000,14.182000,35.458000,57.647000,29.397000,70.075000L28.902000,70.075000C29.875000,58.407000,29.926000,44.861000,29.926000,24.831000L29.926000,0Z" fill="rgb(202,155,64)" stroke="none" stroke-width="1"/></g><g id="eu55j24uqx2s57" transform="matrix(1 0 0 1 315.57499999999999 483.82799999999997)"><path id="eu55j24uqx2s58" d="M0,0L-54.550000,0L-54.550000,-17.043000L6.437000,-17.043000L2.625000,-40.616000L-87.258000,-40.616000L-87.258000,61.477000L2.895000,61.477000L2.895000,37.853000L-54.550000,37.853000L-54.550000,23.624000L0,23.624000Z" fill="rgb(202,155,64)" stroke="none" stroke-width="1"/></g><g id="eu55j24uqx2s59" transform="matrix(1 0 0 1 352.43099999999998 443.21199999999999)"><path id="eu55j24uqx2s60" d="M0,0L-27.787000,102.092000L6.839000,102.092000C11.429000,79.582000,18.127000,49.306000,20.603000,28.734000L20.900000,28.734000C24.690000,49.494000,31.992000,79.342000,37.802000,102.092000L67.529000,102.092000C73.159000,80.249000,80.566000,49.717000,84.336000,29.554000L84.728000,29.554000C87.631000,51.255000,94.250000,81.232000,98.542000,102.092000L131.344000,102.092000L101.815000,0L67.083000,0C61.461000,21.436000,54.814000,49.575000,50.719000,68.333000L50.421000,68.333000C47.024000,49.738000,40.433000,22.986000,34.587000,0Z" fill="rgb(202,155,64)" stroke="none" stroke-width="1"/></g><g id="eu55j24uqx2s61" transform="matrix(1 0 0 1 517.52099999999996 473.93299999999999)"><path id="eu55j24uqx2s62" d="M0,0C2.146000,-6.752000,7.396000,-11.824000,20.696000,-11.824000C32.486000,-11.824000,36.150000,-8.278000,36.150000,-3.194000C36.150000,2.224000,32.874000,5.402000,13.733000,8.733000C-23.974000,15.332000,-29.400000,28.202000,-29.400000,41.643000C-29.400000,61.831000,-10.396000,73.607000,17.499000,73.607000C51.437000,73.607000,65.079000,57.910000,66.394000,42.812000L34.145000,42.812000C32.991000,47.354000,30.104000,52.577000,17.443000,52.577000C8.458000,52.577000,4.202000,49.654000,4.202000,44.867000C4.202000,40.159000,8.462000,37.946000,24.304000,35.067000C62.883000,28.158000,70.356000,16.044000,70.356000,0.686000C70.356000,-18.791000,53.982000,-32.958000,19.307000,-32.958000C-14.933000,-32.958000,-30.169000,-18.442000,-33.217000,-0Z" fill="rgb(202,155,64)" stroke="none" stroke-width="1"/></g><g id="eu55j24uqx2s63" transform="matrix(1 0 0 1 627.39400000000001 473.93299999999999)"><path id="eu55j24uqx2s64" d="M0,0C2.146000,-6.752000,7.395000,-11.824000,20.696000,-11.824000C32.485000,-11.824000,36.149000,-8.278000,36.149000,-3.194000C36.149000,2.224000,32.874000,5.402000,13.732000,8.733000C-23.975000,15.332000,-29.401000,28.202000,-29.401000,41.643000C-29.401000,61.831000,-10.397000,73.607000,17.498000,73.607000C51.437000,73.607000,65.079000,57.910000,66.394000,42.812000L34.145000,42.812000C32.991000,47.354000,30.104000,52.577000,17.442000,52.577000C8.458000,52.577000,4.202000,49.654000,4.202000,44.867000C4.202000,40.159000,8.462000,37.946000,24.304000,35.067000C62.883000,28.158000,70.355000,16.044000,70.355000,0.686000C70.355000,-18.791000,53.982000,-32.958000,19.306000,-32.958000C-14.933000,-32.958000,-30.169000,-18.442000,-33.218000,-0Z" fill="rgb(202,155,64)" stroke="none" stroke-width="1"/></g><g id="eu55j24uqx2s65" transform="matrix(1 0 0 1 733.40499999999997 521.77400000000000)"><path id="eu55j24uqx2s66" d="M0,0L-33.691000,0L-33.691000,23.530000L66.662000,23.530000L66.662000,0L33.167000,0L33.167000,-78.563000L0,-78.563000Z" fill="rgb(202,155,64)" stroke="none" stroke-width="1"/></g><g id="eu55j24uqx2s67" transform="matrix(1 0 0 1 858.12800000000004 485.87099999999998)"><path id="eu55j24uqx2s68" d="M0,0C-6.662000,18.377000,-10.507000,29.989000,-13.076000,38.533000L-13.578000,38.533000C-15.799000,30.083000,-20.318000,15.599000,-25.749000,0ZM-32.979000,-23.624000L-39.433000,-42.659000L-72.713000,-42.659000L-34.103000,59.434000L9.146000,59.434000L50.290000,-42.659000L14.641000,-42.659000L7.708000,-23.624000Z" fill="rgb(202,155,64)" stroke="none" stroke-width="1"/></g><g id="eu55j24uqx2s69" transform="matrix(1 0 0 1 914.56500000000005 443.21199999999999)"><path id="eu55j24uqx2s70" d="M0,0L0,102.092000L38.662000,102.092000C61.273000,65.526000,68.911000,52.263000,75.494000,39.118000L76.039000,39.118000C75.125000,48.718000,75.168000,67.183000,75.168000,84.072000L75.168000,102.092000L105.044000,102.092000L105.044000,0L68.516000,0C60.555000,14.182000,35.457000,57.647000,29.396000,70.075000L28.902000,70.075000C29.875000,58.407000,29.927000,44.861000,29.927000,24.831000L29.927000,0Z" fill="rgb(202,155,64)" stroke="none" stroke-width="1"/></g><g id="eu55j24uqx2s71" transform="matrix(1 0 0 1 1072.02999999999997 466.16100000000000)"><path id="eu55j24uqx2s72" d="M0,0L14.327000,0C30.773000,0,38.988000,9.914000,38.988000,28.957000C38.988000,44.618000,32.472000,56.101000,14.370000,56.289000L0,56.289000ZM-33.218000,79.144000L18.501000,79.144000C55.333000,79.144000,74.007000,56.594000,74.007000,29.733000C74.007000,-1.805000,50.939000,-22.949000,18.176000,-22.949000L-33.218000,-22.949000Z" fill="rgb(202,155,64)" stroke="none" stroke-width="1"/></g></g><clipPath id="eu55j24uqx2s73"><path id="eu55j24uqx2s74" d="M0,900L1600,900L1600,0L0,0Z" fill="rgb(0,0,0)" stroke="none" stroke-width="1"/></clipPath></g></g></g></svg>
