<?xml version="1.0" encoding="utf-8"?>
<!-- Generator: Adobe Illustrator 24.3.0, SVG Export Plug-In . SVG Version: 6.00 Build 0)  -->
<svg version="1.1" id="Layer_1" xmlns="http://www.w3.org/2000/svg" xmlns:xlink="http://www.w3.org/1999/xlink" x="0px" y="0px"
	 viewBox="0 0 329.34 216" style="enable-background:new 0 0 329.34 216;" xml:space="preserve">
<style type="text/css">
	.st0{fill:#050000;}
	.st1{fill:none;}
</style>
<g>
	<path class="st0" d="M44.51,148.33c-1.9,1.56-3.82,2.29-6.27,2.29c-3.88,0-7.28-2.6-7.28-6.67c0-3.12,2.32-5.14,4.95-6.37
		c-1.07-1.19-1.93-2.53-1.93-4.19c0-3.4,3.09-5.53,6.24-5.53c3.27,0,6.18,2.17,6.18,5.66c0,2.54-1.56,4.31-3.73,5.41l2.26,2.72
		c0.43-0.64,0.7-1.37,0.79-2.14h4.47c-0.18,1.95-1.07,3.88-2.41,5.32l4.59,5.32h-6.33L44.51,148.33z M38.52,141.02
		c-1.07,0.49-2.54,1.56-2.54,2.88c0,1.53,1.47,2.5,2.87,2.5c0.98,0,2.08-0.8,2.91-1.56L38.52,141.02z M42.16,133.22
		c0-1.04-0.76-1.68-1.83-1.68c-0.95,0-1.71,0.7-1.71,1.62c0,1.2,0.86,1.9,1.53,2.76C41.21,135.27,42.16,134.54,42.16,133.22z
		 M76.87,136.13c-0.3-2.2-2.02-3.36-4.4-3.36c-3.67,0-5.08,3.24-5.08,6.48c0,3.24,1.41,6.48,5.08,6.48c2.66,0,4.19-1.53,4.4-4.04
		h5.69c-0.31,5.63-4.43,8.93-9.97,8.93c-6.61,0-10.89-5.05-10.89-11.38c0-6.33,4.28-11.38,10.89-11.38c4.71,0,9.82,2.99,9.97,8.26
		H76.87z M92.34,133.83c4.92,0,8.38,3.64,8.38,8.41s-3.46,8.38-8.38,8.38c-4.93,0-8.35-3.61-8.35-8.38S87.42,133.83,92.34,133.83z
		 M92.34,146.65c2.42,0,3.18-2.39,3.18-4.41c0-2.02-0.76-4.44-3.18-4.44c-2.42,0-3.15,2.42-3.15,4.44
		C89.19,144.26,89.93,146.65,92.34,146.65z M102.83,134.29h5.05v2.17h0.06c0.95-1.59,2.63-2.63,4.56-2.63
		c1.99,0,3.76,0.64,4.62,2.57c1.25-1.69,2.81-2.57,4.95-2.57c5.05,0,5.6,3.82,5.6,6.85v9.48h-5.2v-9.33c0-1.72-0.82-2.73-2.17-2.73
		c-2.23,0-2.45,1.71-2.45,4.28v7.77h-5.2v-9.02c0-1.87-0.55-3.03-1.96-3.03c-1.87,0-2.66,1.07-2.66,4.31v7.74h-5.2V134.29z
		 M130.54,134.29h4.96v1.83h0.06c1.01-1.5,2.54-2.29,4.37-2.29c4.98,0,7.1,4.28,7.1,8.75c0,4.13-2.2,8.04-6.7,8.04
		c-1.96,0-3.46-0.73-4.53-2.17h-0.06v7.03h-5.2V134.29z M135.55,142.06c0,2.78,0.79,4.59,3.15,4.59c2.32,0,3.12-2.42,3.12-4.59
		c0-2.02-0.8-4.25-3.09-4.25C137.33,137.81,135.55,138.79,135.55,142.06z M148.98,139.19c0.09-2.08,1.07-3.42,2.48-4.25
		c1.41-0.79,3.24-1.1,5.05-1.1c3.76,0,7.4,0.83,7.4,5.32v6.94c0,1.35,0,2.81,0.61,4.07h-5.23c-0.18-0.49-0.25-0.98-0.31-1.5
		c-1.35,1.41-3.33,1.96-5.23,1.96c-3.03,0-5.41-1.53-5.41-4.8c0-5.17,5.63-4.77,9.24-5.51c0.89-0.18,1.38-0.49,1.38-1.47
		c0-1.19-1.44-1.65-2.51-1.65c-1.44,0-2.36,0.64-2.6,1.99H148.98z M155.71,147.41c2.48,0,3.3-1.41,3.18-4.68
		c-0.73,0.46-2.08,0.55-3.21,0.86c-1.16,0.28-2.14,0.76-2.14,2.02C153.54,146.89,154.54,147.41,155.71,147.41z M166.72,134.29h5.05
		v2.17h0.06c0.95-1.62,3.09-2.63,4.98-2.63c5.29,0,5.72,3.85,5.72,6.15v10.18h-5.2v-7.68c0-2.17,0.25-4.37-2.6-4.37
		c-1.96,0-2.81,1.65-2.81,3.4v8.65h-5.2V134.29z M194.03,151.57c-1.25,3.49-3.12,3.91-6.64,3.91h-2.45v-4.22h1.81
		c1.19,0,2.08-0.67,2.08-1.77c0-0.86-1.01-3.3-1.32-4.16l-4.1-11.04h5.5l3,10.34h0.06l3-10.34h5.32L194.03,151.57z M31.67,167.89
		h5.05v2.17h0.06c0.95-1.62,3.09-2.63,4.99-2.63c5.29,0,5.72,3.86,5.72,6.15v10.19h-5.2v-7.68c0-2.17,0.25-4.37-2.6-4.37
		c-1.95,0-2.81,1.65-2.81,3.39v8.66h-5.2V167.89z M58.98,185.17c-1.25,3.49-3.12,3.92-6.64,3.92H49.9v-4.22h1.8
		c1.19,0,2.08-0.67,2.08-1.77c0-0.86-1.01-3.31-1.31-4.16l-4.1-11.04h5.51l3,10.33h0.06l3-10.33h5.32L58.98,185.17z M76.47,173.7
		c-0.03-1.35-1.22-2.3-2.54-2.3c-2.91,0-3.36,2.48-3.36,4.68c0,2.05,0.89,4.16,3.09,4.16c1.81,0,2.72-1.04,2.97-2.72h5.05
		c-0.46,4.25-3.76,6.7-7.98,6.7c-4.77,0-8.32-3.27-8.32-8.14c0-5.05,3.21-8.66,8.32-8.66c3.95,0,7.46,2.08,7.83,6.27H76.47z
		 M99.01,181.83c0,2.6-0.49,7.5-7.92,7.5c-3.7,0-7.19-0.83-7.8-5.08h5.2c0.12,0.71,0.4,1.13,0.89,1.38c0.46,0.24,1.1,0.34,1.89,0.34
		c2.48,0,2.72-1.74,2.72-3.7v-1.5h-0.06c-0.95,1.47-2.54,2.32-4.22,2.32c-4.8,0-6.97-3.43-6.97-7.89c0-4.22,2.47-7.77,6.97-7.77
		c1.9,0,3.33,0.83,4.25,2.45h0.06v-1.98h4.99V181.83z M90.96,171.4c-2.29,0-3.03,2.02-3.03,3.98c0,1.87,0.85,3.73,2.99,3.73
		c2.2,0,3.15-1.72,3.15-3.7C94.09,173.39,93.29,171.4,90.96,171.4z M109.31,167.42c4.93,0,8.38,3.64,8.38,8.41
		c0,4.77-3.46,8.38-8.38,8.38c-4.92,0-8.35-3.61-8.35-8.38C100.96,171.07,104.39,167.42,109.31,167.42z M109.31,180.24
		c2.42,0,3.18-2.39,3.18-4.4c0-2.02-0.77-4.44-3.18-4.44c-2.41,0-3.15,2.42-3.15,4.44C106.16,177.86,106.9,180.24,109.31,180.24z
		 M120.05,178.07h5.69v5.69h-5.69V178.07z M139.19,173.7c-0.03-1.35-1.22-2.3-2.54-2.3c-2.9,0-3.36,2.48-3.36,4.68
		c0,2.05,0.89,4.16,3.09,4.16c1.81,0,2.72-1.04,2.97-2.72h5.05c-0.46,4.25-3.76,6.7-7.98,6.7c-4.77,0-8.32-3.27-8.32-8.14
		c0-5.05,3.21-8.66,8.32-8.66c3.95,0,7.46,2.08,7.83,6.27H139.19z M153.96,167.42c4.92,0,8.38,3.64,8.38,8.41
		c0,4.77-3.46,8.38-8.38,8.38c-4.93,0-8.35-3.61-8.35-8.38C145.61,171.07,149.04,167.42,153.96,167.42z M153.96,180.24
		c2.41,0,3.18-2.39,3.18-4.4c0-2.02-0.77-4.44-3.18-4.44c-2.42,0-3.15,2.42-3.15,4.44C150.81,177.86,151.55,180.24,153.96,180.24z
		 M164.45,167.89h5.05v2.17h0.06c0.95-1.59,2.63-2.63,4.56-2.63c1.99,0,3.76,0.64,4.62,2.57c1.25-1.68,2.81-2.57,4.95-2.57
		c5.05,0,5.6,3.83,5.6,6.85v9.48h-5.2v-9.33c0-1.71-0.83-2.72-2.17-2.72c-2.23,0-2.45,1.71-2.45,4.28v7.77h-5.2v-9.03
		c0-1.86-0.55-3.02-1.96-3.02c-1.86,0-2.66,1.07-2.66,4.31v7.74h-5.2V167.89z"/>
	<path class="st0" d="M292.75,67.09l5.55-5.48V44.97l-16.64-16.64h-55.47l-16.64,16.64V33.88l-5.55-5.55h-22.19l-5.55,5.55v11.09
		l-11.09,11.09l-11.09-11.09V33.88l-5.55-5.55h-22.19l-5.55,5.55l-5.55-5.55H93.08l-5.55,5.55v22.19L59.8,28.33H37.61l-5.55,5.55
		v77.65l5.55,5.55H59.8l5.55-5.55V89.34l27.73,27.73h22.18l5.55-5.55V67.16l27.73,27.73v16.64l5.55,5.55h22.19l5.55-5.55V94.89
		l27.73-27.73v33.28l16.64,16.64h55.47l16.64-16.64V83.8l-5.55-5.55h-27.73v5.55h-22.19V61.61h22.19v5.48H292.75z M289.91,33.06
		h0.94v-3.93h1.54v-0.79h-4.02v0.79h1.54V33.06z M294.05,29.25l1.32,3.81h0.75l1.3-3.81v3.81h0.87v-4.72h-1.36l-1.2,3.38l-1.2-3.38
		h-1.35v4.72h0.87V29.25z"/>
</g>
<rect x="-0.52" y="-0.29" class="st1" width="329.39" height="215.78"/>
</svg>
