<?xml version="1.0" encoding="UTF-8"?>
<svg width="259px" height="113px" viewBox="0 0 259 113" version="1.1" xmlns="http://www.w3.org/2000/svg" xmlns:xlink="http://www.w3.org/1999/xlink">
    <g stroke="none" stroke-width="1" fill="none" fill-rule="evenodd">
        <g fill="#000000" fill-rule="nonzero">
            <g>
                <g transform="translate(69.000000, 104.000000)">
                    <path d="M4.62,8.33 C2.46,8.33 0.68,6.55 0.68,4.37 C0.68,2.18 2.46,0.4 4.62,0.4 C6.78,0.4 8.56,2.18 8.56,4.37 C8.56,6.55 6.78,8.33 4.62,8.33 Z M4.62,1.33 C2.99,1.33 1.68,2.7 1.68,4.37 C1.68,6.03 2.98,7.4 4.62,7.4 C6.25,7.4 7.56,6.03 7.56,4.37 C7.56,2.7 6.25,1.33 4.62,1.33 Z"></path>
                    <path d="M10.99,0.53 L13.38,0.53 C14.79,0.53 15.77,1.3 15.77,2.56 C15.77,3.28 15.45,3.84 14.85,4.13 C15.74,4.43 16.23,5.11 16.23,6.03 C16.23,7.4 15.2,8.21 13.61,8.21 L10.99,8.21 L10.99,0.53 L10.99,0.53 Z M13.37,3.81 C14.23,3.81 14.81,3.36 14.81,2.6 C14.81,1.83 14.23,1.39 13.36,1.39 L11.97,1.39 L11.97,3.8 L13.37,3.8 L13.37,3.81 Z M13.6,7.34 C14.6,7.34 15.25,6.85 15.25,5.99 C15.25,5.17 14.58,4.65 13.58,4.65 L11.97,4.65 L11.97,7.34 L13.6,7.34 Z"></path>
                    <path d="M19.22,6.04 C19.51,6.84 20.1,7.41 20.98,7.41 C21.76,7.41 22.42,6.95 22.42,6.15 C22.42,5.54 22.05,5.14 21.28,4.86 L20.38,4.52 C19.24,4.09 18.63,3.46 18.63,2.46 C18.63,1.2 19.63,0.41 20.88,0.41 C21.97,0.41 22.82,1.06 23.21,2.13 L22.32,2.5 C22.08,1.84 21.61,1.33 20.87,1.33 C20.17,1.33 19.62,1.76 19.62,2.4 C19.62,2.95 20,3.32 20.78,3.62 L21.67,3.96 C22.84,4.41 23.42,5.08 23.42,6.09 C23.42,7.48 22.32,8.34 20.95,8.34 C19.66,8.34 18.69,7.61 18.32,6.38 L19.22,6.04 Z"></path>
                    <polygon points="25.97 0.53 30.24 0.53 30.24 1.43 26.95 1.43 26.95 3.78 30.01 3.78 30.01 4.67 26.95 4.67 26.95 7.31 30.26 7.31 30.26 8.21 25.97 8.21 25.97 0.53"></polygon>
                    <path d="M34.05,8.21 L33.07,8.21 L33.07,0.53 L35.32,0.53 C36.77,0.53 37.79,1.33 37.79,2.75 C37.79,3.93 37,4.71 35.88,4.91 L38.29,8.21 L37.14,8.21 L34.79,4.95 L34.04,4.95 L34.04,8.21 L34.05,8.21 Z M34.05,4.09 L35.31,4.09 C36.19,4.09 36.8,3.6 36.8,2.75 C36.8,1.89 36.19,1.43 35.31,1.43 L34.05,1.43 L34.05,4.09 Z"></path>
                    <polygon points="42.32 8.21 39.33 0.53 40.36 0.53 42.66 6.57 44.95 0.53 45.96 0.53 42.98 8.21"></polygon>
                    <path d="M50.16,0.53 L53.32,8.21 L52.29,8.21 L51.39,5.98 L48.13,5.98 L47.23,8.21 L46.22,8.21 L49.39,0.53 L50.16,0.53 Z M48.49,5.1 L51.05,5.1 L49.77,1.91 L48.49,5.1 Z"></path>
                    <polygon points="53.73 0.53 59.19 0.53 59.19 1.43 56.95 1.43 56.95 8.21 55.96 8.21 55.96 1.43 53.72 1.43 53.72 0.53"></polygon>
                    <polygon points="62.25 0.53 62.25 8.21 61.27 8.21 61.27 0.53"></polygon>
                    <path d="M68.62,8.33 C66.46,8.33 64.68,6.55 64.68,4.37 C64.68,2.18 66.46,0.4 68.62,0.4 C70.78,0.4 72.56,2.18 72.56,4.37 C72.56,6.55 70.78,8.33 68.62,8.33 Z M68.62,1.33 C66.99,1.33 65.68,2.7 65.68,4.37 C65.68,6.03 66.99,7.4 68.62,7.4 C70.25,7.4 71.56,6.03 71.56,4.37 C71.56,2.7 70.25,1.33 68.62,1.33 Z"></path>
                    <polygon points="81.52 0.53 81.52 8.21 80.6 8.21 75.94 2.01 75.94 8.21 75 8.21 75 0.53 76 0.53 80.58 6.65 80.58 0.53"></polygon>
                    <path d="M90.36,8.21 L87.94,8.21 L87.94,0.53 L90.36,0.53 C92.49,0.53 94.18,2.19 94.18,4.37 C94.17,6.55 92.48,8.21 90.36,8.21 Z M90.33,1.44 L88.9,1.44 L88.9,7.3 L90.33,7.3 C91.96,7.3 93.16,6.02 93.16,4.37 C93.16,2.73 91.97,1.44 90.33,1.44 Z"></path>
                    <polygon points="96.15 0.53 100.42 0.53 100.42 1.43 97.13 1.43 97.13 3.78 100.19 3.78 100.19 4.67 97.13 4.67 97.13 7.31 100.44 7.31 100.44 8.21 96.15 8.21 96.15 0.53"></polygon>
                    <path d="M105.86,0.4 C106.67,0.4 107.43,0.64 108.11,1.09 L108.11,2.18 C107.36,1.62 106.63,1.35 105.84,1.35 C104.22,1.35 102.94,2.68 102.94,4.38 C102.94,6.06 104.21,7.4 105.84,7.4 C106.62,7.4 107.39,7.13 108.13,6.59 L108.13,7.68 C107.41,8.13 106.65,8.35 105.85,8.35 C103.66,8.35 101.93,6.61 101.93,4.39 C101.94,2.14 103.66,0.4 105.86,0.4 Z"></path>
                    <polygon points="111.17 3.83 114.38 0.53 115.61 0.53 112.24 3.99 115.87 8.21 114.63 8.21 111.59 4.63 111.16 5.07 111.16 8.21 110.18 8.21 110.18 0.53 111.16 0.53 111.16 3.83"></polygon>
                </g>
                <g transform="translate(0.000000, 72.000000)">
                    <polygon points="140.84 8.96 132.14 8.96 132.14 0.54 129.93 0.54 129.93 22.39 132.14 22.39 132.14 10.94 140.84 10.94 140.84 22.39 143.06 22.39 143.06 0.54 140.84 0.54"></polygon>
                    <path d="M26.43,0.25 C20.11,0.25 15.16,5.19 15.16,11.49 C15.16,17.76 20.09,22.68 26.38,22.68 C32.7,22.68 37.65,17.74 37.65,11.44 C37.65,5.17 32.72,0.25 26.43,0.25 Z M26.38,2.27 C31.51,2.27 35.38,6.24 35.38,11.5 C35.38,16.73 31.54,20.67 26.44,20.67 C21.31,20.67 17.4399806,16.7 17.4399806,11.44 C17.43,6.21 21.28,2.27 26.38,2.27 Z"></path>
                    <path d="M46.16,0.54 L42.17,0.54 L42.17,22.39 L44.39,22.39 L44.39,15.56 L45.78,15.56 C49.91,15.56 54.74,13.55 54.74,7.9 C54.74,3.57 51.21,0.54 46.16,0.54 Z M44.39,2.53 L46.04,2.53 C49.94,2.53 52.47,4.67 52.47,7.97 C52.47,12.11 49.17,13.59 46.07,13.59 L44.39,13.59 L44.39,2.53 L44.39,2.53 Z"></path>
                    <path d="M76.56,0.25 C70.24,0.25 65.29,5.19 65.29,11.49 C65.29,17.76 70.22,22.68 76.51,22.68 C82.83,22.68 87.78,17.74 87.78,11.44 C87.77,5.17 82.84,0.25 76.56,0.25 Z M76.5,2.27 C81.63,2.27 85.5,6.24 85.5,11.5 C85.5,16.73 81.66,20.67 76.56,20.67 C71.43,20.67 67.56,16.7 67.56,11.44 C67.56,6.21 71.4,2.27 76.5,2.27 Z"></path>
                    <polygon points="249.32 0.54 246.59 0.54 238.04 11.5 238.04 0.54 235.83 0.54 235.83 22.39 238.04 22.39 238.04 14.44 246.93 22.39 250.2 22.39 239.51 12.94"></polygon>
                    <path d="M183.8,7.85 C183.8,3.55 180.27,0.54 175.22,0.54 L170.8,0.54 L170.8,22.39 L173.02,22.39 L173.02,15.74 L181.35,22.39 L184.78,22.39 L175.83,15.36 C180.7,15.02 183.8,12.14 183.8,7.85 Z M173.01,2.53 L175.1,2.53 C179,2.53 181.53,4.64 181.53,7.92 C181.53,12.02 178.15,13.48 174.99,13.48 L173.02,13.48 L173.02,2.53 L173.01,2.53 Z"></path>
                    <path d="M198.4,0.25 C192.08,0.25 187.13,5.19 187.13,11.49 C187.13,17.76 192.06,22.68 198.35,22.68 C204.67,22.68 209.62,17.74 209.62,11.44 C209.61,5.17 204.69,0.25 198.4,0.25 Z M198.34,2.27 C203.47,2.27 207.34,6.24 207.34,11.5 C207.34,16.73 203.5,20.67 198.4,20.67 C193.27,20.67 189.4,16.7 189.4,11.44 C189.4,6.21 193.24,2.27 198.34,2.27 Z"></path>
                    <path d="M230.39,18.2 C228.73,19.42 226.66,20.67 223.9,20.67 C219.02,20.67 215.33,16.66 215.33,11.35 C215.33,6.26 219.03,2.26 223.75,2.26 C226.03,2.26 227.9,2.94 230,4.53 L230.42,4.85 L231.65,3.11 L231.25,2.81 C228.99,1.09 226.55,0.25 223.79,0.25 C217.86,0.25 213.04,5.25 213.04,11.41 C213.04,17.73 217.78,22.68 223.82,22.68 C226.68,22.68 229.15,21.77 231.57,19.82 L231.95,19.52 L230.79,17.89 L230.39,18.2 Z"></path>
                    <polygon points="92.29 22.39 94.51 22.39 94.51 11.09 101.27 11.09 101.27 9.1 94.51 9.1 94.51 2.53 101.27 2.53 101.27 0.54 92.29 0.54"></polygon>
                    <polygon points="0.76 2.53 6.08 2.53 6.08 22.39 8.29 22.39 8.29 2.53 13.61 2.53 13.61 0.54 0.76 0.54"></polygon>
                    <polygon points="112.14 2.53 117.46 2.53 117.46 22.39 119.67 22.39 119.67 2.53 124.99 2.53 124.99 0.54 112.14 0.54"></polygon>
                    <polygon points="150.98 10.94 158.12 10.94 158.12 8.96 150.98 8.96 150.98 2.53 158.23 2.53 158.23 0.54 148.77 0.54 148.77 22.39 158.29 22.39 158.29 20.41 150.98 20.41"></polygon>
                </g>
                <path d="M124.42,50.69 L126.63,50.69 L126.63,0.03 L124.42,0.03 L124.42,50.69 Z M133.07,9.51 L133.07,50.69 L135.29,50.69 L135.29,9.51 L133.07,9.51 Z M115.75,50.69 L117.96,50.69 L117.96,9.51 L115.75,9.51 L115.75,50.69 Z"></path>
                <path d="M254.52,75.84 L254.52,74.33 L255.17,74.33 C255.83,74.33 256.14,74.56 256.14,75.07 C256.14,75.53 255.83,75.82 255.2,75.82 L254.52,75.84 Z M254.52,76.31 L255.37,76.27 L256.25,77.69 L256.87,77.69 L255.91,76.15 C256.37,75.97 256.67,75.6 256.67,75.04 C256.67,74.32 256.17,73.87 255.21,73.87 L253.98,73.87 L253.98,77.69 L254.52,77.69 L254.52,76.31 L254.52,76.31 Z M258.47,75.82 C258.47,77.59 257.04,79.04 255.26,79.04 C253.47,79.04 252.03,77.58 252.03,75.82 C252.03,74.04 253.47,72.56 255.26,72.56 C257.04,72.56 258.47,74.04 258.47,75.82 M255.26,79.33 C257.21,79.33 258.78,77.75 258.78,75.82 C258.78,73.86 257.2,72.27 255.26,72.27 C253.3,72.27 251.72,73.86 251.72,75.82 C251.73,77.76 253.3,79.33 255.26,79.33"></path>
            </g>
        </g>
    </g>
</svg>