<?xml version="1.0" encoding="UTF-8"?>
<svg width="159px" height="90px" viewBox="0 0 159 90" version="1.1" xmlns="http://www.w3.org/2000/svg" xmlns:xlink="http://www.w3.org/1999/xlink">
    <g stroke="none" stroke-width="1" fill="none" fill-rule="evenodd">
        <g fill="#000000" fill-rule="nonzero">
            <g>
                <path d="M8.27,76.74 C3.96,76.74 0.96,80.27 0.96,85.32 L0.96,89.75 L22.8,89.75 L22.8,87.51 L16.17,87.51 L22.8,79.21 L22.8,75.74 L15.77,84.68 C15.42,79.83 12.55,76.74 8.27,76.74 Z M13.86,87.52 L2.96,87.52 L2.96,85.45 C2.96,81.56 5.07,79.05 8.33,79.05 C12.41,79.05 13.87,82.42 13.87,85.57 L13.87,87.52 L13.86,87.52 Z"></path>
                <rect transform="translate(18.335829, 50.485739) rotate(-64.664998) translate(-18.335829, -50.485739) " x="17.2158554" y="39.5609971" width="2.23994719" height="21.8494849"></rect>
                <path d="M38.95,22.88 C39.64,21.11 39.35,19.31 38.11,17.87 C36.17,15.62 33.06,15.66 30.37,17.97 L26.97,20.9 L41.24,37.45 L44.11,34.98 C47.81,31.79 48.44,27.87 45.75,24.75 C44.02,22.74 41.51,22.08 38.95,22.88 Z M36.41,19.41 C37.09,20.2 37.35,21.09 37.16,22.04 C36.97,22.97 36.37,23.9 35.42,24.72 L34.16,25.81 L29.98,20.96 L31.66,19.51 C33,18.35 34.95,17.72 36.41,19.41 Z M41.66,34.51 L35.46,27.32 L36.48,26.44 C37.87,25.24 39.33,24.62 40.68,24.63 C41.95,24.64 43.11,25.22 44.04,26.29 C45.01,27.41 45.4,28.6 45.21,29.83 C45.02,31.05 44.24,32.28 42.96,33.39 L41.66,34.51 Z"></path>
                <path d="M53.29,4.86 C47.35,7.03 44.4,13.37 46.56,19.29 C48.29,24.02 52.7,26.84 57.43,26.65 C58.59,26.6 59.77,26.38 60.93,25.95 C66.87,23.78 69.82,17.44 67.66,11.52 C65.51,5.63 59.2,2.7 53.29,4.86 Z M48.7,18.44 C46.91,13.54 49.16,8.53 53.94,6.79 C58.75,5.04 63.73,7.43 65.53,12.36 C66.38,14.69 66.33,17.17 65.37,19.32 C64.41,21.5 62.6,23.16 60.29,24.01 C55.48,25.77 50.5,23.37 48.7,18.44 Z"></path>
                <path d="M120.23,21.25 C122.46,17.57 121.01,13.17 116.69,10.54 L112.91,8.24 L101.57,26.92 L103.48,28.08 L106.92,22.41 L110.58,32.38 L113.54,34.18 L109.54,23.53 C113.89,25.77 118.01,24.92 120.23,21.25 Z M109.79,21.46 L108.12,20.44 L113.78,11.12 L115.55,12.2 C118.88,14.22 119.93,17.33 118.24,20.11 C117.34,21.59 116.06,22.48 114.54,22.68 C113.08,22.89 111.44,22.46 109.79,21.46 Z"></path>
                <path d="M140.45,34.75 C140.6,31.81 139.54,28.93 137.48,26.66 C135.44,24.41 132.67,23.08 129.68,22.93 C126.69,22.79 123.82,23.82 121.58,25.85 C116.93,30.06 116.59,37.01 120.81,41.67 C123.09,44.19 126.17,45.46 129.26,45.43 C131.91,45.41 134.56,44.43 136.71,42.48 C138.98,40.43 140.31,37.69 140.45,34.75 Z M120.01,33.8 C120.17,31.44 121.29,29.21 123.16,27.51 C124.98,25.86 127.17,25.03 129.32,25.01 C131.74,24.99 134.12,25.98 135.93,27.98 C139.36,31.77 139.02,37.29 135.13,40.82 C133.29,42.49 130.97,43.38 128.62,43.29 C126.24,43.22 124.02,42.17 122.36,40.35 C120.69,38.5 119.85,36.17 120.01,33.8 Z"></path>
                <path d="M146.22,66.91 C152.11,64.76 155.03,58.44 152.87,52.54 C150.7,46.6 144.36,43.65 138.44,45.81 C132.55,47.96 129.63,54.28 131.78,60.18 C133.48,64.83 137.74,67.65 142.36,67.61 C143.64,67.61 144.94,67.38 146.22,66.91 Z M134,52.59 C135.03,50.46 136.91,48.82 139.29,47.95 C140.4,47.55 141.51,47.35 142.59,47.34 C146.29,47.31 149.6,49.49 150.95,53.19 C151.81,55.53 151.71,58 150.67,60.14 C149.64,62.27 147.76,63.91 145.38,64.78 C143.05,65.63 140.57,65.58 138.41,64.62 C136.23,63.66 134.56,61.85 133.72,59.54 C132.86,57.19 132.96,54.73 134,52.59 Z"></path>
                <polygon points="96.52 1.88 89.2 18.47 83.83 0.29 76.24 17.69 71.14 0.38 68.81 0.25 75.65 22.91 75.81 23.44 76.04 22.94 83.4 6.19 88.53 23.32 88.8 24.21 89.18 23.35 98.73 2.01"></polygon>
                <polygon points="145.04 80.57 158.7 71.45 135.89 71.45 135.89 73.62 151.54 73.62 141.26 80.57 151.54 87.51 135.89 87.51 135.89 89.74 158.7 89.74"></polygon>
                <polygon points="31.92 38.13 12.01 37.31 30.45 50.74 31.71 49.01 18.93 39.7 38.84 40.52 20.46 27.13 19.2 28.86"></polygon>
                <path d="M2.75,60.95 L22.88,74.69 L23.41,72.51 L18.38,69.1 L20.32,61.16 L26.34,60.53 L26.89,58.27 L2.75,60.95 Z M16.61,67.9 L8.51,62.41 L18.21,61.37 L16.61,67.9 Z"></path>
            </g>
        </g>
    </g>
</svg>