<svg width="67" height="64">
  <g fill="none" fill-rule="evenodd">
    <circle stroke="#BEB1D7" stroke-width="3" cx="34.1811" cy="31.8506" r="30.3506"/>
    <path fill="#FFF" style="fill: #FFF;" d="M0 13.2063h10.8758v17.0906H0z"/>
    <path stroke="#BEB1D7" stroke-width="3" d="M23.454 12.6978l-12.9666 1.484L5.2893 2.2104"/>
    <path d="M40.3033 11.6403l3.6963 3.6972C43.3698 16.232 43 17.3228 43 18.5c0 3.0376 2.4624 5.5 5.5 5.5 1.1771 0 2.2679-.3698 3.1624-.9995l3.4901 3.489-26.163 26.163-3.4358-3.4353C26.4518 48.2383 27 46.9332 27 45.5c0-3.0376-2.4624-5.5-5.5-5.5-1.4327 0-2.7374.5478-3.7162 1.4453l-3.6434-3.642 26.1629-26.163z" stroke="#C1B0DA" stroke-width="3"/>
    <path stroke="#C1B0DA" stroke-width="3" d="M32 21l9.3718 8.747L47 35"/>
  </g>
</svg>
