<svg
   width="11mm"
   height="5mm"
   viewBox="0 0 23.812502 10.51461"
   version="1.1"
   id="svg1008"
   >
  <defs
     id="defs1002" />
  <metadata
     id="metadata1005">
  </metadata>
  <g
     id="layer1"
     transform="translate(30.049108,-188.93317)">
    <path
       style="fill:#ff462d;stroke-width:0.30925328"
       d="M -30.049108,199.44778 H -6.2366066 V 188.93317 H -30.049108 Z m 6.605093,-3.33008 c -1.00178,0 -1.816498,-0.64405 -2.081809,-1.55015 h -0.226781 v 1.48138 h -0.905967 V 192.016 h 1.5284 c 0.238257,0 0.447773,0.0333 0.628583,0.0999 0.180711,0.0664 0.331853,0.15718 0.452967,0.27213 0.121278,0.11482 0.211666,0.24905 0.271098,0.40199 0.05957,0.15314 0.08946,0.31662 0.08946,0.48967 0,0.26206 -0.05851,0.49087 -0.175715,0.68641 -0.117012,0.19555 -0.282344,0.33391 -0.496094,0.45098 -0.06869,0.0406 -0.146679,0.0776 -0.25539,0.10607 0.209153,0.4427 0.631627,0.73448 1.171245,0.73448 z m 4.594256,-0.0656 h -2.868049 v -4.03485 h 2.736056 v 0.79851 h -1.829859 v 0.78645 h 1.377719 v 0.77413 h -1.377719 v 0.87122 h 1.961852 z m 2.911079,-2.67998 c 0.146546,0.0851 0.348059,0.15612 0.604507,0.2127 0.150647,0.0366 0.298251,0.086 0.44268,0.1488 0.144661,0.0629 0.273811,0.14487 0.387979,0.2462 0.113804,0.1012 0.205383,0.22595 0.274902,0.3738 0.06899,0.14771 0.103617,0.32692 0.103617,0.5374 0,0.18226 -0.04078,0.35061 -0.122204,0.50445 -0.08152,0.15414 -0.192154,0.28754 -0.332747,0.40106 -0.140427,0.11352 -0.305395,0.20171 -0.494704,0.26441 -0.189343,0.0626 -0.393799,0.094 -0.613701,0.094 -0.20363,0 -0.388706,-0.0193 -0.555692,-0.0577 -0.166852,-0.0385 -0.317532,-0.0889 -0.451908,-0.15188 -0.134276,-0.0626 -0.255389,-0.13456 -0.363273,-0.21565 -0.108016,-0.0808 -0.200554,-0.16394 -0.278077,-0.24891 l 0.592535,-0.63828 c 0.05282,0.0569 0.115126,0.11472 0.186134,0.17342 0.07117,0.0586 0.150548,0.11223 0.238224,0.16076 0.08761,0.0489 0.183224,0.0882 0.287073,0.11846 0.10365,0.0305 0.21471,0.0458 0.332813,0.0458 0.06912,0 0.138377,-0.0102 0.207632,-0.0305 0.06912,-0.0201 0.132357,-0.0495 0.189309,-0.088 0.05695,-0.0386 0.102923,-0.085 0.137583,-0.13979 0.03436,-0.0546 0.05173,-0.11634 0.05173,-0.18515 0,-0.14983 -0.07302,-0.26633 -0.219901,-0.34941 -0.146679,-0.0831 -0.37852,-0.165 -0.696186,-0.24606 -0.154847,-0.0366 -0.298053,-0.0893 -0.430543,-0.15805 -0.132258,-0.0689 -0.246161,-0.15198 -0.341874,-0.24927 -0.09575,-0.0972 -0.170061,-0.20847 -0.222912,-0.33418 -0.05292,-0.12532 -0.07951,-0.26511 -0.07951,-0.41925 0,-0.16997 0.03063,-0.32987 0.09168,-0.47997 0.06099,-0.14986 0.153657,-0.28243 0.277746,-0.39807 0.124222,-0.11532 0.279004,-0.20645 0.46408,-0.2732 0.185439,-0.067 0.404051,-0.1004 0.656729,-0.1004 0.207631,0 0.390789,0.0213 0.549407,0.0639 0.158816,0.0426 0.29425,0.0932 0.406168,0.15175 0.112018,0.0587 0.203465,0.11969 0.274869,0.18243 0.07114,0.0627 0.125148,0.11243 0.161892,0.14864 l -0.531316,0.58345 c -0.04505,-0.0364 -0.09677,-0.0759 -0.155741,-0.11849 -0.05897,-0.0425 -0.125148,-0.0819 -0.198536,-0.1185 -0.07303,-0.0364 -0.153657,-0.0669 -0.24097,-0.0911 -0.08784,-0.0242 -0.180446,-0.0365 -0.278077,-0.0365 -0.06512,0 -0.129315,0.0101 -0.192385,0.0305 -0.06324,0.0202 -0.12022,0.0477 -0.17102,0.0819 -0.0508,0.0346 -0.09158,0.0752 -0.122072,0.12171 -0.03059,0.0466 -0.04597,0.0961 -0.04597,0.1488 0,0.13764 0.07352,0.24891 0.220034,0.33415 z m 6.8559494,-1.35487 -1.4264684,2.3411 v 1.69375 h -0.932821 v -1.68782 l -1.426501,-2.34703 h 1.042425 l 0.884105,1.52447 0.8594,-1.52447 z m -15.6678644,1.69752 c 0.09859,-0.1007 0.147836,-0.22774 0.147836,-0.38088 0,-0.16537 -0.04925,-0.29641 -0.147836,-0.39324 -0.09856,-0.0967 -0.234223,-0.145 -0.406764,-0.145 h -0.555559 v 1.07028 h 0.555559 c 0.172541,0 0.308206,-0.0504 0.406764,-0.15116 z"
       id="path979" />
  </g>
</svg>
