<?xml version="1.0" encoding="UTF-8"?>
<svg width="152px" height="43px" viewBox="0 0 152 43" version="1.1" xmlns="http://www.w3.org/2000/svg" xmlns:xlink="http://www.w3.org/1999/xlink">
    <g stroke="none" stroke-width="1" fill="none" fill-rule="evenodd">
        <g fill="#000000" fill-rule="nonzero">
            <g transform="translate(0.000000, -1.000000)">
                <path d="M135.89,23.64 L125.21,14.19 L135.02,1.8 L132.29,1.8 L123.75,12.76 L123.75,1.8 L121.53,1.8 L121.53,23.64 L114.96,23.64 L114.96,1.79 L112.83,1.79 L112.83,17.44 L101.83,0.95 L101.83,23.63 L95.36,23.63 L95.36,1.8 L93.14,1.8 L93.14,23.64 L88.84,23.64 L79.9,16.62 C84.78,16.28 87.88,13.41 87.88,9.11 C87.88,4.81 84.35,1.8 79.3,1.8 L74.88,1.8 L74.88,23.64 L60.62,23.64 L60.62,21.66 L53.31,21.66 L53.31,12.19 L60.44,12.19 L60.44,10.21 L53.31,10.21 L53.31,3.78 L60.56,3.78 L60.56,1.8 L51.1,1.8 L51.1,23.64 L45.38,23.64 L45.38,1.8 L43.16,1.8 L43.16,10.22 L34.46,10.22 L34.46,1.8 L32.24,1.8 L32.24,23.64 L21.99,23.64 L21.99,3.78 L27.3,3.78 L27.3,1.8 L14.46,1.8 L14.46,3.78 L19.77,3.78 L19.77,23.64 L0.11,23.64 L0.11,25.84 L151.09,25.84 L151.09,23.64 L135.89,23.64 Z M123.75,15.69 L132.64,23.63 L123.75,23.63 L123.75,15.69 Z M103.97,7.92 L114.45,23.64 L103.97,23.64 L103.97,7.92 Z M77.1,3.78 L79.19,3.78 C83.09,3.78 85.61,5.89 85.61,9.17 C85.61,13.27 82.23,14.73 79.07,14.73 L77.1,14.73 L77.1,3.78 Z M77.1,17 L85.42,23.64 L77.1,23.64 L77.1,17 Z M34.46,12.2 L43.16,12.2 L43.16,23.64 L34.46,23.64 L34.46,12.2 Z"></path>
                <g transform="translate(15.000000, 35.000000)">
                    <path d="M1.78,8.65 L0.8,8.65 L0.8,0.97 L3.05,0.97 C4.5,0.97 5.52,1.77 5.52,3.19 C5.52,4.37 4.73,5.15 3.61,5.35 L6.02,8.65 L4.87,8.65 L2.52,5.39 L1.77,5.39 L1.77,8.65 L1.78,8.65 Z M1.78,4.52 L3.04,4.52 C3.92,4.52 4.53,4.03 4.53,3.18 C4.53,2.32 3.92,1.86 3.04,1.86 L1.78,1.86 L1.78,4.52 Z"></path>
                    <path d="M10.96,8.77 C8.8,8.77 7.02,6.99 7.02,4.81 C7.02,2.62 8.8,0.84 10.96,0.84 C13.12,0.84 14.9,2.62 14.9,4.81 C14.9,6.99 13.12,8.77 10.96,8.77 Z M10.96,1.77 C9.33,1.77 8.02,3.14 8.02,4.81 C8.02,6.47 9.33,7.84 10.96,7.84 C12.59,7.84 13.9,6.47 13.9,4.81 C13.9,3.14 12.6,1.77 10.96,1.77 Z"></path>
                    <path d="M20.38,0.84 C21.19,0.84 21.95,1.08 22.63,1.53 L22.63,2.62 C21.88,2.06 21.15,1.79 20.36,1.79 C18.74,1.79 17.46,3.12 17.46,4.82 C17.46,6.5 18.73,7.84 20.36,7.84 C21.14,7.84 21.91,7.57 22.65,7.03 L22.65,8.12 C21.93,8.57 21.17,8.79 20.37,8.79 C18.18,8.79 16.45,7.05 16.45,4.83 C16.46,2.58 18.18,0.84 20.38,0.84 Z"></path>
                    <polygon points="25.65 4.27 28.86 0.97 30.09 0.97 26.72 4.42 30.35 8.64 29.11 8.64 26.07 5.06 25.64 5.5 25.64 8.64 24.66 8.64 24.66 0.96 25.64 0.96 25.64 4.27"></polygon>
                    <polygon points="32.03 0.97 36.3 0.97 36.3 1.87 33 1.87 33 4.22 36.06 4.22 36.06 5.11 33 5.11 33 7.75 36.31 7.75 36.31 8.65 32.02 8.65 32.02 0.97"></polygon>
                    <polygon points="39.37 8.65 38.39 8.65 38.39 0.97 42.57 0.97 42.57 1.87 39.37 1.87 39.37 4.22 42.4 4.22 42.4 5.11 39.37 5.11 39.37 8.65"></polygon>
                    <polygon points="44.69 0.97 48.96 0.97 48.96 1.87 45.67 1.87 45.67 4.22 48.73 4.22 48.73 5.11 45.67 5.11 45.67 7.75 48.98 7.75 48.98 8.65 44.69 8.65 44.69 0.97"></polygon>
                    <polygon points="51.99 0.97 51.99 7.74 54.73 7.74 54.73 8.65 51.01 8.65 51.01 0.97"></polygon>
                    <polygon points="57.5 0.97 57.5 7.74 60.24 7.74 60.24 8.65 56.52 8.65 56.52 0.97"></polygon>
                    <polygon points="62.28 0.97 66.55 0.97 66.55 1.87 63.26 1.87 63.26 4.22 66.32 4.22 66.32 5.11 63.26 5.11 63.26 7.75 66.57 7.75 66.57 8.65 62.28 8.65 62.28 0.97"></polygon>
                    <path d="M69.62,8.65 L68.64,8.65 L68.64,0.97 L70.89,0.97 C72.34,0.97 73.36,1.77 73.36,3.19 C73.36,4.37 72.57,5.15 71.45,5.35 L73.86,8.65 L72.71,8.65 L70.36,5.39 L69.61,5.39 L69.61,8.65 L69.62,8.65 Z M69.62,4.52 L70.88,4.52 C71.76,4.52 72.37,4.03 72.37,3.18 C72.37,2.32 71.76,1.86 70.88,1.86 L69.62,1.86 L69.62,4.52 Z"></path>
                    <path d="M82.5,0.84 C83.31,0.84 84.07,1.08 84.75,1.53 L84.75,2.62 C84,2.06 83.27,1.79 82.48,1.79 C80.86,1.79 79.58,3.12 79.58,4.82 C79.58,6.5 80.85,7.84 82.48,7.84 C83.26,7.84 84.03,7.57 84.77,7.03 L84.77,8.12 C84.05,8.57 83.29,8.79 82.49,8.79 C80.3,8.79 78.57,7.05 78.57,4.83 C78.57,2.58 80.29,0.84 82.5,0.84 Z"></path>
                    <polygon points="86.72 0.97 90.99 0.97 90.99 1.87 87.7 1.87 87.7 4.22 90.76 4.22 90.76 5.11 87.7 5.11 87.7 7.75 91.01 7.75 91.01 8.65 86.72 8.65 86.72 0.97"></polygon>
                    <polygon points="99.51 0.97 99.51 8.65 98.59 8.65 93.93 2.45 93.93 8.65 92.99 8.65 92.99 0.97 93.99 0.97 98.57 7.09 98.57 0.97"></polygon>
                    <polygon points="101.12 0.97 106.58 0.97 106.58 1.87 104.34 1.87 104.34 8.65 103.35 8.65 103.35 1.87 101.11 1.87 101.11 0.97"></polygon>
                    <polygon points="108.26 0.97 112.53 0.97 112.53 1.87 109.24 1.87 109.24 4.22 112.3 4.22 112.3 5.11 109.24 5.11 109.24 7.75 112.55 7.75 112.55 8.65 108.26 8.65 108.26 0.97"></polygon>
                    <path d="M115.65,8.65 L114.67,8.65 L114.67,0.97 L116.92,0.97 C118.37,0.97 119.39,1.77 119.39,3.19 C119.39,4.37 118.6,5.15 117.48,5.35 L119.89,8.65 L118.74,8.65 L116.39,5.39 L115.64,5.39 L115.64,8.65 L115.65,8.65 Z M115.65,4.52 L116.91,4.52 C117.79,4.52 118.4,4.03 118.4,3.18 C118.4,2.32 117.79,1.86 116.91,1.86 L115.65,1.86 L115.65,4.52 Z"></path>
                </g>
                <path d="M137.08,37.53 L137.08,36.79 L137.4,36.79 C137.72,36.79 137.87,36.9 137.87,37.15 C137.87,37.37 137.72,37.52 137.41,37.52 L137.08,37.53 Z M137.08,37.76 L137.5,37.74 L137.93,38.43 L138.23,38.43 L137.76,37.68 C137.98,37.59 138.13,37.41 138.13,37.14 C138.13,36.79 137.88,36.57 137.41,36.57 L136.81,36.57 L136.81,38.44 L137.07,38.44 L137.07,37.76 L137.08,37.76 Z M139.01,37.52 C139.01,38.38 138.31,39.1 137.44,39.1 C136.57,39.1 135.86,38.39 135.86,37.52 C135.86,36.65 136.56,35.93 137.44,35.93 C138.31,35.93 139.01,36.65 139.01,37.52 M137.44,39.23 C138.39,39.23 139.16,38.46 139.16,37.51 C139.16,36.55 138.39,35.78 137.44,35.78 C136.48,35.78 135.71,36.56 135.71,37.51 C135.71,38.46 136.48,39.23 137.44,39.23"></path>
            </g>
        </g>
    </g>
</svg>