<?xml version="1.0" encoding="UTF-8"?>
<svg width="307px" height="157px" viewBox="0 0 307 157" version="1.1" xmlns="http://www.w3.org/2000/svg" xmlns:xlink="http://www.w3.org/1999/xlink">
    <g stroke="none" stroke-width="1" fill="none" fill-rule="evenodd">
        <g fill="#000000" fill-rule="nonzero">
            <g>
                <polygon points="75.86 133.55 67.31 144.51 67.31 133.55 65.1 133.55 65.1 155.4 67.31 155.4 67.31 147.45 76.2 155.4 79.46 155.4 68.78 145.95 78.59 133.55"></polygon>
                <path d="M13.06,140.86 C13.06,136.56 9.53,133.55 4.48,133.55 L0.06,133.55 L0.06,155.4 L2.28,155.4 L2.28,148.75 L10.61,155.4 L14.04,155.4 L5.09,148.37 C9.97,148.02 13.06,145.15 13.06,140.86 M2.28,135.54 L4.37,135.54 C8.27,135.54 10.79,137.65 10.79,140.93 C10.79,145.03 7.41,146.49 4.25,146.49 L2.28,146.49 L2.28,135.54 L2.28,135.54 Z"></path>
                <path d="M27.67,133.26 C21.35,133.26 16.4,138.2 16.4,144.5 C16.4,150.77 21.33,155.68 27.61,155.68 C33.93,155.68 38.88,150.74 38.88,144.44 C38.88,138.18 33.96,133.26 27.67,133.26 M27.61,135.28 C32.74,135.28 36.61,139.25 36.61,144.51 C36.61,149.74 32.77,153.68 27.67,153.68 C22.54,153.68 18.67,149.71 18.67,144.45 C18.67,139.22 22.51,135.28 27.61,135.28"></path>
                <path d="M59.66,151.2 C58,152.42 55.93,153.67 53.17,153.67 C48.29,153.67 44.61,149.66 44.61,144.35 C44.61,139.26 48.31,135.26 53.03,135.26 C55.31,135.26 57.18,135.94 59.28,137.53 L59.7,137.85 L60.93,136.11 L60.53,135.81 C58.27,134.08 55.83,133.25 53.08,133.25 C47.15,133.25 42.33,138.25 42.33,144.4 C42.33,150.72 47.06,155.67 53.11,155.67 C55.97,155.67 58.43,154.76 60.86,152.81 L61.24,152.5 L60.08,150.87 L59.66,151.2 Z"></path>
                <polygon points="98.66 155.4 100.87 155.4 100.87 144.1 107.63 144.1 107.63 142.11 100.87 142.11 100.87 135.54 107.63 135.54 107.63 133.55 98.66 133.55"></polygon>
                <polygon points="145.98 133.55 143.76 133.55 143.76 155.4 153.09 155.4 153.09 153.42 145.98 153.42"></polygon>
                <polygon points="131.75 133.55 129.53 133.55 129.53 155.4 138.86 155.4 138.86 153.42 131.75 153.42"></polygon>
                <path d="M186.23,140.86 C186.23,136.56 182.7,133.55 177.65,133.55 L173.23,133.55 L173.23,155.4 L175.45,155.4 L175.45,148.75 L183.78,155.4 L187.21,155.4 L178.26,148.37 C183.13,148.02 186.23,145.15 186.23,140.86 M175.45,135.54 L177.54,135.54 C181.44,135.54 183.97,137.65 183.97,140.93 C183.97,145.03 180.59,146.49 177.43,146.49 L175.46,146.49 L175.46,135.54 L175.45,135.54 Z"></path>
                <polygon points="160.09 143.95 167.22 143.95 167.22 141.97 160.09 141.97 160.09 135.54 167.34 135.54 167.34 133.55 157.87 133.55 157.87 155.4 167.39 155.4 167.39 153.42 160.09 153.42"></polygon>
                <polygon points="115.83 143.95 122.96 143.95 122.96 141.97 115.83 141.97 115.83 135.54 123.07 135.54 123.07 133.55 113.61 133.55 113.61 155.4 123.13 155.4 123.13 153.42 115.83 153.42"></polygon>
                <polygon points="85.51 143.95 92.64 143.95 92.64 141.97 85.51 141.97 85.51 135.54 92.76 135.54 92.76 133.55 83.3 133.55 83.3 155.4 92.82 155.4 92.82 153.42 85.51 153.42"></polygon>
                <path d="M213.41,151.2 C211.75,152.42 209.68,153.67 206.92,153.67 C202.04,153.67 198.36,149.66 198.36,144.35 C198.36,139.26 202.06,135.27 206.78,135.27 C209.06,135.27 210.93,135.95 213.03,137.54 L213.45,137.86 L214.68,136.12 L214.28,135.82 C212.02,134.09 209.58,133.26 206.83,133.26 C200.9,133.26 196.08,138.26 196.08,144.41 C196.08,150.73 200.82,155.68 206.86,155.68 C209.72,155.68 212.18,154.77 214.61,152.82 L214.99,152.51 L213.83,150.88 L213.41,151.2 Z"></path>
                <polygon points="221.64 143.95 228.77 143.95 228.77 141.97 221.64 141.97 221.64 135.54 228.88 135.54 228.88 133.55 219.42 133.55 219.42 155.4 228.94 155.4 228.94 153.42 221.64 153.42"></polygon>
                <polygon points="245.47 149.21 234.47 132.72 234.47 155.4 236.6 155.4 236.6 139.68 247.6 156.17 247.6 133.55 245.47 133.55"></polygon>
                <polygon points="251.96 135.54 257.27 135.54 257.27 155.4 259.48 155.4 259.48 135.54 264.8 135.54 264.8 133.55 251.96 133.55"></polygon>
                <path d="M297.21,140.86 C297.21,136.56 293.68,133.55 288.63,133.55 L284.21,133.55 L284.21,155.4 L286.43,155.4 L286.43,148.75 L294.75,155.4 L298.18,155.4 L289.23,148.37 C294.11,148.02 297.21,145.15 297.21,140.86 M286.43,135.54 L288.52,135.54 C292.42,135.54 294.94,137.65 294.94,140.92 C294.94,145.02 291.56,146.48 288.4,146.48 L286.43,146.48 L286.43,135.54 L286.43,135.54 Z"></path>
                <polygon points="271.37 143.95 278.5 143.95 278.5 141.97 271.37 141.97 271.37 135.54 278.62 135.54 278.62 133.55 269.16 133.55 269.16 155.4 278.68 155.4 278.68 153.42 271.37 153.42"></polygon>
                <polygon points="156.03 10.42 153.82 10.42 153.82 94.71 138.71 94.71 138.71 10.42 136.5 10.42 136.5 96.93 156.03 96.93"></polygon>
                <rect x="145.16" y="0.91" width="2.21" height="87.36"></rect>
                <polygon points="162.47 51.73 162.47 103.37 130.06 103.37 130.06 51.73 127.84 51.73 127.84 105.59 164.69 105.59 164.69 51.73"></polygon>
                <path d="M302.72,136.84 L302.72,135.33 L303.37,135.33 C304.03,135.33 304.34,135.56 304.34,136.07 C304.34,136.53 304.03,136.82 303.4,136.82 L302.72,136.84 Z M302.73,137.3 L303.58,137.26 L304.46,138.68 L305.08,138.68 L304.12,137.14 C304.58,136.96 304.88,136.59 304.88,136.03 C304.88,135.31 304.38,134.86 303.42,134.86 L302.19,134.86 L302.19,138.68 L302.73,138.68 L302.73,137.3 L302.73,137.3 Z M306.68,136.82 C306.68,138.59 305.25,140.04 303.47,140.04 C301.68,140.04 300.24,138.58 300.24,136.82 C300.24,135.04 301.68,133.56 303.47,133.56 C305.24,133.56 306.68,135.03 306.68,136.82 M303.47,140.33 C305.42,140.33 306.99,138.75 306.99,136.82 C306.99,134.86 305.41,133.27 303.47,133.27 C301.51,133.27 299.939952,134.86 299.939952,136.82 C299.93,138.75 301.5,140.33 303.47,140.33"></path>
            </g>
        </g>
    </g>
</svg>