<?xml version="1.0" encoding="UTF-8"?>
<svg width="125px" height="41px" viewBox="0 0 125 41" version="1.1" xmlns="http://www.w3.org/2000/svg" xmlns:xlink="http://www.w3.org/1999/xlink">
    <g stroke="none" stroke-width="1" fill="none" fill-rule="evenodd">
        <g fill="#000000" fill-rule="nonzero">
            <g>
                <g transform="translate(21.000000, 18.000000)">
                    <path d="M27.5,0.47 C21.18,0.47 16.22,5.41 16.22,11.72 C16.22,17.99 21.15,22.91 27.44,22.91 C33.76,22.91 38.72,17.97 38.72,11.66 C38.72,5.38 33.79,0.47 27.5,0.47 Z M27.45,2.45 C32.6,2.45 36.48,6.43 36.48,11.71 C36.48,16.96 32.62,20.91 27.51,20.91 C22.36,20.91 18.48,16.93 18.48,11.65 C18.48,6.41 22.33,2.45 27.45,2.45 Z"></path>
                    <path d="M55.84,15.39 C55.84,18.9 54.09,20.91 51.04,20.91 C47.96,20.91 46.12,18.83 46.12,15.36 L46.12,0.76 L43.93,0.76 L43.93,15.4 C43.93,19.89 46.76,22.91 50.98,22.91 C55.26,22.91 58.03,19.95 58.03,15.37 L58.03,0.76 L55.84,0.76 L55.84,15.39 Z"></path>
                    <path d="M69.26,15.57 C74.16,15.24 77.28,12.36 77.28,8.06 C77.28,3.76 73.75,0.75 68.7,0.75 L64.29,0.75 L64.29,22.61 L66.48,22.61 L66.48,15.93 L74.84,22.61 L78.23,22.61 L69.26,15.57 Z M66.47,2.71 L68.58,2.71 C72.5,2.71 75.03,4.83 75.03,8.12 C75.03,12.24 71.64,13.7 68.46,13.7 L66.47,13.7 L66.47,2.71 L66.47,2.71 Z"></path>
                    <polygon points="0.88 2.73 6.2 2.73 6.2 22.63 8.42 22.63 8.42 2.73 13.74 2.73 13.74 0.74 0.88 0.74"></polygon>
                </g>
                <path d="M1.81,8.63 L0.83,8.63 L0.83,0.95 L3.08,0.95 C4.53,0.95 5.55,1.75 5.55,3.17 C5.55,4.35 4.76,5.13 3.64,5.33 L6.05,8.63 L4.9,8.63 L2.55,5.37 L1.8,5.37 L1.8,8.63 L1.81,8.63 Z M1.81,4.51 L3.07,4.51 C3.95,4.51 4.56,4.02 4.56,3.17 C4.56,2.31 3.95,1.85 3.07,1.85 L1.81,1.85 L1.81,4.51 Z"></path>
                <path d="M10.99,8.75 C8.83,8.75 7.05,6.97 7.05,4.79 C7.05,2.6 8.83,0.82 10.99,0.82 C13.15,0.82 14.93,2.6 14.93,4.79 C14.93,6.97 13.15,8.75 10.99,8.75 Z M10.99,1.75 C9.36,1.75 8.05,3.12 8.05,4.79 C8.05,6.45 9.36,7.82 10.99,7.82 C12.62,7.82 13.93,6.45 13.93,4.79 C13.93,3.12 12.63,1.75 10.99,1.75 Z"></path>
                <path d="M20.41,0.82 C21.22,0.82 21.98,1.06 22.66,1.51 L22.66,2.6 C21.91,2.04 21.18,1.77 20.39,1.77 C18.77,1.77 17.49,3.1 17.49,4.8 C17.49,6.48 18.76,7.82 20.39,7.82 C21.17,7.82 21.94,7.55 22.68,7.01 L22.68,8.1 C21.96,8.55 21.2,8.77 20.4,8.77 C18.21,8.77 16.48,7.03 16.48,4.81 C16.49,2.56 18.21,0.82 20.41,0.82 Z"></path>
                <polygon points="25.68 4.25 28.89 0.95 30.12 0.95 26.75 4.4 30.38 8.62 29.14 8.62 26.1 5.04 25.67 5.48 25.67 8.62 24.7 8.62 24.7 0.94 25.68 0.94"></polygon>
                <polygon points="32.06 0.95 36.33 0.95 36.33 1.85 33.04 1.85 33.04 4.2 36.1 4.2 36.1 5.09 33.04 5.09 33.04 7.73 36.35 7.73 36.35 8.63 32.06 8.63 32.06 0.95"></polygon>
                <polygon points="39.39 8.63 38.41 8.63 38.41 0.95 42.59 0.95 42.59 1.85 39.39 1.85 39.39 4.2 42.42 4.2 42.42 5.09 39.39 5.09"></polygon>
                <polygon points="44.71 0.95 48.98 0.95 48.98 1.85 45.69 1.85 45.69 4.2 48.75 4.2 48.75 5.09 45.69 5.09 45.69 7.73 49 7.73 49 8.63 44.71 8.63"></polygon>
                <polygon points="52.02 0.95 52.02 7.72 54.76 7.72 54.76 8.63 51.04 8.63 51.04 0.95 52.02 0.95"></polygon>
                <polygon points="57.53 0.95 57.53 7.72 60.27 7.72 60.27 8.63 56.55 8.63 56.55 0.95 57.53 0.95"></polygon>
                <polygon points="62.31 0.95 66.58 0.95 66.58 1.85 63.29 1.85 63.29 4.2 66.35 4.2 66.35 5.09 63.29 5.09 63.29 7.73 66.6 7.73 66.6 8.63 62.31 8.63 62.31 0.95"></polygon>
                <path d="M69.65,8.63 L68.67,8.63 L68.67,0.95 L70.92,0.95 C72.37,0.95 73.39,1.75 73.39,3.17 C73.39,4.35 72.6,5.13 71.48,5.33 L73.89,8.63 L72.74,8.63 L70.39,5.37 L69.64,5.37 L69.64,8.63 L69.65,8.63 Z M69.65,4.51 L70.91,4.51 C71.79,4.51 72.4,4.02 72.4,3.17 C72.4,2.31 71.79,1.85 70.91,1.85 L69.65,1.85 L69.65,4.51 Z"></path>
                <path d="M82.53,0.82 C83.34,0.82 84.1,1.06 84.78,1.51 L84.78,2.6 C84.03,2.04 83.3,1.77 82.51,1.77 C80.89,1.77 79.61,3.1 79.61,4.8 C79.61,6.48 80.88,7.82 82.51,7.82 C83.29,7.82 84.06,7.55 84.8,7.01 L84.8,8.1 C84.08,8.55 83.32,8.77 82.52,8.77 C80.33,8.77 78.6,7.03 78.6,4.81 C78.6,2.56 80.32,0.82 82.53,0.82 Z"></path>
                <polygon points="86.75 0.95 91.02 0.95 91.02 1.85 87.73 1.85 87.73 4.2 90.79 4.2 90.79 5.09 87.73 5.09 87.73 7.73 91.04 7.73 91.04 8.63 86.75 8.63 86.75 0.95"></polygon>
                <polygon points="99.54 0.95 99.54 8.63 98.62 8.63 93.96 2.43 93.96 8.63 93.02 8.63 93.02 0.95 94.02 0.95 98.6 7.07 98.6 0.95"></polygon>
                <polygon points="101.15 0.95 106.61 0.95 106.61 1.85 104.37 1.85 104.37 8.63 103.38 8.63 103.38 1.85 101.14 1.85 101.14 0.95"></polygon>
                <polygon points="108.29 0.95 112.56 0.95 112.56 1.85 109.27 1.85 109.27 4.2 112.33 4.2 112.33 5.09 109.27 5.09 109.27 7.73 112.58 7.73 112.58 8.63 108.29 8.63 108.29 0.95"></polygon>
                <path d="M115.68,8.63 L114.7,8.63 L114.7,0.95 L116.95,0.95 C118.4,0.95 119.42,1.75 119.42,3.17 C119.42,4.35 118.63,5.13 117.51,5.33 L119.92,8.63 L118.77,8.63 L116.42,5.37 L115.67,5.37 L115.67,8.63 L115.68,8.63 Z M115.68,4.51 L116.94,4.51 C117.82,4.51 118.43,4.02 118.43,3.17 C118.43,2.31 117.82,1.85 116.94,1.85 L115.68,1.85 L115.68,4.51 Z"></path>
                <path d="M122.11,2.51 L122.11,1.77 L122.43,1.77 C122.75,1.77 122.9,1.88 122.9,2.13 C122.9,2.35 122.75,2.5 122.44,2.5 L122.11,2.51 Z M122.11,2.74 L122.53,2.72 L122.96,3.41 L123.26,3.41 L122.79,2.66 C123.01,2.57 123.16,2.39 123.16,2.12 C123.16,1.77 122.91,1.55 122.44,1.55 L121.84,1.55 L121.84,3.42 L122.1,3.42 L122.1,2.74 L122.11,2.74 Z M124.04,2.5 C124.04,3.36 123.34,4.08 122.47,4.08 C121.6,4.08 120.89,3.37 120.89,2.5 C120.89,1.63 121.59,0.91 122.47,0.91 C123.34,0.91 124.04,1.63 124.04,2.5 M122.47,4.22 C123.42,4.22 124.19,3.45 124.19,2.5 C124.19,1.54 123.42,0.77 122.47,0.77 C121.51,0.77 120.74,1.55 120.74,2.5 C120.74,3.45 121.51,4.22 122.47,4.22"></path>
            </g>
        </g>
    </g>
</svg>