<svg width="77" height="33" viewBox='0 0 77 33' xmlns="http://www.w3.org/2000/svg"><defs><linearGradient x1="49.995%" y1="-.014%" x2="49.995%" y2="99.986%" id="a"><stop stop-color="#F79810" offset="0%"/><stop stop-color="#F8310E" offset="100%"/></linearGradient></defs><path d="M.872 19.736c-.16 0-.288.123-.309.298L0 24.254l.563 4.149c.02.174.148.296.309.296.156 0 .282-.12.307-.295l.668-4.15-.668-4.22c-.024-.175-.152-.298-.307-.298zm3.167-2.306c-.027-.18-.159-.306-.32-.306-.164 0-.299.13-.321.306l-.757 6.825.757 6.673c.021.179.156.308.32.308.162 0 .293-.126.32-.307l.86-6.674-.86-6.825zm11.927-6.294a.59.59 0 00-.582.57l-.603 12.554.603 8.114a.59.59 0 00.582.567c.31 0 .565-.25.583-.569v.003l.682-8.115-.682-12.555a.594.594 0 00-.583-.57zm-6.173 4.363a.46.46 0 00-.452.44l-.68 8.318.68 8.048c.018.25.213.438.452.438.236 0 .43-.188.451-.438l.772-8.048-.772-8.32a.462.462 0 00-.451-.438zM22.24 32.94a.718.718 0 00.714-.698l.591-7.978-.59-16.715a.718.718 0 00-.714-.699.716.716 0 00-.715.7l-.524 16.714.524 7.98a.715.715 0 00.714.696zm12.844.038c.53 0 .967-.43.977-.96v.006-.006l.412-7.749-.412-19.305a.982.982 0 00-.977-.96.98.98 0 00-.978.961l-.368 19.298.368 7.76a.98.98 0 00.978.955zm-6.471-.03a.846.846 0 00.845-.831v.005l.502-7.856-.502-16.836a.845.845 0 00-.846-.83.842.842 0 00-.846.83l-.446 16.837.447 7.855c.01.46.381.826.846.826zm-15.745-.074a.525.525 0 00.516-.502l.728-8.115-.728-7.72a.522.522 0 00-.516-.5c-.278 0-.5.217-.518.504l-.64 7.716.64 8.115c.018.286.24.502.518.502zm-6.125-.444c.2 0 .363-.156.386-.372l.817-7.803-.816-8.096c-.024-.217-.187-.373-.387-.373-.203 0-.365.157-.386.373l-.719 8.096.72 7.801c.02.217.181.374.385.374zM31.836 7.15a.908.908 0 00-.913.896l-.407 16.222.407 7.805c.01.497.411.89.913.89.5 0 .9-.392.91-.895v.006l.458-7.805-.457-16.225a.907.907 0 00-.911-.895zM19.092 32.956a.657.657 0 00.648-.634l.636-8.06-.636-15.427a.657.657 0 00-.648-.634.654.654 0 00-.65.634l-.563 15.427.564 8.063c.014.352.3.63.649.63zm7.101-.761v-.004l.547-7.927-.547-17.278a.78.78 0 00-1.56 0l-.484 17.277.486 7.931a.78.78 0 001.559-.002v.003zm41.337-17.89c-1.298 0-2.536.259-3.664.725C63.113 6.608 55.955 0 47.223 0c-2.136 0-4.219.415-6.058 1.117-.714.273-.905.554-.912 1.1V31.88a1.137 1.137 0 001.023 1.104C41.3 32.987 67.36 33 67.53 33 72.76 33 77 28.815 77 23.653s-4.24-9.348-9.47-9.348zM38.317 2.19c-.569 0-1.036.461-1.044 1.027l-.427 21.055.428 7.641a1.043 1.043 0 002.086-.008v.009l.464-7.642-.464-21.056a1.046 1.046 0 00-1.043-1.026z" fill="url(#a)" fill-rule="nonzero"/></svg>