<?xml version="1.0" encoding="utf-8"?>
<!-- Generator: Adobe Illustrator 25.2.3, SVG Export Plug-In . SVG Version: 6.00 Build 0)  -->
<svg version="1.1" id="Layer_1" xmlns="http://www.w3.org/2000/svg" xmlns:xlink="http://www.w3.org/1999/xlink" x="0px" y="0px"
	 width="57.773px" height="57.773px" viewBox="0 0 57.773 57.773" enable-background="new 0 0 57.773 57.773" xml:space="preserve">
<path fill="#BEB1D7" d="M33.431,2.841l-7.553,7.553l-2.841,2.841L2.841,33.431L0,36.272l2.841,2.841l1.816,1.816l0.027,0.027
	l2.689,2.689l1.421-1.421c1.865-1.865,4.89-1.865,6.755,0c1.865,1.865,1.865,4.89,0,6.755L14.128,50.4l2.689,2.689l0.027,0.027
	l1.816,1.816l2.841,2.841l2.841-2.841l20.196-20.196l2.841-2.841l7.553-7.553l2.841-2.841l-2.841-2.841l-1.816-1.816l-0.027-0.027
	L50.4,14.128l-1.421,1.421c-1.865,1.865-4.89,1.865-6.755,0c-1.865-1.865-1.865-4.89,0-6.755l1.421-1.421l-2.689-2.689l-0.027-0.027
	l-1.816-1.816L36.272,0L33.431,2.841z M21.501,52.091l-1.816-1.816c2.129-3.417,1.716-7.966-1.253-10.935
	c-2.969-2.969-7.518-3.381-10.935-1.253l-1.816-1.816l20.196-20.196l15.819,15.819L21.501,52.091z M38.088,7.498
	c-2.129,3.417-1.716,7.966,1.253,10.935c2.969,2.969,7.518,3.381,10.935,1.253l1.816,1.816l-7.553,7.553L28.719,13.235l7.553-7.553
	L38.088,7.498z"/>
</svg>
