<?xml version="1.0" encoding="UTF-8"?>
<svg width="259px" height="95px" viewBox="0 0 259 95" version="1.1" xmlns="http://www.w3.org/2000/svg" xmlns:xlink="http://www.w3.org/1999/xlink">
    <g stroke="none" stroke-width="1" fill="none" fill-rule="evenodd">
        <g fill="#000000" fill-rule="nonzero">
            <g>
                <g transform="translate(0.000000, 72.000000)">
                    <polygon points="140.09 8.93 131.39 8.93 131.39 0.51 129.17 0.51 129.17 22.36 131.39 22.36 131.39 10.91 140.09 10.91 140.09 22.36 142.3 22.36 142.3 0.51 140.09 0.51"></polygon>
                    <path d="M25.68,0.22 C19.36,0.22 14.41,5.16 14.41,11.46 C14.41,17.73 19.34,22.65 25.63,22.65 C31.95,22.65 36.9,17.71 36.9,11.41 C36.9,5.14 31.97,0.22 25.68,0.22 Z M25.62,2.24 C30.75,2.24 34.62,6.21 34.62,11.47 C34.62,16.7 30.78,20.64 25.68,20.64 C20.55,20.64 16.68,16.67 16.68,11.41 C16.68,6.18 20.53,2.24 25.62,2.24 Z"></path>
                    <path d="M45.41,0.51 L41.42,0.51 L41.42,22.36 L43.64,22.36 L43.64,15.53 L45.03,15.53 C49.16,15.53 53.99,13.52 53.99,7.87 C53.99,3.54 50.46,0.51 45.41,0.51 Z M43.64,2.5 L45.29,2.5 C49.19,2.5 51.72,4.64 51.72,7.94 C51.72,12.08 48.42,13.56 45.32,13.56 L43.64,13.56 L43.64,2.5 L43.64,2.5 Z"></path>
                    <path d="M75.8,0.22 C69.48,0.22 64.53,5.16 64.53,11.46 C64.53,17.73 69.46,22.65 75.75,22.65 C82.07,22.65 87.02,17.71 87.02,11.41 C87.02,5.14 82.09,0.22 75.8,0.22 Z M75.75,2.24 C80.88,2.24 84.75,6.21 84.75,11.47 C84.75,16.7 80.91,20.64 75.81,20.64 C70.68,20.64 66.8099806,16.67 66.8099806,11.41 C66.8,6.18 70.65,2.24 75.75,2.24 Z"></path>
                    <polygon points="248.57 0.51 245.84 0.51 237.29 11.47 237.29 0.51 235.08 0.51 235.08 22.36 237.29 22.36 237.29 14.41 246.18 22.36 249.44 22.36 238.76 12.91"></polygon>
                    <path d="M183.04,7.82 C183.04,3.52 179.51,0.51 174.46,0.51 L170.04,0.51 L170.04,22.36 L172.26,22.36 L172.26,15.71 L180.59,22.36 L184.02,22.36 L175.07,15.33 C179.95,14.99 183.04,12.11 183.04,7.82 Z M172.26,2.5 L174.35,2.5 C178.25,2.5 180.78,4.61 180.78,7.89 C180.78,11.99 177.4,13.45 174.24,13.45 L172.27,13.45 L172.27,2.5 L172.26,2.5 Z"></path>
                    <path d="M197.65,0.22 C191.33,0.22 186.38,5.16 186.38,11.46 C186.38,17.73 191.31,22.65 197.6,22.65 C203.92,22.65 208.87,17.71 208.87,11.41 C208.86,5.14 203.94,0.22 197.65,0.22 Z M197.59,2.24 C202.72,2.24 206.59,6.21 206.59,11.47 C206.59,16.7 202.75,20.64 197.65,20.64 C192.52,20.64 188.65,16.67 188.65,11.41 C188.65,6.18 192.49,2.24 197.59,2.24 Z"></path>
                    <path d="M229.64,18.17 C227.98,19.39 225.91,20.64 223.15,20.64 C218.27,20.64 214.58,16.63 214.58,11.32 C214.58,6.23 218.28,2.23 223,2.23 C225.28,2.23 227.15,2.91 229.25,4.5 L229.67,4.82 L230.9,3.08 L230.5,2.78 C228.24,1.06 225.8,0.22 223.04,0.22 C217.11,0.22 212.29,5.22 212.29,11.38 C212.29,17.7 217.03,22.65 223.07,22.65 C225.93,22.65 228.4,21.74 230.82,19.79 L231.2,19.49 L230.04,17.86 L229.64,18.17 Z"></path>
                    <polygon points="91.54 22.36 93.76 22.36 93.76 11.06 100.51 11.06 100.51 9.07 93.76 9.07 93.76 2.5 100.51 2.5 100.51 0.51 91.54 0.51"></polygon>
                    <polygon points="0.01 2.5 5.33 2.5 5.33 22.36 7.54 22.36 7.54 2.5 12.86 2.5 12.86 0.51 0.01 0.51"></polygon>
                    <polygon points="111.39 2.5 116.7 2.5 116.7 22.36 118.92 22.36 118.92 2.5 124.24 2.5 124.24 0.51 111.39 0.51"></polygon>
                    <polygon points="150.23 10.91 157.37 10.91 157.37 8.93 150.23 8.93 150.23 2.5 157.48 2.5 157.48 0.51 148.02 0.51 148.02 22.36 157.54 22.36 157.54 20.38 150.23 20.38"></polygon>
                </g>
                <path d="M123.67,50.66 L125.88,50.66 L125.88,0 L123.67,0 L123.67,50.66 Z M132.32,9.48 L132.32,50.66 L134.54,50.66 L134.54,9.48 L132.32,9.48 Z M115,50.66 L117.21,50.66 L117.21,9.48 L115,9.48 L115,50.66 Z"></path>
                <path d="M253.77,75.81 L253.77,74.3 L254.42,74.3 C255.08,74.3 255.39,74.53 255.39,75.04 C255.39,75.5 255.08,75.79 254.45,75.79 L253.77,75.81 Z M253.77,76.28 L254.62,76.24 L255.5,77.66 L256.12,77.66 L255.16,76.12 C255.62,75.94 255.92,75.57 255.92,75.01 C255.92,74.29 255.42,73.84 254.46,73.84 L253.23,73.84 L253.23,77.66 L253.77,77.66 L253.77,76.28 L253.77,76.28 Z M257.72,75.79 C257.72,77.56 256.29,79.01 254.51,79.01 C252.72,79.01 251.28,77.55 251.28,75.79 C251.28,74.01 252.72,72.53 254.51,72.53 C256.29,72.53 257.72,74.01 257.72,75.79 M254.51,79.3 C256.46,79.3 258.03,77.72 258.03,75.79 C258.03,73.83 256.45,72.24 254.51,72.24 C252.55,72.24 250.98,73.83 250.98,75.79 C250.98,77.73 252.55,79.3 254.51,79.3"></path>
            </g>
        </g>
    </g>
</svg>