<svg xmlns="http://www.w3.org/2000/svg" viewBox="0 0 69 69"><g fill="none" fill-rule="evenodd"><path stroke="#FFF" d="M.5.5h68v68H.5z"/><path d="M46.962 27.269a6.782 6.782 0 002.86-3.77 12.644 12.644 0 01-4.133 1.652C44.506 23.827 42.815 23 40.943 23c-3.588 0-6.5 3.052-6.5 6.816 0 .534.056 1.053.168 1.552-5.405-.285-10.195-2.995-13.405-7.124a7.06 7.06 0 00-.88 3.43c0 2.364 1.148 4.45 2.893 5.674a6.28 6.28 0 01-2.946-.85v.083c0 3.304 2.241 6.06 5.218 6.683-.545.16-1.12.24-1.713.24-.42 0-.828-.04-1.225-.12.828 2.706 3.228 4.678 6.075 4.73-2.225 1.83-5.03 2.92-8.076 2.92-.525 0-1.044-.031-1.552-.094 2.878 1.93 6.297 3.06 9.968 3.06C40.93 50 47.47 39.615 47.47 30.608c0-.297-.006-.593-.017-.884a13.526 13.526 0 003.243-3.528 12.49 12.49 0 01-3.734 1.073z" fill="#FFF" fill-rule="nonzero"/></g></svg>