<svg width="22" height="20" viewBox="0 0 22 20" fill="none" xmlns="http://www.w3.org/2000/svg"><path fill-rule="evenodd" clip-rule="evenodd" d="M11.981 7.385c-.118-.496.09-.85.443-.986.6-.233 1.51.706 1.739 1.027 1.954 2.746.07 5.795-1.281 6.172-.838.234-1.358-.963-.438-1.5.57-.334 1.094-.995 1.165-1.824.087-1.008-.354-1.79-.84-2.158-.336-.254-.689-.317-.788-.73zm-.566-4.75c-.013 2.164.091 4.5-.01 6.639l-.004.55.017.465-.002 1.23c-.036 2.26-.012 4.558 0 6.82.007 1.592-.888 1.63-1.66.861L6.31 15.788c-1.02-.996-1.148-1.45-2.004-1.453-4.612-.02-4.241.562-4.256-2.528C.054 10.533-.004 9.262 0 7.99c.003-.723.173-1.308.948-1.358 1.083-.07 2.35.025 3.456.007.711-.011.717-.244 1.106-.634l4.24-4.236c.71-.718 1.675-.79 1.665.866zm2.43.545c1.306-.584 7.331 4.7 3.503 11.057-.46.762-1.938 2.275-2.967 2.577-1.036.305-1.344-1.003-.59-1.447.76-.448 1.043-.597 1.627-1.133 2.08-1.905 2.319-6.041.175-8.249-.557-.573-.758-.825-1.543-1.226-1.117-.57-.72-1.348-.204-1.58zM15.234.04c.61-.275 2.199.938 2.625 1.264 4.419 3.377 5.46 10.162 2.356 14.799-.983 1.468-2.761 3.277-4.38 3.834-.676.232-1.21-.2-1.061-.915.183-.881 2.325-.784 4.298-3.94.257-.41.502-.867.692-1.34 1.425-3.544.717-6.97-1.329-9.724-.53-.713-1.429-1.46-2.165-1.939-.268-.174-1.148-.578-1.325-.762-.466-.485-.173-1.067.29-1.277z" fill="#FFFFFF"/></svg>